<svg xmlns="http://www.w3.org/2000/svg" xmlns:xlink="http://www.w3.org/1999/xlink" x="0px" y="0px" width="420px" height="320px"><polygon fill="#EEEEEE" points="2,298 2,282 42,282 42,222 82,222 82,182 118,182 118,242 158,242 158,262 198,262 198,298 "/><path fill="#BBBBBB" d="M116,184v56v4h4h36v16v4h4h36v32H4v-12h36h4v-4v-56h36h4v-4v-36H116 M120,180H80v40H40v60H0v20h200v-40h-40v-20h-40V180L120,180z"/><path d="M84.6,269.9l-5-6.8h2.6l3.7,5.2l3.7-5.2h2.6l-5,6.8l5.2,7.1h-2.6l-3.9-5.5L82,277h-2.6L84.6,269.9z"/><path d="M102,267.2c2.6,1.4,3.9,3,3.9,5c0,1.5-0.5,2.8-1.6,3.7s-2.5,1.4-4.2,1.4c-1.8,0-3.3-0.4-4.3-1.3c-1-0.9-1.5-2.1-1.5-3.7c0-2.2,1.2-3.8,3.6-5c-2-1.2-3-2.8-3-4.7c0-1.4,0.5-2.4,1.5-3.2c1-0.8,2.2-1.2,3.7-1.2c1.6,0,2.8,0.4,3.8,1.2s1.4,1.9,1.4,3.3C105.3,264.6,104.2,266.1,102,267.2z M99.8,268.2c-2.1,1-3.2,2.4-3.2,4.1c0,2,1.2,3,3.5,3c1.2,0,2-0.3,2.7-0.8c0.6-0.6,0.9-1.3,0.9-2.3c0-0.8-0.3-1.4-0.8-2c-0.5-0.6-1.4-1.2-2.7-1.8L99.8,268.2z M100.1,266.3c2-0.9,2.9-2,2.9-3.5c0-0.9-0.3-1.5-0.8-2s-1.3-0.7-2.2-0.7c-0.9,0-1.6,0.2-2.1,0.7s-0.8,1.1-0.8,2c0,0.8,0.2,1.4,0.6,1.9C98.2,265.2,99,265.7,100.1,266.3z"/><path d="M118.5,258.4v2c-0.6-0.2-1.3-0.3-2.1-0.3c-1.9,0-3.3,0.6-4.3,1.8s-1.5,3.1-1.6,5.7h0.2c0.8-1.4,2.1-2.2,3.9-2.2c1.7,0,2.9,0.5,3.9,1.5s1.4,2.4,1.4,4.1c0,1.9-0.5,3.5-1.5,4.6c-1,1.1-2.4,1.7-4.1,1.7c-1.8,0-3.3-0.7-4.4-2.1c-1.1-1.4-1.6-3.4-1.6-6c0-7.3,2.7-10.9,8.1-10.9C117.2,258.2,117.9,258.3,118.5,258.4z M117.7,271.1c0-1.2-0.3-2.2-0.9-2.8s-1.4-1-2.5-1s-2,0.3-2.7,1s-1.1,1.5-1.1,2.3c0,1.3,0.3,2.4,1,3.3c0.7,0.9,1.6,1.4,2.7,1.4c1.1,0,1.9-0.4,2.5-1.1S117.7,272.4,117.7,271.1z"/><polygon fill="#7FCDE5" points="2,278 2,102 198,102 198,258 162,258 162,238 122,238 122,178 78,178 78,218 38,218 38,278 "/><path fill="#5AB1BF" d="M196,104v152h-32v-16v-4h-4h-36v-56v-4h-4H80h-4v4v36H40h-4v4v56H4V104H196 M200,100H0v180h40v-60h40v-40h40v60h40v20h40V100L200,100z"/><path d="M26.7,139.9l-5-6.8h2.6l3.7,5.2l3.7-5.2h2.6l-5,6.8l5.2,7.1h-2.6l-3.9-5.5L24,147h-2.6L26.7,139.9z"/><path d="M44.1,137.2c2.6,1.4,3.9,3,3.9,5c0,1.5-0.5,2.8-1.6,3.7s-2.5,1.4-4.2,1.4c-1.8,0-3.3-0.4-4.3-1.3c-1-0.9-1.5-2.1-1.5-3.7c0-2.2,1.2-3.8,3.6-5c-2-1.2-3-2.8-3-4.7c0-1.4,0.5-2.4,1.5-3.2c1-0.8,2.2-1.2,3.7-1.2c1.6,0,2.8,0.4,3.8,1.2s1.4,1.9,1.4,3.3C47.4,134.6,46.3,136.1,44.1,137.2z M41.8,138.2c-2.1,1-3.2,2.4-3.2,4.1c0,2,1.2,3,3.5,3c1.2,0,2-0.3,2.7-0.8c0.6-0.6,0.9-1.3,0.9-2.3c0-0.8-0.3-1.4-0.8-2c-0.5-0.6-1.4-1.2-2.7-1.8L41.8,138.2z M42.2,136.3c2-0.9,2.9-2,2.9-3.5c0-0.9-0.3-1.5-0.8-2s-1.3-0.7-2.2-0.7c-0.9,0-1.6,0.2-2.1,0.7s-0.8,1.1-0.8,2c0,0.8,0.2,1.4,0.6,1.9C40.2,135.2,41,135.7,42.2,136.3z"/><path d="M60.6,128.4v2c-0.6-0.2-1.3-0.3-2.1-0.3c-1.9,0-3.3,0.6-4.3,1.8s-1.5,3.1-1.6,5.7h0.2c0.8-1.4,2.1-2.2,3.9-2.2c1.7,0,2.9,0.5,3.9,1.5s1.4,2.4,1.4,4.1c0,1.9-0.5,3.5-1.5,4.6c-1,1.1-2.4,1.7-4.1,1.7c-1.8,0-3.3-0.7-4.4-2.1c-1.1-1.4-1.6-3.4-1.6-6c0-7.3,2.7-10.9,8.1-10.9C59.3,128.2,60,128.3,60.6,128.4z M59.7,141.1c0-1.2-0.3-2.2-0.9-2.8s-1.4-1-2.5-1s-2,0.3-2.7,1s-1.1,1.5-1.1,2.3c0,1.3,0.3,2.4,1,3.3c0.7,0.9,1.6,1.4,2.7,1.4c1.1,0,1.9-0.4,2.5-1.1S59.7,142.4,59.7,141.1z"/><path d="M82.8,145.3h-0.2c0.1,1.1,0.2,1.8,0.2,2.1v6h-2.3v-20.2h1.9l0.3,1.9h0.1c0.9-1.4,2.3-2.1,4.1-2.1c1.7,0,3,0.6,4,1.9c1,1.3,1.5,3,1.5,5.3c0,2.3-0.5,4.1-1.5,5.3c-1,1.3-2.3,1.9-4,1.9C85.1,147.3,83.8,146.6,82.8,145.3z M82.8,139.5v0.5c0,1.9,0.3,3.3,0.9,4.1c0.6,0.8,1.5,1.2,2.8,1.2c2.3,0,3.5-1.8,3.5-5.4c0-3.5-1.2-5.3-3.5-5.3c-1.3,0-2.2,0.4-2.8,1.1S82.8,137.8,82.8,139.5z"/><path d="M106.2,133.4l-0.6,2.1c-1-0.4-2-0.6-2.8-0.6c-1.4,0-2.4,0.4-3.2,1.2c-0.7,0.8-1.1,1.9-1.1,3.4v7.5h-2.3v-13.9H98l0.3,2.6h0.1c0.6-1,1.3-1.7,2.1-2.2s1.6-0.6,2.7-0.6C104.1,132.8,105.1,133,106.2,133.4z"/><path d="M114.3,147.3c-1.8,0-3.3-0.7-4.5-2c-1.2-1.3-1.8-3.1-1.8-5.3c0-2.2,0.6-4,1.7-5.3s2.7-1.9,4.6-1.9c1.8,0,3.4,0.7,4.5,2s1.8,3.1,1.8,5.2c0,2.2-0.6,4-1.7,5.3S116.2,147.3,114.3,147.3z M114.4,145.4c2.6,0,3.9-1.8,3.9-5.3c0-3.5-1.3-5.3-4-5.3c-2.6,0-3.9,1.8-3.9,5.3C110.4,143.6,111.7,145.4,114.4,145.4z"/><path d="M135.3,133.1v1.4l-2.5,0.3c0.6,0.7,0.8,1.6,0.8,2.7c0,1.4-0.5,2.4-1.4,3.3c-0.9,0.8-2.2,1.2-3.8,1.2c-0.5,0-0.8,0-1.1-0.1c-0.8,0.5-1.3,1-1.3,1.7c0,0.7,0.7,1.1,2,1.1h2.4c1.5,0,2.6,0.3,3.4,1s1.2,1.6,1.2,2.8c0,3.2-2.4,4.8-7.2,4.8c-1.8,0-3.2-0.3-4.2-1c-1-0.7-1.4-1.6-1.4-2.9c0-1.8,1-2.9,3-3.4c-0.8-0.4-1.2-1-1.2-2c0-0.9,0.6-1.8,1.7-2.4c-0.8-0.3-1.3-0.8-1.8-1.6c-0.4-0.7-0.6-1.5-0.6-2.4c0-1.5,0.5-2.7,1.4-3.6c0.9-0.8,2.2-1.3,3.9-1.3c0.7,0,1.4,0.1,1.9,0.3H135.3z M129.8,146.8h-2.4c-1.9,0-2.9,0.8-2.9,2.5c0,1.5,1.1,2.2,3.4,2.2c3.3,0,5-0.9,5-2.8c0-0.7-0.2-1.2-0.6-1.5C131.9,146.9,131,146.8,129.8,146.8z M128.5,140.5c1.9,0,2.8-1,2.8-2.9c0-2-1-3-2.9-3s-2.9,1-2.9,3.1C125.7,139.5,126.6,140.5,128.5,140.5z"/><path d="M148.5,133.4l-0.6,2.1c-1-0.4-2-0.6-2.8-0.6c-1.4,0-2.4,0.4-3.2,1.2c-0.7,0.8-1.1,1.9-1.1,3.4v7.5h-2.3v-13.9h1.9l0.3,2.6h0.1c0.6-1,1.3-1.7,2.1-2.2s1.6-0.6,2.7-0.6C146.5,132.8,147.5,133,148.5,133.4z"/><path d="M160.4,147l-0.5-1.9h-0.1c-0.7,0.8-1.3,1.4-2,1.7c-0.7,0.3-1.6,0.5-2.7,0.5c-1.4,0-2.5-0.4-3.2-1.1s-1.2-1.7-1.2-3.1c0-2.8,2.2-4.3,6.5-4.4l2.6-0.1v-0.9c0-2-1-3-3.1-3c-1.2,0-2.6,0.3-4.2,1l-0.8-1.7c1.7-0.8,3.3-1.2,4.9-1.2c1.9,0,3.3,0.4,4.2,1.1s1.3,1.9,1.3,3.5v9.5H160.4z M159.8,140.2l-2.1,0.1c-1.7,0.1-2.8,0.3-3.5,0.8c-0.7,0.5-1,1.1-1,2.1c0,1.5,0.8,2.3,2.5,2.3c1.2,0,2.2-0.3,3-1c0.7-0.7,1.1-1.7,1.1-2.9V140.2z"/><path d="M176.6,147v-9c0-1.2-0.1-2.1-0.3-2.6s-0.6-0.7-1.1-0.7c-0.7,0-1.3,0.4-1.6,1.1s-0.5,1.9-0.5,3.5v7.7h-2v-9c0-2.2-0.5-3.3-1.6-3.3c-0.7,0-1.2,0.3-1.5,1c-0.3,0.7-0.5,2-0.5,4v7.2h-2.1v-13.9h1.6l0.3,1.9h0.1c0.6-1.4,1.4-2.1,2.6-2.1c1.4,0,2.3,0.8,2.7,2.3h0.1c0.6-1.5,1.6-2.3,2.8-2.3c1.1,0,1.9,0.4,2.4,1.2c0.5,0.8,0.7,2.1,0.7,3.9v9.1H176.6z"/><polygon fill="#EEEEEE" points="222,298 222,262 262,262 262,182 298,182 298,222 338,222 338,282 382,282 382,242 418,242 418,298 "/><path fill="#BBBBBB" d="M296,184v36v4h4h36v56v4h4h40h4v-4v-36h32v52H224v-32h36h4v-4v-76H296 M300,180h-40v80h-40v40h200v-60h-40v40h-40v-60h-40V180L300,180z"/><path d="M290.2,277l-1.8-5.8h-6.2l-1.9,5.8h-2.4l6.1-18.6h2.5l6.2,18.6H290.2z M287.7,269.2l-1.7-5.4c-0.3-1-0.6-2-0.8-2.9c-0.2,0.8-0.4,1.6-0.6,2.3l-1.8,5.9H287.7z"/><path d="M296.8,269.4v7.7h-2.4v-18.6h4.5c4.4,0,6.6,1.8,6.6,5.3c0,2.4-1.2,4.1-3.7,5l5,8.3h-2.8l-4.4-7.7H296.8z M296.8,267.4h2.1c1.4,0,2.5-0.3,3.2-0.8s1-1.4,1-2.7c0-1.2-0.3-2.1-1-2.6c-0.7-0.5-1.8-0.8-3.3-0.8h-2V267.4z"/><path d="M313.7,277l-3.5-16.3h-0.1c0.2,2.3,0.2,4,0.2,5.2V277h-1.9v-18.6h3.1l3.1,15.1h0.1l3.2-15.1h3.2V277h-1.9v-11.3c0-0.9,0.1-2.5,0.2-5h-0.1l-3.6,16.2H313.7z"/><polygon fill="#7FCDE5" points="222,178 222,2 418,2 418,158 382,158 382,138 342,138 342,78 298,78 298,118 258,118 258,178 "/><path fill="#5AB1BF" d="M416,4v152h-32v-16v-4h-4h-36V80v-4h-4h-40h-4v4v36h-36h-4v4v56h-32V4H416 M420,0H220v180h40v-60h40V80h40v60h40v20h40V0L420,0z"/><path d="M246.7,39.9l-5-6.8h2.6l3.7,5.2l3.7-5.2h2.6l-5,6.8l5.2,7.1h-2.6l-3.9-5.5L244,47h-2.6L246.7,39.9z"/><path d="M264.1,37.2c2.6,1.4,3.9,3,3.9,5c0,1.5-0.5,2.8-1.6,3.7s-2.5,1.4-4.2,1.4c-1.8,0-3.3-0.4-4.3-1.3c-1-0.9-1.5-2.1-1.5-3.7c0-2.2,1.2-3.8,3.6-5c-2-1.2-3-2.8-3-4.7c0-1.4,0.5-2.4,1.5-3.2c1-0.8,2.2-1.2,3.7-1.2c1.6,0,2.8,0.4,3.8,1.2s1.4,1.9,1.4,3.3C267.4,34.6,266.3,36.1,264.1,37.2z M261.8,38.2c-2.2,1-3.2,2.4-3.2,4.1c0,2,1.2,3,3.5,3c1.2,0,2-0.3,2.7-0.8c0.6-0.6,0.9-1.3,0.9-2.3c0-0.8-0.3-1.4-0.8-2c-0.5-0.6-1.4-1.2-2.7-1.8L261.8,38.2z M262.2,36.3c2-0.9,2.9-2,2.9-3.5c0-0.9-0.3-1.5-0.8-2s-1.3-0.7-2.2-0.7c-0.9,0-1.6,0.2-2.1,0.7c-0.5,0.4-0.8,1.1-0.8,2c0,0.8,0.2,1.4,0.6,1.9C260.2,35.2,261,35.7,262.2,36.3z"/><path d="M280.6,28.4v2c-0.6-0.2-1.3-0.3-2.1-0.3c-1.9,0-3.3,0.6-4.3,1.8s-1.5,3.1-1.6,5.7h0.2c0.8-1.4,2.1-2.2,3.9-2.2c1.7,0,2.9,0.5,3.9,1.5c0.9,1,1.4,2.4,1.4,4.1c0,1.9-0.5,3.5-1.5,4.6c-1,1.1-2.4,1.7-4.1,1.7c-1.8,0-3.3-0.7-4.4-2.1c-1.1-1.4-1.6-3.4-1.6-6c0-7.3,2.7-10.9,8.1-10.9C279.3,28.2,280,28.3,280.6,28.4z M279.7,41.1c0-1.2-0.3-2.2-0.9-2.8c-0.6-0.7-1.4-1-2.5-1c-1.1,0-2,0.3-2.7,1c-0.7,0.7-1.1,1.5-1.1,2.3c0,1.3,0.3,2.4,1,3.3c0.7,0.9,1.6,1.4,2.7,1.4c1.1,0,1.9-0.4,2.5-1.1C279.4,43.5,279.7,42.4,279.7,41.1z"/><path d="M302.8,45.3h-0.2c0.1,1.1,0.2,1.8,0.2,2.1v6h-2.3V33.1h1.9l0.3,1.9h0.1c0.9-1.4,2.3-2.1,4.1-2.1c1.7,0,3,0.6,4,1.9c1,1.3,1.5,3,1.5,5.3c0,2.3-0.5,4.1-1.5,5.3c-1,1.3-2.3,1.9-4,1.9C305.1,47.3,303.8,46.6,302.8,45.3z M302.8,39.5V40c0,1.9,0.3,3.3,0.9,4.1c0.6,0.8,1.5,1.2,2.8,1.2c2.3,0,3.5-1.8,3.5-5.4c0-3.5-1.2-5.3-3.5-5.3c-1.3,0-2.2,0.4-2.8,1.1C303.1,36.6,302.8,37.8,302.8,39.5z"/><path d="M326.2,33.4l-0.6,2.1c-1-0.4-2-0.6-2.8-0.6c-1.4,0-2.4,0.4-3.2,1.2c-0.7,0.8-1.1,1.9-1.1,3.4V47h-2.3V33.1h1.9l0.3,2.6h0.1c0.6-1,1.3-1.7,2.1-2.2s1.6-0.6,2.7-0.6C324.1,32.8,325.1,33,326.2,33.4z"/><path d="M334.3,47.3c-1.8,0-3.3-0.7-4.5-2c-1.2-1.3-1.8-3.1-1.8-5.3c0-2.2,0.6-4,1.7-5.3c1.1-1.3,2.7-1.9,4.6-1.9c1.8,0,3.4,0.7,4.5,2c1.2,1.3,1.8,3.1,1.8,5.2c0,2.2-0.6,4-1.7,5.3C337.8,46.6,336.2,47.3,334.3,47.3z M334.4,45.4c2.6,0,3.9-1.8,3.9-5.3c0-3.5-1.3-5.3-4-5.3c-2.6,0-3.9,1.8-3.9,5.3C330.4,43.6,331.7,45.4,334.4,45.4z"/><path d="M355.3,33.1v1.4l-2.5,0.3c0.6,0.7,0.8,1.6,0.8,2.7c0,1.4-0.5,2.4-1.4,3.3c-0.9,0.8-2.2,1.2-3.8,1.2c-0.5,0-0.8,0-1.1-0.1c-0.8,0.5-1.3,1-1.3,1.7c0,0.7,0.7,1.1,2,1.1h2.4c1.5,0,2.6,0.3,3.4,1c0.8,0.7,1.2,1.6,1.2,2.8c0,3.2-2.4,4.8-7.2,4.8c-1.8,0-3.2-0.3-4.2-1c-1-0.7-1.4-1.6-1.4-2.9c0-1.8,1-2.9,3-3.4c-0.8-0.4-1.2-1-1.2-2c0-0.9,0.6-1.8,1.7-2.4c-0.8-0.3-1.3-0.8-1.8-1.6c-0.4-0.7-0.6-1.5-0.6-2.4c0-1.5,0.5-2.7,1.4-3.6c0.9-0.8,2.2-1.3,3.9-1.3c0.7,0,1.4,0.1,1.9,0.3H355.3z M349.8,46.8h-2.4c-1.9,0-2.9,0.8-2.9,2.5c0,1.5,1.1,2.2,3.4,2.2c3.3,0,5-0.9,5-2.8c0-0.7-0.2-1.2-0.6-1.5C351.9,46.9,351,46.8,349.8,46.8z M348.5,40.5c1.9,0,2.8-1,2.8-2.9c0-2-1-3-2.9-3s-2.9,1-2.9,3.1C345.7,39.5,346.6,40.5,348.5,40.5z"/><path d="M368.5,33.4l-0.6,2.1c-1-0.4-2-0.6-2.8-0.6c-1.4,0-2.4,0.4-3.2,1.2c-0.7,0.8-1.1,1.9-1.1,3.4V47h-2.3V33.1h1.9l0.3,2.6h0.1c0.6-1,1.3-1.7,2.1-2.2s1.6-0.6,2.7-0.6C366.5,32.8,367.5,33,368.5,33.4z"/><path d="M380.4,47l-0.5-1.9h-0.1c-0.7,0.8-1.3,1.4-2,1.7c-0.7,0.3-1.6,0.5-2.7,0.5c-1.4,0-2.5-0.4-3.2-1.1c-0.8-0.7-1.2-1.7-1.2-3.1c0-2.8,2.2-4.3,6.5-4.4l2.6-0.1v-0.9c0-2-1-3-3.1-3c-1.2,0-2.6,0.3-4.2,1l-0.8-1.7c1.7-0.8,3.3-1.2,4.9-1.2c1.9,0,3.3,0.4,4.2,1.1c0.9,0.7,1.3,1.9,1.3,3.5V47H380.4z M379.8,40.2l-2.1,0.1c-1.7,0.1-2.8,0.3-3.5,0.8c-0.7,0.5-1,1.1-1,2.1c0,1.5,0.8,2.3,2.5,2.3c1.2,0,2.2-0.3,3-1c0.7-0.7,1.1-1.7,1.1-2.9V40.2z"/><path d="M396.6,47v-9c0-1.2-0.1-2.1-0.3-2.6c-0.2-0.5-0.6-0.7-1.1-0.7c-0.7,0-1.3,0.4-1.6,1.1c-0.3,0.7-0.5,1.9-0.5,3.5V47h-2v-9c0-2.2-0.5-3.3-1.6-3.3c-0.7,0-1.2,0.3-1.5,1c-0.3,0.7-0.5,2-0.5,4V47h-2.1V33.1h1.6l0.3,1.9h0.1c0.6-1.4,1.4-2.1,2.6-2.1c1.4,0,2.3,0.8,2.7,2.3h0.1c0.6-1.5,1.6-2.3,2.8-2.3c1.1,0,1.9,0.4,2.4,1.2c0.5,0.8,0.7,2.1,0.7,3.9V47H396.6z"/></svg>