<svg xmlns="http://www.w3.org/2000/svg" xmlns:xlink="http://www.w3.org/1999/xlink" x="0px" y="0px" width="420px" height="260px" viewBox="0 60 420 260"><path fill="#D376AF" d="M342,278v-60h-40v-40h-44v80h-36V109.3c29.8,8.3,63.7,12.7,98,12.7c34.301,0,68.2-4.4,98-12.7V238h-40v40H342z"/><path fill="#BC5BA1" d="M416,111.9V236h-36h-4v4v36h-32v-56v-4h-4h-36v-36v-4h-4h-40h-4v4v76h-32V111.9c29.4,7.9,62.4,12.1,96,12.1C353.6,124,386.6,119.8,416,111.9 M420,106.6C390.6,115.1,356.4,120,320,120c-36.399,0-70.6-4.9-100-13.4V260h40v-80h40v40h40v60h40v-40h40V106.6L420,106.6z"/><path fill="#D376AF" d="M2,278V109.2c29.9,8.4,63.9,12.8,98.3,12.8c34.2,0,67.9-4.4,97.7-12.6V258h-36v-20h-40v-60H78v40H38v60H2z"/><path fill="#BC5BA1" d="M4,111.8c29.5,8,62.601,12.2,96.3,12.2c33.4,0,66.4-4.1,95.7-12v144h-32v-16v-4h-4h-36v-56v-4h-4H80h-4v4v36H40h-4v4v56H4V111.8 M0,106.5V280h40v-60h40v-40h40v60h40v20h40V106.7C170.6,115.1,136.6,120,100.3,120C63.8,120,29.5,115.1,0,106.5L0,106.5z"/><path fill="#7FE2CF" d="M320,117.9c-34.399,0-68.3-4.4-98-12.9V61.9h196V105C388.301,113.5,354.4,117.9,320,117.9z"/><path fill="#5CC6B2" d="M416,63.9v39.6c-29.199,8.1-62.3,12.4-96,12.4s-66.8-4.3-96-12.4V63.9H416 M420,59.9H220v46.6c29.4,8.5,63.601,13.4,100,13.4c36.4,0,70.601-4.9,100-13.4V59.9L420,59.9z"/><path fill="#7FE2CF" d="M102,117.8H88.9C58.5,117,28.4,112.6,2,105V61.8h196v43.4c-29.2,8.2-62.3,12.6-96,12.8V117.8z"/><path fill="#5CC6B2" d="M196,63.8v39.9c-28.1,7.7-59.7,12-92,12.3v-0.1h-4H88.9c-29.7-0.8-59-5.1-84.9-12.3V63.8H196 M200,59.8H0v46.7c26.4,7.7,56.601,12.4,88.9,13.3H100v0.2c0.101,0,0.2,0,0.3,0c36.301,0,70.301-4.8,99.7-13.3V59.8L200,59.8z"/><polygon fill="#EEEEEE" points="222,298 222,262 262,262 262,182 298,182 298,222 338,222 338,282 382,282 382,242 418,242 418,298 "/><path fill="#BBBBBB" d="M296,184v36v4h4h36v56v4h4h40h4v-4v-36h32v52H224v-32h36h4v-4v-76H296 M300,180h-40v80h-40v40h200v-60h-40v40h-40v-60h-40V180L300,180z"/><path d="M94.6,269.9l-5-6.801h2.6l3.7,5.201l3.7-5.201h2.6l-5,6.801l5.2,7.1H99.8l-3.899-5.5L92,277h-2.6L94.6,269.9z"/><path d="M112,267.2c2.601,1.399,3.9,3,3.9,5c0,1.5-0.5,2.8-1.601,3.7c-1.1,0.9-2.5,1.4-4.199,1.4c-1.801,0-3.301-0.4-4.301-1.301s-1.5-2.1-1.5-3.699c0-2.201,1.2-3.801,3.601-5c-2-1.201-3-2.801-3-4.701c0-1.399,0.5-2.399,1.5-3.199c1-0.801,2.2-1.201,3.7-1.201c1.6,0,2.8,0.4,3.8,1.201c1,0.8,1.399,1.899,1.399,3.299C115.3,264.6,114.2,266.1,112,267.2z M109.8,268.2c-2.199,1-3.199,2.399-3.199,4.101c0,2,1.199,3,3.5,3c1.199,0,2-0.301,2.699-0.801c0.601-0.6,0.9-1.3,0.9-2.3c0-0.8-0.3-1.399-0.8-2s-1.4-1.2-2.7-1.8L109.8,268.2z M110.1,266.3c2-0.899,2.899-2,2.899-3.5c0-0.899-0.3-1.5-0.8-2s-1.3-0.7-2.2-0.7c-0.899,0-1.6,0.2-2.1,0.7c-0.5,0.399-0.8,1.101-0.8,2c0,0.8,0.199,1.399,0.6,1.899C108.2,265.2,109,265.7,110.1,266.3z"/><path d="M128.5,258.4v2c-0.6-0.201-1.3-0.301-2.1-0.301c-1.9,0-3.3,0.601-4.3,1.801c-1,1.199-1.5,3.1-1.601,5.699h0.2c0.8-1.399,2.1-2.199,3.9-2.199c1.699,0,2.899,0.5,3.899,1.5c0.9,1,1.4,2.399,1.4,4.1c0,1.9-0.5,3.5-1.5,4.6c-1,1.101-2.4,1.701-4.101,1.701c-1.8,0-3.3-0.701-4.399-2.101c-1.101-1.399-1.601-3.399-1.601-6c0-7.3,2.7-10.899,8.101-10.899C127.2,258.2,127.9,258.3,128.5,258.4z M127.7,271.1c0-1.199-0.3-2.199-0.9-2.799c-0.6-0.701-1.399-1-2.5-1c-1.1,0-2,0.299-2.699,1c-0.7,0.699-1.101,1.5-1.101,2.299c0,1.301,0.3,2.4,1,3.301c0.7,0.899,1.601,1.399,2.7,1.399s1.9-0.399,2.5-1.101C127.4,273.5,127.7,272.4,127.7,271.1z"/><path d="M59.9,96.2v-2.1c1.6,0.7,3.2,1.1,4.7,1.1c2.3,0,3.5-0.7,3.5-2.1c0-0.5-0.2-0.9-0.601-1.3C67.1,91.4,66.1,91,64.6,90.5c-2-0.7-3.2-1.4-3.7-2s-0.8-1.3-0.8-2.2c0-1.2,0.5-2.1,1.399-2.7c0.9-0.7,2.2-1,3.9-1s3.2,0.3,4.7,0.9L69.3,85.4c-1.5-0.6-2.899-0.9-4-0.9c-2,0-3,0.6-3,1.7c0,0.5,0.2,0.9,0.601,1.2c0.399,0.3,1.399,0.7,3,1.3c1.8,0.7,3,1.3,3.6,1.9c0.601,0.6,0.9,1.4,0.9,2.3c0,1.3-0.5,2.3-1.5,3c-1,0.7-2.4,1.1-4.2,1.1C62.6,97.1,61,96.8,59.9,96.2z"/><path d="M84.7,83.4l-0.8,2c-1.3-0.5-2.4-0.7-3.4-0.7c-3.1,0-4.7,1.7-4.7,5.2c0,3.4,1.5,5.2,4.601,5.2c1.3,0,2.7-0.3,4.1-0.8v2c-1.1,0.5-2.5,0.8-4.2,0.8c-2.199,0-3.899-0.6-5.1-1.8c-1.2-1.2-1.8-3-1.8-5.3c0-2.4,0.6-4.2,1.8-5.4c1.2-1.2,3-1.9,5.2-1.9C81.9,82.7,83.4,82.9,84.7,83.4z"/><path d="M98.4,83.2L97.8,85.3c-1-0.4-2-0.6-2.8-0.6c-1.399,0-2.399,0.4-3.2,1.2c-0.699,0.8-1.1,1.9-1.1,3.4v7.5h-2.3V82.9H90.3l0.301,2.6h0.1c0.6-1,1.3-1.7,2.1-2.2c0.801-0.5,1.601-0.6,2.7-0.6C96.3,82.7,97.3,82.9,98.4,83.2z"/><path d="M105.4,84.8l-3.4-0.3v-1.6h5.7V95l4.5,0.3v1.6H101v-1.6l4.4-0.3V84.8z M106.6,77.2c0.899,0,1.3,0.5,1.3,1.4c0,0.5-0.101,0.9-0.4,1.1c-0.3,0.2-0.6,0.4-0.899,0.4c-0.9,0-1.4-0.5-1.4-1.5C105.2,77.7,105.6,77.2,106.6,77.2z"/><path d="M117.3,95.1H117.1c0.1,1.1,0.199,1.8,0.199,2.1v6H115V82.9h1.9l0.3,1.9h0.1c0.9-1.4,2.301-2.1,4.101-2.1c1.7,0,3,0.6,4,1.9c1,1.3,1.5,3,1.5,5.3c0,2.3-0.5,4.1-1.5,5.3c-1,1.3-2.3,1.9-4,1.9C119.6,97.1,118.2,96.4,117.3,95.1z M117.3,89.3v0.5c0,1.9,0.301,3.3,0.9,4.1c0.6,0.8,1.5,1.2,2.8,1.2c2.3,0,3.5-1.8,3.5-5.4c0-3.5-1.2-5.3-3.5-5.3c-1.3,0-2.2,0.4-2.8,1.1S117.3,87.7,117.3,89.3z"/><path d="M140,95v1.8c-1.1,0.3-2.2,0.4-3.2,0.4c-3.1,0-4.6-1.5-4.6-4.4v-8.1h-3.4v-1.2l3.4-0.6l1-3.6h1.3V83h5.601v1.7H134.5v8.1c0,1.7,0.8,2.5,2.4,2.5C137.8,95.2,138.8,95.1,140,95z"/><path d="M290.2,277l-1.8-5.8h-6.2l-1.9,5.8H277.9l6.1-18.6h2.5l6.2,18.6H290.2z M287.7,269.2l-1.7-5.399c-0.3-1-0.6-2-0.8-2.9c-0.2,0.8-0.4,1.6-0.6,2.3L282.8,269.1h4.9V269.2z"/><path d="M296.8,269.4v7.699H294.4v-18.6h4.5c4.4,0,6.6,1.8,6.6,5.3c0,2.399-1.199,4.101-3.699,5l5,8.3H304L299.6,269.4H296.8L296.8,269.4z M296.8,267.4h2.101c1.4,0,2.5-0.301,3.2-0.801s1-1.399,1-2.699c0-1.201-0.3-2.101-1-2.601s-1.8-0.8-3.3-0.8H296.8V267.4L296.8,267.4z"/><path d="M313.7,277l-3.5-16.3h-0.1c0.2,2.3,0.2,4,0.2,5.2V277h-1.9v-18.6h3.101l3.1,15.1h0.1l3.2-15.1h3.2V277h-1.9v-11.3c0-0.899,0.101-2.5,0.2-5h-0.1l-3.601,16.2h-2V277z"/><polygon fill="#EEEEEE" points="2,298 2,282 42,282 42,222 82,222 82,182 118,182 118,242 158,242 158,262 198,262 198,298 "/><path fill="#BBBBBB" d="M116,184v56v4h4h36v16v4h4h36v32H4v-12h36h4v-4v-56h36h4v-4v-36H116 M120,180H80v40H40v60H0v20h200v-40h-40v-20h-40V180L120,180z"/><path d="M28.6,147.3l-3.4-0.3v-1.6H31v12.1l4.5,0.3v1.601H24.3V157.8l4.4-0.3v-10.2H28.6z M29.8,139.7c0.9,0,1.301,0.5,1.301,1.4c0,0.5-0.101,0.9-0.4,1.1c-0.3,0.2-0.6,0.4-0.9,0.4c-0.899,0-1.399-0.5-1.399-1.5C28.5,140.2,28.9,139.7,29.8,139.7z"/><path d="M47.5,159.4v-9c0-2.2-1-3.3-3-3.3c-2.6,0-3.899,1.7-3.899,5.1v7.2H38.3v-13.9h1.9l0.3,1.9H40.6c0.899-1.4,2.3-2.1,4.3-2.1c3.3,0,4.899,1.7,4.899,5.1v9.1h-2.3V159.4z"/><path d="M63.4,157.5v1.8c-1.101,0.3-2.2,0.4-3.2,0.4c-3.1,0-4.6-1.5-4.6-4.4v-8.1h-3.4V146l3.4-0.6l1-3.6H58v3.7H63.6v1.7H58v8.1c0,1.7,0.8,2.5,2.4,2.5C61.2,157.7,62.2,157.6,63.4,157.5z"/><path d="M78,152.8h-9.8c0.1,3.2,1.5,4.8,4.4,4.8c1.699,0,3.199-0.3,4.699-1v2c-1.399,0.601-2.899,1-4.6,1c-2.1,0-3.7-0.6-5-1.899c-1.2-1.3-1.9-3-1.9-5.2c0-2.3,0.601-4,1.7-5.4c1.101-1.3,2.7-2,4.601-2c1.8,0,3.199,0.6,4.3,1.7c1.1,1.1,1.6,2.6,1.6,4.5V152.8z M68.2,151h7.3c0-2.6-1.2-3.9-3.5-3.9S68.5,148.4,68.2,151z"/><path d="M91.7,145.7l-0.6,2.1c-1-0.4-2-0.6-2.801-0.6c-1.399,0-2.399,0.4-3.199,1.2c-0.7,0.8-1.101,1.9-1.101,3.4v7.5h-2.3v-13.9h1.9l0.3,2.6H84c0.601-1,1.3-1.7,2.101-2.2c0.8-0.5,1.6-0.6,2.699-0.6C89.7,145.2,90.7,145.4,91.7,145.7z"/><path d="M97,157.6h-0.2C96.9,158.7,97,159.4,97,159.7v6h-2.3v-20.2h1.9l0.3,1.9H97c0.9-1.4,2.3-2.1,4.101-2.1c1.699,0,3,0.6,4,1.9c1,1.3,1.5,3,1.5,5.3s-0.5,4.1-1.5,5.3c-1,1.3-2.301,1.9-4,1.9C99.3,159.6,97.9,158.9,97,157.6z M97,151.8v0.5c0,1.9,0.3,3.3,0.9,4.101c0.6,0.8,1.5,1.199,2.8,1.199c2.3,0,3.5-1.8,3.5-5.399c0-3.5-1.2-5.3-3.5-5.3c-1.3,0-2.2,0.4-2.8,1.1C97.3,148.7,97,150.2,97,151.8z"/><path d="M120.3,145.7l-0.6,2.1c-1-0.4-2-0.6-2.8-0.6c-1.4,0-2.4,0.4-3.2,1.2c-0.7,0.8-1.1,1.9-1.1,3.4v7.5H110.3v-13.9h1.9l0.3,2.6h0.101c0.6-1,1.3-1.7,2.1-2.2s1.6-0.6,2.7-0.6C118.3,145.2,119.3,145.4,120.3,145.7z"/><path d="M134.5,152.8h-9.8c0.1,3.2,1.5,4.8,4.4,4.8c1.699,0,3.199-0.3,4.699-1v2c-1.399,0.601-2.899,1-4.6,1c-2.1,0-3.7-0.6-5-1.899c-1.2-1.3-1.9-3-1.9-5.2c0-2.3,0.601-4,1.7-5.4c1.101-1.3,2.7-2,4.601-2c1.8,0,3.199,0.6,4.3,1.7c1.1,1.1,1.6,2.6,1.6,4.5V152.8L134.5,152.8z M124.7,151h7.3c0-2.6-1.2-3.9-3.5-3.9S125,148.4,124.7,151z"/><path d="M147.8,157.5v1.8c-1.1,0.3-2.199,0.4-3.199,0.4c-3.101,0-4.601-1.5-4.601-4.4v-8.1H136.6V146l3.399-0.6l1-3.6h1.3v3.7h5.601v1.7H142.3v8.1c0,1.7,0.801,2.5,2.4,2.5C145.5,157.7,146.5,157.6,147.8,157.5z"/><path d="M162.3,152.8h-9.8c0.101,3.2,1.5,4.8,4.4,4.8c1.7,0,3.2-0.3,4.7-1v2c-1.4,0.601-2.9,1-4.601,1c-2.1,0-3.7-0.6-5-1.899c-1.2-1.3-1.899-3-1.899-5.2c0-2.3,0.6-4,1.699-5.4c1.101-1.3,2.7-2,4.601-2c1.8,0,3.2,0.6,4.3,1.7c1.1,1.1,1.6,2.6,1.6,4.5V152.8z M152.6,151h7.3c0-2.6-1.2-3.9-3.5-3.9S152.8,148.4,152.6,151z"/><path d="M176.1,145.7l-0.601,2.1c-1-0.4-2-0.6-2.8-0.6c-1.4,0-2.4,0.4-3.2,1.2c-0.7,0.8-1.1,1.9-1.1,3.4v7.5H166v-13.9h1.9l0.3,2.6h0.1c0.601-1,1.301-1.7,2.101-2.2s1.6-0.6,2.7-0.6C174,145.2,175,145.4,176.1,145.7z"/><path d="M279.9,96.3v-2.1c1.6,0.7,3.2,1.1,4.7,1.1c2.3,0,3.5-0.7,3.5-2.1c0-0.5-0.2-0.9-0.601-1.3c-0.399-0.4-1.399-0.8-2.899-1.3c-2-0.7-3.2-1.4-3.7-2s-0.8-1.3-0.8-2.2c0-1.2,0.5-2.1,1.399-2.7c0.9-0.7,2.2-1,3.9-1s3.2,0.3,4.7,0.9l-0.801,1.9c-1.5-0.6-2.899-0.9-4-0.9c-2,0-3,0.6-3,1.7c0,0.5,0.2,0.9,0.601,1.2c0.399,0.3,1.399,0.7,3,1.3c1.8,0.7,3,1.3,3.6,1.9c0.601,0.6,0.9,1.4,0.9,2.3c0,1.3-0.5,2.3-1.5,3s-2.4,1.1-4.2,1.1C282.6,97.2,281,96.9,279.9,96.3z"/><path d="M304.7,83.5l-0.8,2c-1.3-0.5-2.399-0.7-3.399-0.7c-3.101,0-4.701,1.7-4.701,5.2c0,3.4,1.5,5.2,4.601,5.2c1.3,0,2.7-0.3,4.101-0.8v2c-1.101,0.5-2.5,0.8-4.2,0.8c-2.2,0-3.9-0.6-5.101-1.8c-1.2-1.2-1.8-3-1.8-5.3c0-2.4,0.6-4.2,1.8-5.4c1.2-1.2,3-1.9,5.2-1.9C301.9,82.8,303.4,83,304.7,83.5z"/><path d="M318.4,83.3l-0.6,2.1c-1-0.4-2-0.6-2.801-0.6c-1.399,0-2.399,0.4-3.199,1.2c-0.7,0.8-1.101,1.9-1.101,3.4v7.5h-2.3V83h1.9l0.3,2.6h0.1c0.601-1,1.3-1.7,2.101-2.2c0.8-0.5,1.6-0.6,2.699-0.6C316.301,82.8,317.301,82.9,318.4,83.3z"/><path d="M325.4,84.8l-3.4-0.3V83h5.7v12.1l4.5,0.3V97H321v-1.6l4.4-0.3V84.8z M326.6,77.3c0.899,0,1.3,0.5,1.3,1.4c0,0.5-0.1,0.9-0.4,1.1c-0.3,0.2-0.6,0.4-0.899,0.4c-0.9,0-1.4-0.5-1.4-1.5C325.2,77.8,325.6,77.3,326.6,77.3z"/><path d="M337.301,95.2h-0.2c0.1,1.1,0.2,1.8,0.2,2.1v6H335V83h1.9l0.3,1.9h0.101c0.899-1.4,2.3-2.1,4.1-2.1c1.7,0,3,0.6,4,1.9c1,1.3,1.5,3,1.5,5.3s-0.5,4.1-1.5,5.3c-1,1.3-2.3,1.9-4,1.9C339.6,97.2,338.2,96.5,337.301,95.2z M337.301,89.4V90c0,1.9,0.3,3.3,0.899,4.1c0.601,0.8,1.5,1.2,2.8,1.2c2.301,0,3.5-1.8,3.5-5.4c0-3.5-1.199-5.3-3.5-5.3c-1.3,0-2.199,0.4-2.8,1.1C337.6,86.5,337.301,87.7,337.301,89.4z"/><path d="M360,95v1.8c-1.1,0.3-2.199,0.4-3.199,0.4c-3.101,0-4.601-1.5-4.601-4.4v-8.1h-3.399v-1.2l3.399-0.6l1-3.6h1.3V83h5.601v1.7H354.5v8.1c0,1.7,0.801,2.5,2.4,2.5C357.801,95.3,358.801,95.2,360,95z"/><path d="M248.6,147.3l-3.4-0.3v-1.6h5.7v12.1l4.5,0.3v1.601H244.3V157.8l4.4-0.3v-10.2H248.6z M249.8,139.7c0.9,0,1.301,0.5,1.301,1.4c0,0.5-0.101,0.9-0.4,1.1c-0.3,0.2-0.6,0.4-0.9,0.4c-0.899,0-1.399-0.5-1.399-1.5C248.5,140.2,248.9,139.7,249.8,139.7z"/><path d="M267.5,159.4v-9c0-2.2-1-3.3-3-3.3c-2.6,0-3.899,1.7-3.899,5.1v7.2H258.3v-13.9h1.9l0.3,1.9h0.101c0.899-1.4,2.3-2.1,4.3-2.1c3.3,0,4.899,1.7,4.899,5.1v9.1h-2.3V159.4z"/><path d="M283.4,157.5v1.8c-1.101,0.3-2.2,0.4-3.2,0.4c-3.1,0-4.6-1.5-4.6-4.4v-8.1h-3.4V146l3.4-0.6l1-3.6h1.3v3.7h5.6v1.7H278v8.1c0,1.7,0.8,2.5,2.4,2.5C281.2,157.7,282.2,157.6,283.4,157.5z"/><path d="M298,152.8h-9.8c0.1,3.2,1.5,4.8,4.4,4.8c1.699,0,3.199-0.3,4.699-1v2c-1.399,0.601-2.899,1-4.6,1c-2.1,0-3.7-0.6-5-1.899c-1.2-1.3-1.9-3-1.9-5.2c0-2.3,0.601-4,1.7-5.4c1.101-1.3,2.7-2,4.601-2c1.8,0,3.2,0.6,4.3,1.7c1.101,1.1,1.601,2.6,1.601,4.5L298,152.8L298,152.8z M288.2,151h7.3c0-2.6-1.2-3.9-3.5-3.9S288.5,148.4,288.2,151z"/><path d="M311.7,145.7l-0.6,2.1c-1-0.4-2-0.6-2.8-0.6c-1.4,0-2.4,0.4-3.2,1.2c-0.7,0.8-1.101,1.9-1.101,3.4v7.5h-2.3v-13.9h1.9l0.3,2.6h0.1c0.601-1,1.301-1.7,2.101-2.2s1.6-0.6,2.7-0.6C309.7,145.2,310.7,145.4,311.7,145.7z"/><path d="M317,157.6h-0.199C316.9,158.7,317,159.4,317,159.7v6h-2.3v-20.2h1.9l0.3,1.9h0.1c0.9-1.4,2.301-2.1,4.101-2.1c1.7,0,3,0.6,4,1.9c1,1.3,1.5,3,1.5,5.3s-0.5,4.1-1.5,5.3c-1,1.3-2.3,1.9-4,1.9C319.301,159.6,317.9,158.9,317,157.6z M317,151.8v0.5c0,1.9,0.301,3.3,0.9,4.101c0.6,0.8,1.5,1.199,2.8,1.199c2.3,0,3.5-1.8,3.5-5.399c0-3.5-1.2-5.3-3.5-5.3c-1.3,0-2.2,0.4-2.8,1.1C317.301,149,317,150.2,317,151.8z"/><path d="M340.301,145.7l-0.601,2.1c-1-0.4-2-0.6-2.8-0.6c-1.4,0-2.4,0.4-3.2,1.2c-0.7,0.8-1.1,1.9-1.1,3.4v7.5h-2.3v-13.9h1.899l0.3,2.6h0.101c0.6-1,1.3-1.7,2.1-2.2s1.601-0.6,2.7-0.6C338.301,145.2,339.301,145.4,340.301,145.7z"/><path d="M354.5,152.8h-9.8c0.101,3.2,1.5,4.8,4.4,4.8c1.7,0,3.2-0.3,4.7-1v2c-1.4,0.601-2.9,1-4.601,1c-2.1,0-3.7-0.6-5-1.899c-1.2-1.3-1.899-3-1.899-5.2c0-2.3,0.6-4,1.7-5.4c1.1-1.3,2.699-2,4.6-2c1.8,0,3.2,0.6,4.3,1.7c1.101,1.1,1.601,2.6,1.601,4.5L354.5,152.8L354.5,152.8z M344.7,151h7.3c0-2.6-1.199-3.9-3.5-3.9C346.2,147.1,345,148.4,344.7,151z"/><path d="M367.801,157.5v1.8c-1.101,0.3-2.2,0.4-3.2,0.4c-3.101,0-4.601-1.5-4.601-4.4v-8.1H356.6V146l3.399-0.6l1-3.6h1.301v3.7h5.6v1.7h-5.6v8.1c0,1.7,0.8,2.5,2.399,2.5C365.5,157.7,366.5,157.6,367.801,157.5z"/><path d="M382.301,152.8H372.5c0.101,3.2,1.5,4.8,4.4,4.8c1.7,0,3.2-0.3,4.7-1v2c-1.4,0.601-2.9,1-4.601,1c-2.1,0-3.699-0.6-5-1.899c-1.199-1.3-1.899-3-1.899-5.2c0-2.3,0.6-4,1.7-5.4c1.1-1.3,2.7-2,4.6-2c1.8,0,3.2,0.6,4.3,1.7c1.101,1.1,1.601,2.6,1.601,4.5V152.8L382.301,152.8z M372.6,151h7.3c0-2.6-1.2-3.9-3.5-3.9S372.801,148.4,372.6,151z"/><path d="M396.1,145.7l-0.601,2.1c-1-0.4-2-0.6-2.8-0.6c-1.399,0-2.399,0.4-3.2,1.2c-0.699,0.8-1.1,1.9-1.1,3.4v7.5H386v-13.9h1.9l0.3,2.6h0.101c0.6-1,1.3-1.7,2.1-2.2s1.6-0.6,2.7-0.6C394,145.2,395,145.4,396.1,145.7z"/><path d="M84.9,269.9l-5-6.801h2.6l3.7,5.201l3.7-5.201h2.6l-5,6.801l5.2,7.1h-2.6l-3.9-5.5l-3.9,5.5h-2.6L84.9,269.9z"/><path d="M102.3,267.2c2.601,1.399,3.9,3,3.9,5c0,1.5-0.5,2.8-1.6,3.7c-1.101,0.9-2.5,1.4-4.2,1.4c-1.8,0-3.3-0.4-4.3-1.301s-1.5-2.1-1.5-3.699c0-2.201,1.199-3.801,3.6-5c-2-1.201-3-2.801-3-4.701c0-1.399,0.5-2.399,1.5-3.199c1-0.801,2.2-1.201,3.7-1.201c1.6,0,2.8,0.4,3.8,1.201c1,0.8,1.4,1.899,1.4,3.299C105.6,264.6,104.5,266.1,102.3,267.2z M100,268.2c-2.2,1-3.2,2.399-3.2,4.101c0,2,1.2,3,3.5,3c1.2,0,2-0.301,2.7-0.801c0.601-0.6,0.9-1.3,0.9-2.3c0-0.8-0.3-1.399-0.8-2s-1.4-1.2-2.7-1.8L100,268.2z M100.4,266.3c2-0.899,2.899-2,2.899-3.5c0-0.899-0.3-1.5-0.8-2s-1.3-0.7-2.2-0.7c-0.899,0-1.6,0.2-2.1,0.7c-0.5,0.399-0.8,1.101-0.8,2c0,0.8,0.2,1.399,0.6,1.899C98.4,265.2,99.2,265.7,100.4,266.3z"/><path d="M118.8,258.4v2c-0.6-0.201-1.3-0.301-2.1-0.301c-1.9,0-3.3,0.601-4.3,1.801c-1,1.199-1.5,3.1-1.601,5.699h0.2c0.8-1.399,2.101-2.199,3.9-2.199c1.7,0,2.899,0.5,3.899,1.5c0.9,1,1.4,2.399,1.4,4.1c0,1.9-0.5,3.5-1.5,4.6c-1,1.101-2.4,1.701-4.1,1.701c-1.801,0-3.301-0.701-4.4-2.101s-1.6-3.399-1.6-6c0-7.3,2.699-10.899,8.1-10.899C117.5,258.2,118.2,258.3,118.8,258.4z M117.9,271.1c0-1.199-0.3-2.199-0.9-2.799c-0.6-0.701-1.399-1-2.5-1c-1.1,0-2,0.299-2.7,1c-0.699,0.699-1.1,1.5-1.1,2.299c0,1.301,0.3,2.4,1,3.301c0.7,0.899,1.6,1.399,2.7,1.399c1.1,0,1.899-0.399,2.5-1.101C117.6,273.5,117.9,272.4,117.9,271.1z"/></svg>