<svg xmlns="http://www.w3.org/2000/svg" version="1.1" x="0" y="0" width="800" height="939.4" viewBox="0 0 800 939.4" enable-background="new 0 0 800 939.375" xml:space="preserve"><path fill="#000" d="M223.2 355.5l-18.5 69H18.9l18.5-69H223.2M227.1 352.5h-192L15 427.5h192L227.1 352.5 227.1 352.5z"/><path fill="#000" d="M198 130.5v69h-154v-69H198M201 127.5h-160v75h160V127.5L201 127.5z"/><path fill="#000" d="M163 18c19.3 0 35 15.5 35 34.5s-15.7 34.5-35 34.5h-84c-19.3 0-35-15.5-35-34.5s15.7-34.5 35-34.5H163M163 15h-84c-20.9 0-38 16.9-38 37.5s17.1 37.5 38 37.5h84c20.9 0 38-16.9 38-37.5S183.9 15 163 15L163 15z"/><path d="M90.6 58.2v-3.3c0.6 0.5 1.2 0.9 1.9 1.1 0.7 0.3 1.4 0.4 2.1 0.4 0.4 0 0.8 0 1.1-0.1 0.3-0.1 0.6-0.2 0.8-0.3 0.2-0.1 0.4-0.3 0.5-0.5s0.2-0.4 0.2-0.6c0-0.3-0.1-0.5-0.2-0.8s-0.4-0.4-0.7-0.6 -0.6-0.4-1-0.6 -0.8-0.4-1.3-0.5c-1.1-0.5-2-1.1-2.6-1.8 -0.6-0.7-0.8-1.5-0.8-2.5 0-0.8 0.2-1.4 0.5-2s0.7-1 1.3-1.4c0.5-0.4 1.1-0.6 1.8-0.8 0.7-0.2 1.4-0.3 2.2-0.3 0.8 0 1.4 0 2 0.1 0.6 0.1 1.1 0.2 1.6 0.4v3.1c-0.2-0.2-0.5-0.3-0.8-0.5s-0.6-0.2-0.9-0.3c-0.3-0.1-0.6-0.1-0.9-0.2 -0.3 0-0.6-0.1-0.9-0.1 -0.4 0-0.7 0-1 0.1 -0.3 0.1-0.6 0.2-0.8 0.3s-0.4 0.3-0.5 0.5 -0.2 0.4-0.2 0.6c0 0.2 0.1 0.5 0.2 0.7 0.1 0.2 0.3 0.4 0.6 0.6 0.2 0.2 0.5 0.3 0.9 0.5s0.7 0.3 1.2 0.5c0.6 0.2 1.1 0.5 1.6 0.8 0.5 0.3 0.9 0.6 1.2 0.9s0.6 0.7 0.8 1.2c0.2 0.4 0.3 1 0.3 1.6 0 0.8-0.2 1.5-0.5 2.1 -0.3 0.6-0.7 1-1.3 1.4 -0.5 0.3-1.2 0.6-1.9 0.7 -0.7 0.2-1.5 0.2-2.2 0.2 -0.8 0-1.6-0.1-2.3-0.2C91.7 58.7 91.1 58.5 90.6 58.2z"/><path d="M113.3 46.8h-4.2v12h-3.3V46.8h-4.2v-2.7h11.7V46.8z"/><path d="M126.8 58.8h-3.6l-1-3.3H116.9l-1 3.3h-3.6l5.4-14.7h3.9L126.8 58.8zM121.4 53l-1.6-4.9c-0.1-0.4-0.2-0.8-0.2-1.3h-0.1c0 0.4-0.1 0.9-0.3 1.3l-1.6 5H121.4z"/><path d="M141 58.8h-3.8l-2.3-3.8c-0.2-0.3-0.3-0.5-0.5-0.8s-0.3-0.4-0.5-0.6 -0.3-0.3-0.5-0.4c-0.2-0.1-0.4-0.1-0.6-0.1h-0.9v5.6h-3.3V44.1h5.3c3.6 0 5.4 1.3 5.4 4 0 0.5-0.1 1-0.2 1.4 -0.2 0.4-0.4 0.8-0.7 1.2s-0.6 0.6-1 0.9 -0.9 0.5-1.4 0.6v0c0.2 0.1 0.4 0.2 0.6 0.3 0.2 0.2 0.4 0.3 0.6 0.5s0.4 0.4 0.5 0.7c0.2 0.2 0.3 0.5 0.5 0.7L141 58.8zM131.9 46.6v4.1h1.4c0.7 0 1.3-0.2 1.7-0.6 0.4-0.4 0.7-0.9 0.7-1.5 0-1.3-0.8-1.9-2.3-1.9H131.9z"/><path d="M152.2 46.8h-4.2v12h-3.3V46.8h-4.2v-2.7h11.7V46.8z"/><path fill="#000" d="M163 852.4c19.3 0 35 15.5 35 34.5s-15.7 34.5-35 34.5h-84c-19.3 0-35-15.5-35-34.5s15.7-34.5 35-34.5H163M163 849.4h-84c-20.9 0-38 16.9-38 37.5s17.1 37.5 38 37.5h84c20.9 0 38-16.9 38-37.5S183.9 849.4 163 849.4L163 849.4z"/><path d="M96.9 881.2h-5.2v3.6h4.8v2.7h-4.8v5.7h-3.3v-14.7h8.5V881.2z"/><path d="M103.9 878.5v2.6h-1.2v9.6h1.2v2.6h-5.8v-2.6h1.2v-9.6h-1.2v-2.6H103.9z"/><path d="M119.2 893.2h-3.3l-6.1-9.2c-0.4-0.5-0.6-0.9-0.7-1.2h0c0.1 0.5 0.1 1.3 0.1 2.4v8.1h-3.1v-14.7h3.6l5.8 9c0.3 0.4 0.5 0.8 0.7 1.2h0c-0.1-0.3-0.1-1-0.1-2v-8.1h3.1V893.2z"/><path d="M127.1 878.5v2.6h-1.2v9.6h1.2v2.6h-5.8v-2.6h1.2v-9.6h-1.2v-2.6H127.1z"/><path d="M128.5 892.6v-3.3c0.6 0.5 1.2 0.9 1.9 1.1 0.7 0.3 1.4 0.4 2.1 0.4 0.4 0 0.8 0 1.1-0.1 0.3-0.1 0.6-0.2 0.8-0.3 0.2-0.1 0.4-0.3 0.5-0.5s0.2-0.4 0.2-0.6c0-0.3-0.1-0.5-0.2-0.8 -0.2-0.2-0.4-0.4-0.7-0.6s-0.6-0.4-1-0.6 -0.8-0.4-1.3-0.5c-1.1-0.5-2-1.1-2.6-1.8 -0.6-0.7-0.8-1.5-0.8-2.5 0-0.8 0.2-1.4 0.5-2s0.7-1 1.3-1.4c0.5-0.4 1.1-0.6 1.8-0.8 0.7-0.2 1.4-0.3 2.2-0.3 0.8 0 1.4 0 2 0.1 0.6 0.1 1.1 0.2 1.6 0.4v3.1c-0.2-0.2-0.5-0.3-0.8-0.5s-0.6-0.2-0.9-0.3c-0.3-0.1-0.6-0.1-0.9-0.2 -0.3 0-0.6-0.1-0.9-0.1 -0.4 0-0.7 0-1 0.1 -0.3 0.1-0.6 0.2-0.8 0.3s-0.4 0.3-0.5 0.5 -0.2 0.4-0.2 0.6c0 0.2 0.1 0.5 0.2 0.7 0.1 0.2 0.3 0.4 0.6 0.6 0.2 0.2 0.5 0.3 0.9 0.5s0.7 0.3 1.2 0.5c0.6 0.2 1.1 0.5 1.6 0.8 0.5 0.3 0.9 0.6 1.2 0.9s0.6 0.7 0.8 1.2c0.2 0.4 0.3 1 0.3 1.6 0 0.8-0.2 1.5-0.5 2.1 -0.3 0.6-0.7 1-1.3 1.4 -0.5 0.3-1.2 0.6-1.9 0.7 -0.7 0.2-1.5 0.2-2.2 0.2 -0.8 0-1.6-0.1-2.3-0.2C129.7 893.1 129.1 892.9 128.5 892.6z"/><path d="M153.7 893.2h-3.3v-6h-6.1v6h-3.3v-14.7h3.3v5.9h6.1v-5.9h3.3V893.2z"/><rect x="119.5" y="88.5" fill="#000" width="3" height="31.9"/><polygon fill="#000" points="115.1 117.1 121 127.5 127 117.1 "/><path d="M71.8 146.7l-1 3.9h-1.8l1.4-3.9H71.8zM75 146.7l-1 3.9h-1.8l1.4-3.9H75z"/><path d="M93.1 147l-3.5 12.6H87.3l-2.4-8.8c-0.1-0.4-0.2-0.8-0.2-1.2h0c0 0.4-0.1 0.8-0.2 1.2l-2.4 8.8h-2.4l-3.5-12.6h2.3l2.3 9.2c0.1 0.4 0.2 0.8 0.2 1.2h0c0-0.3 0.1-0.7 0.2-1.2l2.6-9.2h2.2l2.4 9.3c0.1 0.3 0.1 0.7 0.2 1.1h0c0-0.3 0.1-0.7 0.2-1.2l2.2-9.3H93.1z"/><path d="M101.8 155.6h-6.1c0 0.8 0.3 1.5 0.8 1.9s1.2 0.7 2 0.7c1 0 1.8-0.3 2.6-0.9v1.6c-0.8 0.5-1.9 0.8-3.3 0.8 -1.3 0-2.4-0.4-3.1-1.2s-1.1-2-1.1-3.4c0-1.4 0.4-2.5 1.2-3.4s1.9-1.3 3.1-1.3 2.2 0.4 2.9 1.2 1 1.9 1 3.3V155.6zM99.8 154.2c0-0.7-0.2-1.3-0.5-1.7s-0.8-0.6-1.4-0.6c-0.6 0-1.1 0.2-1.5 0.6s-0.7 1-0.8 1.7H99.8z"/><path d="M105.8 159.6h-2v-13.3h2V159.6z"/><path d="M114.9 159.2c-0.7 0.4-1.6 0.6-2.6 0.6 -1.3 0-2.4-0.4-3.2-1.3s-1.2-1.9-1.2-3.2c0-1.5 0.4-2.7 1.3-3.6s2.1-1.3 3.5-1.3c0.8 0 1.5 0.1 2.2 0.4v1.9c-0.6-0.5-1.3-0.7-2-0.7 -0.9 0-1.6 0.3-2.1 0.9s-0.8 1.3-0.8 2.3c0 0.9 0.3 1.7 0.8 2.2s1.2 0.8 2.1 0.8c0.7 0 1.4-0.3 2.1-0.8V159.2z"/><path d="M120.9 159.8c-1.4 0-2.5-0.4-3.3-1.3s-1.2-2-1.2-3.3c0-1.5 0.4-2.7 1.3-3.5s2-1.3 3.5-1.3c1.4 0 2.5 0.4 3.3 1.2s1.2 2 1.2 3.4c0 1.4-0.4 2.6-1.3 3.5S122.3 159.8 120.9 159.8zM121 152c-0.8 0-1.4 0.3-1.9 0.8s-0.7 1.3-0.7 2.3c0 0.9 0.2 1.7 0.7 2.2s1.1 0.8 1.9 0.8c0.8 0 1.4-0.3 1.9-0.8s0.6-1.3 0.6-2.3c0-1-0.2-1.8-0.6-2.3S121.8 152 121 152z"/><path d="M141.1 159.6h-2v-4.9c0-0.9-0.1-1.6-0.4-2s-0.7-0.6-1.3-0.6c-0.5 0-1 0.3-1.4 0.8s-0.6 1.2-0.6 1.9v4.9h-2v-5.1c0-1.7-0.6-2.5-1.8-2.5 -0.6 0-1 0.3-1.4 0.8s-0.5 1.2-0.5 2v4.9h-2v-9h2v1.4h0c0.7-1.1 1.6-1.6 2.8-1.6 0.6 0 1.2 0.2 1.6 0.5s0.8 0.8 1 1.3c0.7-1.2 1.7-1.9 3-1.9 2 0 3 1.2 3 3.7V159.6z"/><path d="M151.2 155.6h-6.1c0 0.8 0.3 1.5 0.8 1.9s1.2 0.7 2 0.7c1 0 1.8-0.3 2.6-0.9v1.6c-0.8 0.5-1.9 0.8-3.3 0.8 -1.3 0-2.4-0.4-3.1-1.2s-1.1-2-1.1-3.4c0-1.4 0.4-2.5 1.2-3.4s1.9-1.3 3.1-1.3 2.2 0.4 2.9 1.2 1 1.9 1 3.3V155.6zM149.2 154.2c0-0.7-0.2-1.3-0.5-1.7s-0.8-0.6-1.4-0.6c-0.6 0-1.1 0.2-1.5 0.6s-0.7 1-0.8 1.7H149.2z"/><path d="M162.8 159.5c-0.4 0.2-0.9 0.3-1.6 0.3 -1.7 0-2.6-0.8-2.6-2.5v-5.1h-1.5v-1.6h1.5v-2.1l2-0.6v2.7h2.2v1.6h-2.2v4.5c0 0.5 0.1 0.9 0.3 1.1s0.5 0.3 1 0.3c0.3 0 0.6-0.1 0.9-0.3V159.5z"/><path d="M168.5 159.8c-1.4 0-2.5-0.4-3.3-1.3s-1.2-2-1.2-3.3c0-1.5 0.4-2.7 1.3-3.5s2-1.3 3.5-1.3c1.4 0 2.5 0.4 3.3 1.2s1.2 2 1.2 3.4c0 1.4-0.4 2.6-1.3 3.5S169.9 159.8 168.5 159.8zM168.6 152c-0.8 0-1.4 0.3-1.9 0.8s-0.7 1.3-0.7 2.3c0 0.9 0.2 1.7 0.7 2.2s1.1 0.8 1.9 0.8c0.8 0 1.4-0.3 1.9-0.8s0.6-1.3 0.6-2.3c0-1-0.2-1.8-0.6-2.3S169.4 152 168.6 152z"/><path d="M83.3 181.1c-0.4 0.2-0.9 0.3-1.6 0.3 -1.7 0-2.6-0.8-2.6-2.5v-5.1h-1.5v-1.6h1.5v-2.1l2-0.6v2.7h2.2v1.6H81.2v4.5c0 0.5 0.1 0.9 0.3 1.1s0.5 0.3 1 0.3c0.3 0 0.6-0.1 0.9-0.3V181.1z"/><path d="M93.1 181.2H91v-4.9c0-1.8-0.6-2.7-1.8-2.7 -0.6 0-1.1 0.3-1.5 0.8s-0.6 1.2-0.6 2v4.8h-2v-13.3h2v5.8h0c0.7-1.1 1.7-1.7 2.9-1.7 2 0 3 1.2 3 3.7V181.2z"/><path d="M103.2 177.2h-6.1c0 0.8 0.3 1.5 0.8 1.9s1.2 0.7 2 0.7c1 0 1.8-0.3 2.6-0.9v1.6c-0.8 0.5-1.9 0.8-3.3 0.8 -1.3 0-2.4-0.4-3.1-1.2s-1.1-2-1.1-3.4c0-1.4 0.4-2.5 1.2-3.4s1.9-1.3 3.1-1.3 2.2 0.4 2.9 1.2 1 1.9 1 3.3V177.2zM101.2 175.8c0-0.7-0.2-1.3-0.5-1.7s-0.8-0.6-1.4-0.6c-0.6 0-1.1 0.2-1.5 0.6s-0.7 1-0.8 1.7H101.2z"/><path d="M118.2 180.5c0 3.3-1.7 5-5 5 -1.2 0-2.2-0.2-3.1-0.6v-1.9c1 0.6 1.9 0.8 2.8 0.8 2.1 0 3.2-1.1 3.2-3.2v-1h0c-0.7 1.1-1.7 1.7-3 1.7 -1.1 0-2-0.4-2.6-1.2s-1-1.9-1-3.2c0-1.5 0.4-2.7 1.1-3.6s1.7-1.4 3-1.4c1.2 0 2.1 0.5 2.6 1.5h0v-1.2h2V180.5zM116.2 177.1v-1.2c0-0.6-0.2-1.2-0.6-1.6s-0.9-0.7-1.6-0.7c-0.8 0-1.4 0.3-1.8 0.9s-0.7 1.4-0.7 2.4c0 0.9 0.2 1.6 0.6 2.1s1 0.8 1.7 0.8c0.7 0 1.3-0.3 1.7-0.8S116.2 177.9 116.2 177.1z"/><path d="M127.8 181.2h-2v-1.4h0c-0.6 1.1-1.5 1.6-2.7 1.6 -0.9 0-1.6-0.2-2.1-0.7s-0.8-1.1-0.8-1.9c0-1.7 1-2.7 2.9-3l2.7-0.4c0-1.3-0.6-1.9-1.8-1.9 -1.1 0-2 0.4-2.9 1.1v-1.8c0.9-0.6 2-0.8 3.3-0.8 2.3 0 3.4 1.1 3.4 3.4V181.2zM125.8 176.8l-1.9 0.3c-0.6 0.1-1 0.2-1.3 0.4s-0.4 0.6-0.4 1.1c0 0.4 0.1 0.7 0.4 0.9s0.6 0.4 1.1 0.4c0.6 0 1.1-0.2 1.5-0.7s0.6-1 0.6-1.6V176.8z"/><path d="M143.7 181.2h-2v-4.9c0-0.9-0.1-1.6-0.4-2s-0.7-0.6-1.3-0.6c-0.5 0-1 0.3-1.4 0.8s-0.6 1.2-0.6 1.9v4.9h-2v-5.1c0-1.7-0.6-2.5-1.8-2.5 -0.6 0-1 0.3-1.4 0.8s-0.5 1.2-0.5 2v4.9h-2v-9h2v1.4h0c0.7-1.1 1.6-1.6 2.8-1.6 0.6 0 1.2 0.2 1.6 0.5s0.8 0.8 1 1.3c0.7-1.2 1.7-1.9 3-1.9 2 0 3 1.2 3 3.7V181.2z"/><path d="M153.9 177.2h-6.1c0 0.8 0.3 1.5 0.8 1.9s1.2 0.7 2 0.7c1 0 1.8-0.3 2.6-0.9v1.6c-0.8 0.5-1.9 0.8-3.3 0.8 -1.3 0-2.4-0.4-3.1-1.2s-1.1-2-1.1-3.4c0-1.4 0.4-2.5 1.2-3.4s1.9-1.3 3.1-1.3 2.2 0.4 2.9 1.2 1 1.9 1 3.3V177.2zM151.9 175.8c0-0.7-0.2-1.3-0.5-1.7s-0.8-0.6-1.4-0.6c-0.6 0-1.1 0.2-1.5 0.6s-0.7 1-0.8 1.7H151.9z"/><path d="M156.6 181.4c-0.4 0-0.6-0.1-0.9-0.3s-0.4-0.5-0.4-0.8c0-0.3 0.1-0.6 0.4-0.8s0.5-0.4 0.9-0.4c0.4 0 0.7 0.1 0.9 0.4s0.4 0.5 0.4 0.8c0 0.3-0.1 0.6-0.4 0.8S157 181.4 156.6 181.4z"/><path d="M160.9 168.3l-1.4 3.9h-1.3l1-3.9H160.9zM164 168.3l-1.4 3.9h-1.4l1-3.9H164z"/><rect x="119.5" y="201" fill="#000" width="3" height="31.9"/><polygon fill="#000" points="115.1 229.6 121 240 127 229.6 "/><path fill="#000" d="M224.1 243v69H18v-69H224.1M227.1 240H15v75h212.1V240L227.1 240z"/><path d="M47.5 272.1v-12.6h3.6c4.6 0 7 2 7 6.1 0 1.9-0.6 3.5-1.9 4.7s-3 1.8-5.2 1.8H47.5zM49.6 261.3v9.1h1.7c1.5 0 2.6-0.4 3.4-1.2s1.2-2 1.2-3.4c0-2.9-1.5-4.4-4.6-4.4H49.6z"/><path d="M67.9 268.1h-6.1c0 0.8 0.3 1.5 0.8 1.9s1.2 0.7 2 0.7c1 0 1.8-0.3 2.6-0.9v1.6c-0.8 0.5-1.9 0.8-3.3 0.8 -1.3 0-2.4-0.4-3.1-1.2s-1.1-2-1.1-3.4c0-1.4 0.4-2.5 1.2-3.4s1.9-1.3 3.1-1.3 2.2 0.4 2.9 1.2 1 1.9 1 3.3V268.1zM65.9 266.7c0-0.7-0.2-1.3-0.5-1.7s-0.8-0.6-1.4-0.6c-0.6 0-1.1 0.2-1.5 0.6s-0.7 1-0.8 1.7H65.9z"/><path d="M76.7 272.1h-2v-1.4H74.7c-0.6 1.1-1.5 1.6-2.7 1.6 -0.9 0-1.6-0.2-2.1-0.7s-0.8-1.1-0.8-1.9c0-1.7 1-2.7 2.9-3l2.7-0.4c0-1.3-0.6-1.9-1.8-1.9 -1.1 0-2 0.4-2.9 1.1v-1.8c0.9-0.6 2-0.8 3.3-0.8 2.3 0 3.4 1.1 3.4 3.4V272.1zM74.7 267.7l-1.9 0.3c-0.6 0.1-1 0.2-1.3 0.4s-0.4 0.6-0.4 1.1c0 0.4 0.1 0.7 0.4 0.9s0.6 0.4 1.1 0.4c0.6 0 1.1-0.2 1.5-0.7s0.6-1 0.6-1.6V267.7z"/><path d="M81.2 272.1H79.2v-13.3h2V272.1z"/><path d="M95.3 271.7c-0.7 0.4-1.6 0.6-2.6 0.6 -1.3 0-2.4-0.4-3.2-1.3s-1.2-1.9-1.2-3.2c0-1.5 0.4-2.7 1.3-3.6s2.1-1.3 3.5-1.3c0.8 0 1.5 0.1 2.2 0.4v1.9c-0.6-0.5-1.3-0.7-2-0.7 -0.9 0-1.6 0.3-2.1 0.9s-0.8 1.3-0.8 2.3c0 0.9 0.3 1.7 0.8 2.2s1.2 0.8 2.1 0.8c0.7 0 1.4-0.3 2.1-0.8V271.7z"/><path d="M104.2 272.1h-2v-1.4H102.2c-0.6 1.1-1.5 1.6-2.7 1.6 -0.9 0-1.6-0.2-2.1-0.7s-0.8-1.1-0.8-1.9c0-1.7 1-2.7 2.9-3l2.7-0.4c0-1.3-0.6-1.9-1.8-1.9 -1.1 0-2 0.4-2.9 1.1v-1.8c0.9-0.6 2-0.8 3.3-0.8 2.3 0 3.4 1.1 3.4 3.4V272.1zM102.2 267.7l-1.9 0.3c-0.6 0.1-1 0.2-1.3 0.4s-0.4 0.6-0.4 1.1c0 0.4 0.1 0.7 0.4 0.9s0.6 0.4 1.1 0.4c0.6 0 1.1-0.2 1.5-0.7s0.6-1 0.6-1.6V267.7z"/><path d="M111.9 265c-0.2-0.2-0.6-0.3-1.1-0.3 -0.6 0-1.1 0.3-1.5 0.8s-0.6 1.3-0.6 2.2v4.3H106.7v-9h2v1.9h0c0.2-0.6 0.5-1.1 0.9-1.5s0.9-0.5 1.4-0.5c0.4 0 0.7 0.1 0.8 0.2V265z"/><path d="M121.4 272.1h-2v-1.5h0c-0.7 1.2-1.7 1.7-3 1.7 -1.1 0-2-0.4-2.7-1.2s-1-1.9-1-3.3c0-1.5 0.4-2.7 1.1-3.6s1.7-1.3 2.9-1.3c1.2 0 2.1 0.5 2.6 1.5h0v-5.6h2V272.1zM119.4 268v-1.2c0-0.6-0.2-1.2-0.6-1.6s-0.9-0.7-1.6-0.7c-0.8 0-1.4 0.3-1.8 0.9s-0.7 1.4-0.7 2.4c0 0.9 0.2 1.6 0.6 2.2s1 0.8 1.7 0.8c0.7 0 1.3-0.3 1.7-0.8S119.4 268.8 119.4 268z"/><path d="M123.5 271.8v-1.9c0.8 0.6 1.6 0.9 2.5 0.9 1.2 0 1.8-0.4 1.8-1.1 0-0.2-0.1-0.4-0.2-0.5s-0.2-0.3-0.4-0.4 -0.4-0.2-0.6-0.3 -0.5-0.2-0.8-0.3c-0.4-0.1-0.7-0.3-1-0.5s-0.5-0.3-0.7-0.6 -0.3-0.4-0.4-0.7 -0.1-0.6-0.1-0.9c0-0.4 0.1-0.8 0.3-1.1s0.5-0.6 0.8-0.8 0.7-0.4 1.2-0.5 0.9-0.2 1.4-0.2c0.8 0 1.6 0.1 2.2 0.4v1.8c-0.6-0.4-1.4-0.6-2.2-0.6 -0.3 0-0.5 0-0.7 0.1s-0.4 0.1-0.5 0.2 -0.3 0.2-0.3 0.3 -0.1 0.3-0.1 0.4c0 0.2 0 0.4 0.1 0.5s0.2 0.3 0.4 0.4 0.4 0.2 0.6 0.3 0.5 0.2 0.8 0.3c0.4 0.2 0.7 0.3 1 0.5s0.6 0.4 0.8 0.6 0.4 0.4 0.5 0.7 0.2 0.6 0.2 1c0 0.5-0.1 0.9-0.3 1.2s-0.5 0.6-0.8 0.8 -0.8 0.4-1.2 0.5 -0.9 0.2-1.5 0.2C125.1 272.3 124.2 272.1 123.5 271.8z"/><path d="M141.5 272c-0.4 0.2-0.9 0.3-1.6 0.3 -1.7 0-2.6-0.8-2.6-2.5v-5.1h-1.5v-1.6h1.5v-2.1l2-0.6v2.7h2.2v1.6h-2.2v4.5c0 0.5 0.1 0.9 0.3 1.1s0.5 0.3 1 0.3c0.3 0 0.6-0.1 0.9-0.3V272z"/><path d="M147.1 272.3c-1.4 0-2.5-0.4-3.3-1.3s-1.2-2-1.2-3.3c0-1.5 0.4-2.7 1.3-3.5s2-1.3 3.5-1.3c1.4 0 2.5 0.4 3.3 1.2s1.2 2 1.2 3.4c0 1.4-0.4 2.6-1.3 3.5S148.6 272.3 147.1 272.3zM147.2 264.5c-0.8 0-1.4 0.3-1.9 0.8s-0.7 1.3-0.7 2.3c0 0.9 0.2 1.7 0.7 2.2s1.1 0.8 1.9 0.8c0.8 0 1.4-0.3 1.9-0.8s0.6-1.3 0.6-2.3c0-1-0.2-1.8-0.6-2.3S148 264.5 147.2 264.5z"/><path d="M160.9 270.8h0v1.3h-2v-13.3h2v5.9h0c0.7-1.2 1.7-1.8 3.1-1.8 1.1 0 2 0.4 2.7 1.2s1 1.9 1 3.2c0 1.5-0.4 2.7-1.1 3.6s-1.7 1.4-3 1.4C162.4 272.3 161.5 271.8 160.9 270.8zM160.9 267.2v1.1c0 0.7 0.2 1.2 0.6 1.7s1 0.7 1.6 0.7c0.8 0 1.3-0.3 1.8-0.9s0.6-1.4 0.6-2.5c0-0.9-0.2-1.6-0.6-2.1s-0.9-0.8-1.6-0.8c-0.7 0-1.3 0.3-1.8 0.8S160.9 266.4 160.9 267.2z"/><path d="M173.7 272.3c-1.4 0-2.5-0.4-3.3-1.3s-1.2-2-1.2-3.3c0-1.5 0.4-2.7 1.3-3.5s2-1.3 3.5-1.3c1.4 0 2.5 0.4 3.3 1.2s1.2 2 1.2 3.4c0 1.4-0.4 2.6-1.3 3.5S175.1 272.3 173.7 272.3zM173.8 264.5c-0.8 0-1.4 0.3-1.9 0.8s-0.7 1.3-0.7 2.3c0 0.9 0.2 1.7 0.7 2.2s1.1 0.8 1.9 0.8c0.8 0 1.4-0.3 1.9-0.8s0.6-1.3 0.6-2.3c0-1-0.2-1.8-0.6-2.3S174.6 264.5 173.8 264.5z"/><path d="M185.2 272c-0.4 0.2-0.9 0.3-1.6 0.3 -1.7 0-2.6-0.8-2.6-2.5v-5.1H179.5v-1.6h1.5v-2.1l2-0.6v2.7h2.2v1.6h-2.2v4.5c0 0.5 0.1 0.9 0.3 1.1s0.5 0.3 1 0.3c0.3 0 0.6-0.1 0.9-0.3V272z"/><path d="M195 272.1h-2v-4.9c0-1.8-0.6-2.7-1.8-2.7 -0.6 0-1.1 0.3-1.5 0.8S189 266.4 189 267.2v4.8h-2v-13.3H189v5.8h0c0.7-1.1 1.7-1.7 2.9-1.7 2 0 3 1.2 3 3.7V272.1z"/><path d="M45.2 292.4H45.2v5.5h-2v-13.1h2v1.6h0c0.7-1.2 1.7-1.8 3.1-1.8 1.1 0 2 0.4 2.7 1.2s1 1.9 1 3.2c0 1.5-0.4 2.7-1.1 3.6s-1.7 1.4-3 1.4C46.7 293.9 45.8 293.4 45.2 292.4zM45.1 288.8v1.1c0 0.7 0.2 1.2 0.6 1.7s1 0.7 1.6 0.7c0.8 0 1.3-0.3 1.8-0.9s0.6-1.4 0.6-2.5c0-0.9-0.2-1.6-0.6-2.1s-0.9-0.8-1.6-0.8c-0.7 0-1.3 0.3-1.8 0.8S45.1 288 45.1 288.8z"/><path d="M56 293.7h-2v-13.3h2V293.7z"/><path d="M65.6 293.7h-2v-1.4h0c-0.6 1.1-1.5 1.6-2.7 1.6 -0.9 0-1.6-0.2-2.1-0.7s-0.8-1.1-0.8-1.9c0-1.7 1-2.7 2.9-3l2.7-0.4c0-1.3-0.6-1.9-1.8-1.9 -1.1 0-2 0.4-2.9 1.1v-1.8c0.9-0.6 2-0.8 3.3-0.8 2.3 0 3.4 1.1 3.4 3.4V293.7zM63.6 289.3l-1.9 0.3c-0.6 0.1-1 0.2-1.3 0.4s-0.4 0.6-0.4 1.1c0 0.4 0.1 0.7 0.4 0.9s0.6 0.4 1.1 0.4c0.6 0 1.1-0.2 1.5-0.7s0.6-1 0.6-1.6V289.3z"/><path d="M75.9 284.7l-4.1 10.4c-0.8 1.9-2 2.8-3.6 2.8 -0.4 0-0.8 0-1.1-0.1v-1.7c0.3 0.1 0.6 0.2 0.9 0.2 0.8 0 1.3-0.4 1.7-1.1l0.6-1.5 -3.6-9h2.3l2.1 6.5c0 0.1 0.1 0.3 0.2 0.7h0c0-0.1 0.1-0.3 0.2-0.6l2.3-6.6H75.9z"/><path d="M84.7 289.7h-6.1c0 0.8 0.3 1.5 0.8 1.9s1.2 0.7 2 0.7c1 0 1.8-0.3 2.6-0.9v1.6c-0.8 0.5-1.9 0.8-3.3 0.8 -1.3 0-2.4-0.4-3.1-1.2s-1.1-2-1.1-3.4c0-1.4 0.4-2.5 1.2-3.4s1.9-1.3 3.1-1.3 2.2 0.4 2.9 1.2 1 1.9 1 3.3V289.7zM82.7 288.3c0-0.7-0.2-1.3-0.5-1.7s-0.8-0.6-1.4-0.6c-0.6 0-1.1 0.2-1.5 0.6s-0.7 1-0.8 1.7H82.7z"/><path d="M91.9 286.6c-0.2-0.2-0.6-0.3-1.1-0.3 -0.6 0-1.1 0.3-1.5 0.8s-0.6 1.3-0.6 2.2v4.3h-2v-9h2v1.9h0c0.2-0.6 0.5-1.1 0.9-1.5s0.9-0.5 1.4-0.5c0.4 0 0.7 0.1 0.8 0.2V286.6z"/><path d="M92.8 293.4v-1.9c0.8 0.6 1.6 0.9 2.5 0.9 1.2 0 1.8-0.4 1.8-1.1 0-0.2-0.1-0.4-0.2-0.5s-0.2-0.3-0.4-0.4 -0.4-0.2-0.6-0.3 -0.5-0.2-0.8-0.3c-0.4-0.1-0.7-0.3-1-0.5s-0.5-0.3-0.7-0.6 -0.3-0.4-0.4-0.7 -0.1-0.6-0.1-0.9c0-0.4 0.1-0.8 0.3-1.1s0.5-0.6 0.8-0.8 0.7-0.4 1.2-0.5 0.9-0.2 1.4-0.2c0.8 0 1.6 0.1 2.2 0.4v1.8c-0.6-0.4-1.4-0.6-2.2-0.6 -0.3 0-0.5 0-0.7 0.1s-0.4 0.1-0.5 0.2 -0.3 0.2-0.3 0.3 -0.1 0.3-0.1 0.4c0 0.2 0 0.4 0.1 0.5s0.2 0.3 0.4 0.4 0.4 0.2 0.6 0.3 0.5 0.2 0.8 0.3c0.4 0.2 0.7 0.3 1 0.5s0.6 0.4 0.8 0.6 0.4 0.4 0.5 0.7 0.2 0.6 0.2 1c0 0.5-0.1 0.9-0.3 1.2s-0.5 0.6-0.8 0.8 -0.8 0.4-1.2 0.5 -0.9 0.2-1.5 0.2C94.4 293.9 93.6 293.7 92.8 293.4z"/><path d="M103.1 291.6l-1.4 4.4h-1.5l1-4.4H103.1z"/><path d="M117.4 293.7h-2v-1.4h0c-0.6 1.1-1.5 1.6-2.7 1.6 -0.9 0-1.6-0.2-2.1-0.7s-0.8-1.1-0.8-1.9c0-1.7 1-2.7 2.9-3l2.7-0.4c0-1.3-0.6-1.9-1.8-1.9 -1.1 0-2 0.4-2.9 1.1v-1.8c0.9-0.6 2-0.8 3.3-0.8 2.3 0 3.4 1.1 3.4 3.4V293.7zM115.4 289.3l-1.9 0.3c-0.6 0.1-1 0.2-1.3 0.4s-0.4 0.6-0.4 1.1c0 0.4 0.1 0.7 0.4 0.9s0.6 0.4 1.1 0.4c0.6 0 1.1-0.2 1.5-0.7s0.6-1 0.6-1.6V289.3z"/><path d="M128 293.7H126v-1.5h0c-0.7 1.2-1.7 1.7-3 1.7 -1.1 0-2-0.4-2.7-1.2s-1-1.9-1-3.3c0-1.5 0.4-2.7 1.1-3.6s1.7-1.3 2.9-1.3c1.2 0 2.1 0.5 2.6 1.5H126v-5.6h2V293.7zM126 289.6v-1.2c0-0.6-0.2-1.2-0.6-1.6s-0.9-0.7-1.6-0.7c-0.8 0-1.4 0.3-1.8 0.9s-0.7 1.4-0.7 2.4c0 0.9 0.2 1.6 0.6 2.2s1 0.8 1.7 0.8c0.7 0 1.3-0.3 1.7-0.8S126 290.4 126 289.6z"/><path d="M138.9 293.7h-2v-1.5h0c-0.7 1.2-1.7 1.7-3 1.7 -1.1 0-2-0.4-2.7-1.2s-1-1.9-1-3.3c0-1.5 0.4-2.7 1.1-3.6s1.7-1.3 2.9-1.3c1.2 0 2.1 0.5 2.6 1.5h0v-5.6h2V293.7zM136.9 289.6v-1.2c0-0.6-0.2-1.2-0.6-1.6s-0.9-0.7-1.6-0.7c-0.8 0-1.4 0.3-1.8 0.9s-0.7 1.4-0.7 2.4c0 0.9 0.2 1.6 0.6 2.2s1 0.8 1.7 0.8c0.7 0 1.3-0.3 1.7-0.8S136.9 290.4 136.9 289.6z"/><path d="M145.9 293.4v-1.9c0.8 0.6 1.6 0.9 2.5 0.9 1.2 0 1.8-0.4 1.8-1.1 0-0.2-0.1-0.4-0.2-0.5s-0.2-0.3-0.4-0.4 -0.4-0.2-0.6-0.3 -0.5-0.2-0.8-0.3c-0.4-0.1-0.7-0.3-1-0.5s-0.5-0.3-0.7-0.6 -0.3-0.4-0.4-0.7 -0.1-0.6-0.1-0.9c0-0.4 0.1-0.8 0.3-1.1s0.5-0.6 0.8-0.8 0.7-0.4 1.2-0.5 0.9-0.2 1.4-0.2c0.8 0 1.6 0.1 2.2 0.4v1.8c-0.6-0.4-1.4-0.6-2.2-0.6 -0.3 0-0.5 0-0.7 0.1s-0.4 0.1-0.5 0.2 -0.3 0.2-0.3 0.3 -0.1 0.3-0.1 0.4c0 0.2 0 0.4 0.1 0.5s0.2 0.3 0.4 0.4 0.4 0.2 0.6 0.3 0.5 0.2 0.8 0.3c0.4 0.2 0.7 0.3 1 0.5s0.6 0.4 0.8 0.6 0.4 0.4 0.5 0.7 0.2 0.6 0.2 1c0 0.5-0.1 0.9-0.3 1.2s-0.5 0.6-0.8 0.8 -0.8 0.4-1.2 0.5 -0.9 0.2-1.5 0.2C147.5 293.9 146.7 293.7 145.9 293.4z"/><path d="M160.7 293.3c-0.7 0.4-1.6 0.6-2.6 0.6 -1.3 0-2.4-0.4-3.2-1.3s-1.2-1.9-1.2-3.2c0-1.5 0.4-2.7 1.3-3.6s2.1-1.3 3.5-1.3c0.8 0 1.5 0.1 2.2 0.4v1.9c-0.6-0.5-1.3-0.7-2-0.7 -0.9 0-1.6 0.3-2.1 0.9s-0.8 1.3-0.8 2.3c0 0.9 0.3 1.7 0.8 2.2s1.2 0.8 2.1 0.8c0.7 0 1.4-0.3 2.1-0.8V293.3z"/><path d="M166.7 293.9c-1.4 0-2.5-0.4-3.3-1.3s-1.2-2-1.2-3.3c0-1.5 0.4-2.7 1.3-3.5s2-1.3 3.5-1.3c1.4 0 2.5 0.4 3.3 1.2s1.2 2 1.2 3.4c0 1.4-0.4 2.6-1.3 3.5S168.1 293.9 166.7 293.9zM166.8 286.1c-0.8 0-1.4 0.3-1.9 0.8s-0.7 1.3-0.7 2.3c0 0.9 0.2 1.7 0.7 2.2s1.1 0.8 1.9 0.8c0.8 0 1.4-0.3 1.9-0.8s0.6-1.3 0.6-2.3c0-1-0.2-1.8-0.6-2.3S167.6 286.1 166.8 286.1z"/><path d="M178.7 286.6c-0.2-0.2-0.6-0.3-1.1-0.3 -0.6 0-1.1 0.3-1.5 0.8s-0.6 1.3-0.6 2.2v4.3h-2v-9h2v1.9h0c0.2-0.6 0.5-1.1 0.9-1.5s0.9-0.5 1.4-0.5c0.4 0 0.7 0.1 0.8 0.2V286.6z"/><path d="M187.6 289.7h-6.1c0 0.8 0.3 1.5 0.8 1.9s1.2 0.7 2 0.7c1 0 1.8-0.3 2.6-0.9v1.6c-0.8 0.5-1.9 0.8-3.3 0.8 -1.3 0-2.4-0.4-3.1-1.2s-1.1-2-1.1-3.4c0-1.4 0.4-2.5 1.2-3.4s1.9-1.3 3.1-1.3 2.2 0.4 2.9 1.2 1 1.9 1 3.3V289.7zM185.6 288.3c0-0.7-0.2-1.3-0.5-1.7s-0.8-0.6-1.4-0.6c-0.6 0-1.1 0.2-1.5 0.6s-0.7 1-0.8 1.7H185.6z"/><path d="M189 293.4v-1.9c0.8 0.6 1.6 0.9 2.5 0.9 1.2 0 1.8-0.4 1.8-1.1 0-0.2-0.1-0.4-0.2-0.5s-0.2-0.3-0.4-0.4 -0.4-0.2-0.6-0.3 -0.5-0.2-0.8-0.3c-0.4-0.1-0.7-0.3-1-0.5s-0.5-0.3-0.7-0.6 -0.3-0.4-0.4-0.7 -0.1-0.6-0.1-0.9c0-0.4 0.1-0.8 0.3-1.1s0.5-0.6 0.8-0.8 0.7-0.4 1.2-0.5 0.9-0.2 1.4-0.2c0.8 0 1.6 0.1 2.2 0.4v1.8c-0.6-0.4-1.4-0.6-2.2-0.6 -0.3 0-0.5 0-0.7 0.1s-0.4 0.1-0.5 0.2 -0.3 0.2-0.3 0.3 -0.1 0.3-0.1 0.4c0 0.2 0 0.4 0.1 0.5s0.2 0.3 0.4 0.4 0.4 0.2 0.6 0.3 0.5 0.2 0.8 0.3c0.4 0.2 0.7 0.3 1 0.5s0.6 0.4 0.8 0.6 0.4 0.4 0.5 0.7 0.2 0.6 0.2 1c0 0.5-0.1 0.9-0.3 1.2s-0.5 0.6-0.8 0.8 -0.8 0.4-1.2 0.5 -0.9 0.2-1.5 0.2C190.5 293.9 189.7 293.7 189 293.4z"/><path d="M198.1 293.9c-0.4 0-0.6-0.1-0.9-0.3s-0.4-0.5-0.4-0.8c0-0.3 0.1-0.6 0.4-0.8s0.5-0.4 0.9-0.4c0.4 0 0.7 0.1 0.9 0.4s0.4 0.5 0.4 0.8c0 0.3-0.1 0.6-0.4 0.8S198.5 293.9 198.1 293.9z"/><rect x="119.5" y="313.5" fill="#000" width="3" height="31.9"/><polygon fill="#000" points="127 342.1 121 352.5 115.1 342.1 "/><path d="M66.3 384.6h-2.3l-1.1-3.2h-5l-1.1 3.2h-2.3l4.7-12.6h2.4L66.3 384.6zM62.3 379.7l-1.7-5c-0.1-0.2-0.1-0.4-0.2-0.8h0c-0.1 0.3-0.1 0.6-0.2 0.8l-1.7 5H62.3z"/><path d="M67.3 384.3v-1.9c0.8 0.6 1.6 0.9 2.5 0.9 1.2 0 1.8-0.4 1.8-1.1 0-0.2-0.1-0.4-0.2-0.5s-0.2-0.3-0.4-0.4 -0.4-0.2-0.6-0.3 -0.5-0.2-0.8-0.3c-0.4-0.1-0.7-0.3-1-0.5s-0.5-0.3-0.7-0.6 -0.3-0.4-0.4-0.7 -0.1-0.6-0.1-0.9c0-0.4 0.1-0.8 0.3-1.1s0.5-0.6 0.8-0.8 0.7-0.4 1.2-0.5 0.9-0.2 1.4-0.2c0.8 0 1.6 0.1 2.2 0.4v1.8c-0.6-0.4-1.4-0.6-2.2-0.6 -0.3 0-0.5 0-0.7 0.1s-0.4 0.1-0.5 0.2 -0.3 0.2-0.3 0.3 -0.1 0.3-0.1 0.4c0 0.2 0 0.4 0.1 0.5s0.2 0.3 0.4 0.4 0.4 0.2 0.6 0.3 0.5 0.2 0.8 0.3c0.4 0.2 0.7 0.3 1 0.5s0.6 0.4 0.8 0.6 0.4 0.4 0.5 0.7 0.2 0.6 0.2 1c0 0.5-0.1 0.9-0.3 1.2s-0.5 0.6-0.8 0.8 -0.8 0.4-1.2 0.5 -0.9 0.2-1.5 0.2C68.8 384.8 68 384.6 67.3 384.3z"/><path d="M83.7 384.6h-2.6l-3.5-4.3H77.6v4.3h-2v-13.3h2v8.4h0l3.3-4.1h2.5l-3.7 4.3L83.7 384.6z"/><path d="M92.1 383.3h0v5.5h-2v-13.1h2v1.6h0c0.7-1.2 1.7-1.8 3.1-1.8 1.1 0 2 0.4 2.7 1.2s1 1.9 1 3.2c0 1.5-0.4 2.7-1.1 3.6s-1.7 1.4-3 1.4C93.6 384.8 92.7 384.3 92.1 383.3zM92 379.7v1.1c0 0.7 0.2 1.2 0.6 1.7s1 0.7 1.6 0.7c0.8 0 1.3-0.3 1.8-0.9s0.6-1.4 0.6-2.5c0-0.9-0.2-1.6-0.6-2.1s-0.9-0.8-1.6-0.8c-0.7 0-1.3 0.3-1.8 0.8S92 378.9 92 379.7z"/><path d="M102.9 384.6h-2v-13.3h2V384.6z"/><path d="M112.4 384.6h-2v-1.4h0c-0.6 1.1-1.5 1.6-2.7 1.6 -0.9 0-1.6-0.2-2.1-0.7s-0.8-1.1-0.8-1.9c0-1.7 1-2.7 2.9-3l2.7-0.4c0-1.3-0.6-1.9-1.8-1.9 -1.1 0-2 0.4-2.9 1.1v-1.8c0.9-0.6 2-0.8 3.3-0.8 2.3 0 3.4 1.1 3.4 3.4V384.6zM110.5 380.2l-1.9 0.3c-0.6 0.1-1 0.2-1.3 0.4s-0.4 0.6-0.4 1.1c0 0.4 0.1 0.7 0.4 0.9s0.6 0.4 1.1 0.4c0.6 0 1.1-0.2 1.5-0.7s0.6-1 0.6-1.6V380.2z"/><path d="M122.7 375.6l-4.1 10.4c-0.8 1.9-2 2.8-3.6 2.8 -0.4 0-0.8 0-1.1-0.1v-1.7c0.3 0.1 0.6 0.2 0.9 0.2 0.8 0 1.3-0.4 1.7-1.1l0.6-1.5 -3.6-9h2.3l2.1 6.5c0 0.1 0.1 0.3 0.2 0.7h0c0-0.1 0.1-0.3 0.2-0.6l2.3-6.6H122.7z"/><path d="M131.6 380.6h-6.1c0 0.8 0.3 1.5 0.8 1.9s1.2 0.7 2 0.7c1 0 1.8-0.3 2.6-0.9v1.6c-0.8 0.5-1.9 0.8-3.3 0.8 -1.3 0-2.4-0.4-3.1-1.2s-1.1-2-1.1-3.4c0-1.4 0.4-2.5 1.2-3.4s1.9-1.3 3.1-1.3 2.2 0.4 2.9 1.2 1 1.9 1 3.3V380.6zM129.6 379.2c0-0.7-0.2-1.3-0.5-1.7s-0.8-0.6-1.4-0.6c-0.6 0-1.1 0.2-1.5 0.6s-0.7 1-0.8 1.7H129.6z"/><path d="M138.7 377.5c-0.2-0.2-0.6-0.3-1.1-0.3 -0.6 0-1.1 0.3-1.5 0.8s-0.6 1.3-0.6 2.2v4.3h-2v-9h2v1.9h0c0.2-0.6 0.5-1.1 0.9-1.5s0.9-0.5 1.4-0.5c0.4 0 0.7 0.1 0.8 0.2V377.5z"/><path d="M147.5 371.7l-1 3.9h-1.8l1.4-3.9H147.5zM150.6 371.7l-1 3.9h-1.8l1.4-3.9H150.6z"/><path d="M151.6 384.3v-1.9c0.8 0.6 1.6 0.9 2.5 0.9 1.2 0 1.8-0.4 1.8-1.1 0-0.2-0.1-0.4-0.2-0.5s-0.2-0.3-0.4-0.4 -0.4-0.2-0.6-0.3 -0.5-0.2-0.8-0.3c-0.4-0.1-0.7-0.3-1-0.5s-0.5-0.3-0.7-0.6 -0.3-0.4-0.4-0.7 -0.1-0.6-0.1-0.9c0-0.4 0.1-0.8 0.3-1.1s0.5-0.6 0.8-0.8 0.7-0.4 1.2-0.5 0.9-0.2 1.4-0.2c0.8 0 1.6 0.1 2.2 0.4v1.8c-0.6-0.4-1.4-0.6-2.2-0.6 -0.3 0-0.5 0-0.7 0.1s-0.4 0.1-0.5 0.2 -0.3 0.2-0.3 0.3 -0.1 0.3-0.1 0.4c0 0.2 0 0.4 0.1 0.5s0.2 0.3 0.4 0.4 0.4 0.2 0.6 0.3 0.5 0.2 0.8 0.3c0.4 0.2 0.7 0.3 1 0.5s0.6 0.4 0.8 0.6 0.4 0.4 0.5 0.7 0.2 0.6 0.2 1c0 0.5-0.1 0.9-0.3 1.2s-0.5 0.6-0.8 0.8 -0.8 0.4-1.2 0.5 -0.9 0.2-1.5 0.2C153.1 384.8 152.3 384.6 151.6 384.3z"/><path d="M164.6 384.5c-0.4 0.2-0.9 0.3-1.6 0.3 -1.7 0-2.6-0.8-2.6-2.5v-5.1h-1.5v-1.6h1.5v-2.1l2-0.6v2.7h2.2v1.6h-2.2v4.5c0 0.5 0.1 0.9 0.3 1.1s0.5 0.3 1 0.3c0.3 0 0.6-0.1 0.9-0.3V384.5z"/><path d="M167.4 373.7c-0.3 0-0.6-0.1-0.9-0.3s-0.4-0.5-0.4-0.8 0.1-0.6 0.4-0.8 0.5-0.3 0.9-0.3c0.3 0 0.6 0.1 0.9 0.3s0.4 0.5 0.4 0.8c0 0.3-0.1 0.6-0.4 0.8S167.8 373.7 167.4 373.7zM168.4 384.6h-2v-9h2V384.6z"/><path d="M177.5 384.2c-0.7 0.4-1.6 0.6-2.6 0.6 -1.3 0-2.4-0.4-3.2-1.3s-1.2-1.9-1.2-3.2c0-1.5 0.4-2.7 1.3-3.6s2.1-1.3 3.5-1.3c0.8 0 1.5 0.1 2.2 0.4v1.9c-0.6-0.5-1.3-0.7-2-0.7 -0.9 0-1.6 0.3-2.1 0.9s-0.8 1.3-0.8 2.3c0 0.9 0.3 1.7 0.8 2.2s1.2 0.8 2.1 0.8c0.7 0 1.4-0.3 2.1-0.8V384.2z"/><path d="M187.7 384.6h-2.6l-3.5-4.3h0v4.3h-2v-13.3h2v8.4h0l3.3-4.1h2.5l-3.7 4.3L187.7 384.6z"/><path d="M88.1 406.4c-1.4 0-2.5-0.4-3.3-1.3s-1.2-2-1.2-3.3c0-1.5 0.4-2.7 1.3-3.5s2-1.3 3.5-1.3c1.4 0 2.5 0.4 3.3 1.2s1.2 2 1.2 3.4c0 1.4-0.4 2.6-1.3 3.5S89.5 406.4 88.1 406.4zM88.2 398.6c-0.8 0-1.4 0.3-1.9 0.8s-0.7 1.3-0.7 2.3c0 0.9 0.2 1.7 0.7 2.2s1.1 0.8 1.9 0.8c0.8 0 1.4-0.3 1.9-0.8s0.6-1.3 0.6-2.3c0-1-0.2-1.8-0.6-2.3S89 398.6 88.2 398.6z"/><path d="M100.1 399.1c-0.2-0.2-0.6-0.3-1.1-0.3 -0.6 0-1.1 0.3-1.5 0.8s-0.6 1.3-0.6 2.2v4.3h-2v-9h2v1.9h0c0.2-0.6 0.5-1.1 0.9-1.5s0.9-0.5 1.4-0.5c0.4 0 0.7 0.1 0.8 0.2V399.1z"/><path d="M111.2 406.1c-0.4 0.2-0.9 0.3-1.6 0.3 -1.7 0-2.6-0.8-2.6-2.5v-5.1h-1.5v-1.6h1.5v-2.1l2-0.6v2.7h2.2v1.6h-2.2v4.5c0 0.5 0.1 0.9 0.3 1.1s0.5 0.3 1 0.3c0.3 0 0.6-0.1 0.9-0.3V406.1z"/><path d="M125.1 397.2l-2.7 9h-2.1l-1.6-6.1c-0.1-0.2-0.1-0.5-0.1-0.8h0c0 0.2-0.1 0.5-0.2 0.8l-1.8 6.1h-2.1l-2.6-9h2.1l1.6 6.5c0.1 0.2 0.1 0.5 0.1 0.8h0.1c0-0.2 0.1-0.5 0.1-0.8l1.8-6.5h1.9l1.6 6.5c0.1 0.2 0.1 0.5 0.1 0.8h0.1c0-0.2 0.1-0.5 0.1-0.8l1.6-6.5H125.1z"/><path d="M127.6 395.3c-0.3 0-0.6-0.1-0.9-0.3s-0.4-0.5-0.4-0.8 0.1-0.6 0.4-0.8 0.5-0.3 0.9-0.3c0.3 0 0.6 0.1 0.9 0.3s0.4 0.5 0.4 0.8c0 0.3-0.1 0.6-0.4 0.8S127.9 395.3 127.6 395.3zM128.6 406.2h-2v-9h2V406.2z"/><path d="M130.7 405.9v-1.9c0.8 0.6 1.6 0.9 2.5 0.9 1.2 0 1.8-0.4 1.8-1.1 0-0.2-0.1-0.4-0.2-0.5s-0.2-0.3-0.4-0.4 -0.4-0.2-0.6-0.3 -0.5-0.2-0.8-0.3c-0.4-0.1-0.7-0.3-1-0.5s-0.5-0.3-0.7-0.6 -0.3-0.4-0.4-0.7 -0.1-0.6-0.1-0.9c0-0.4 0.1-0.8 0.3-1.1s0.5-0.6 0.8-0.8 0.7-0.4 1.2-0.5 0.9-0.2 1.4-0.2c0.8 0 1.6 0.1 2.2 0.4v1.8c-0.6-0.4-1.4-0.6-2.2-0.6 -0.3 0-0.5 0-0.7 0.1s-0.4 0.1-0.5 0.2 -0.3 0.2-0.3 0.3 -0.1 0.3-0.1 0.4c0 0.2 0 0.4 0.1 0.5s0.2 0.3 0.4 0.4 0.4 0.2 0.6 0.3 0.5 0.2 0.8 0.3c0.4 0.2 0.7 0.3 1 0.5s0.6 0.4 0.8 0.6 0.4 0.4 0.5 0.7 0.2 0.6 0.2 1c0 0.5-0.1 0.9-0.3 1.2s-0.5 0.6-0.8 0.8 -0.8 0.4-1.2 0.5 -0.9 0.2-1.5 0.2C132.3 406.4 131.4 406.2 130.7 405.9z"/><path d="M143.8 406.1c-0.4 0.2-0.9 0.3-1.6 0.3 -1.7 0-2.6-0.8-2.6-2.5v-5.1h-1.5v-1.6h1.5v-2.1l2-0.6v2.7h2.2v1.6h-2.2v4.5c0 0.5 0.1 0.9 0.3 1.1s0.5 0.3 1 0.3c0.3 0 0.6-0.1 0.9-0.3V406.1z"/><path d="M146.3 402.6c-0.1-0.1-0.1-0.3-0.1-0.6s-0.1-0.5-0.1-0.7c0-0.4 0.1-0.7 0.2-1s0.3-0.6 0.5-0.8 0.4-0.5 0.7-0.7 0.5-0.5 0.7-0.7 0.4-0.5 0.5-0.7 0.2-0.5 0.2-0.8c0-0.3-0.1-0.5-0.2-0.7s-0.2-0.4-0.4-0.5 -0.4-0.2-0.6-0.3 -0.5-0.1-0.8-0.1c-0.9 0-1.7 0.4-2.5 1.2v-2c1-0.6 2-0.8 3-0.8 0.5 0 0.9 0.1 1.3 0.2s0.8 0.3 1.1 0.5 0.6 0.5 0.7 0.9 0.3 0.8 0.3 1.2c0 0.5-0.1 0.9-0.2 1.2s-0.3 0.7-0.6 1 -0.5 0.6-0.7 0.8 -0.5 0.5-0.7 0.7 -0.4 0.5-0.6 0.7 -0.2 0.5-0.2 0.8c0 0.3 0 0.5 0.1 0.7s0.1 0.4 0.2 0.5H146.3zM147.3 406.4c-0.3 0-0.6-0.1-0.9-0.3 -0.2-0.2-0.4-0.5-0.4-0.8 0-0.3 0.1-0.6 0.4-0.8 0.3-0.2 0.5-0.4 0.9-0.4 0.3 0 0.6 0.1 0.9 0.4 0.2 0.2 0.4 0.5 0.4 0.8 0 0.3-0.1 0.6-0.4 0.8C147.9 406.2 147.6 406.4 147.3 406.4z"/><path d="M155.4 393.3l-1.4 3.9h-1.3l1-3.9H155.4zM158.5 393.3l-1.4 3.9h-1.4l1-3.9H158.5z"/><rect x="119.5" y="426" fill="#000" width="3" height="69.4"/><polygon fill="#000" points="115.1 492.1 121 502.5 127 492.1 "/><path d="M252.1 398.8h-3.6v10.3h-2.8v-10.3h-3.6v-2.3h10V398.8z"/><path d="M104.2 469.9v-2.8c0.5 0.4 1.1 0.7 1.7 1s1.2 0.3 1.8 0.3c0.4 0 0.7 0 0.9-0.1s0.5-0.2 0.7-0.3 0.3-0.2 0.4-0.4 0.1-0.3 0.1-0.5c0-0.2-0.1-0.5-0.2-0.7s-0.3-0.4-0.6-0.5 -0.5-0.3-0.9-0.5 -0.7-0.3-1.1-0.5c-1-0.4-1.7-0.9-2.2-1.5s-0.7-1.3-0.7-2.1c0-0.7 0.1-1.2 0.4-1.7s0.6-0.9 1.1-1.2 1-0.5 1.6-0.7 1.2-0.2 1.9-0.2c0.7 0 1.2 0 1.7 0.1s1 0.2 1.4 0.4v2.6c-0.2-0.1-0.4-0.3-0.7-0.4s-0.5-0.2-0.8-0.3 -0.5-0.1-0.8-0.2 -0.5-0.1-0.7-0.1c-0.3 0-0.6 0-0.9 0.1s-0.5 0.1-0.7 0.3 -0.3 0.2-0.4 0.4 -0.1 0.3-0.1 0.5c0 0.2 0.1 0.4 0.2 0.6s0.3 0.3 0.5 0.5 0.5 0.3 0.7 0.4 0.6 0.3 1 0.4c0.5 0.2 1 0.4 1.4 0.7s0.7 0.5 1 0.8 0.5 0.6 0.7 1 0.2 0.8 0.2 1.3c0 0.7-0.1 1.3-0.4 1.8s-0.6 0.9-1.1 1.2 -1 0.5-1.6 0.6 -1.2 0.2-1.9 0.2c-0.7 0-1.3-0.1-2-0.2S104.7 470.1 104.2 469.9z"/><path fill="#000" d="M198 505.5v69h-154v-69H198M201 502.5h-160v75h160V502.5L201 502.5z"/><path d="M66.6 534.1c-0.9 0.5-2.1 0.7-3.5 0.7 -1.8 0-3.3-0.6-4.4-1.7s-1.7-2.7-1.7-4.5c0-2 0.6-3.6 1.9-4.9s2.8-1.9 4.7-1.9c1.2 0 2.2 0.2 3 0.5v2.1c-0.8-0.5-1.8-0.8-2.8-0.8 -1.4 0-2.5 0.4-3.3 1.3s-1.3 2-1.3 3.5c0 1.4 0.4 2.5 1.2 3.3 0.8 0.8 1.8 1.2 3.1 1.2 1.2 0 2.2-0.3 3.1-0.8V534.1z"/><path d="M72.7 534.8c-1.4 0-2.5-0.4-3.3-1.3 -0.8-0.8-1.2-2-1.2-3.3 0-1.5 0.4-2.7 1.3-3.5s2-1.3 3.5-1.3c1.4 0 2.5 0.4 3.3 1.2s1.2 2 1.2 3.4c0 1.4-0.4 2.6-1.3 3.4C75.3 534.4 74.2 534.8 72.7 534.8zM72.8 527c-0.8 0-1.4 0.3-1.9 0.8s-0.7 1.3-0.7 2.3c0 0.9 0.2 1.7 0.7 2.2 0.5 0.5 1.1 0.8 1.9 0.8 0.8 0 1.4-0.3 1.9-0.8s0.6-1.3 0.6-2.3c0-1-0.2-1.8-0.6-2.3S73.6 527 72.8 527z"/><path d="M92.9 534.6h-2v-4.9c0-0.9-0.1-1.6-0.4-2s-0.7-0.6-1.3-0.6c-0.5 0-1 0.3-1.4 0.8s-0.6 1.2-0.6 1.9v4.9h-2v-5.1c0-1.7-0.6-2.5-1.8-2.5 -0.6 0-1 0.3-1.4 0.8s-0.5 1.2-0.5 2v4.9h-2v-9h2v1.4h0c0.7-1.1 1.6-1.6 2.8-1.6 0.6 0 1.2 0.2 1.6 0.5 0.5 0.3 0.8 0.8 1 1.4 0.7-1.2 1.7-1.9 3-1.9 2 0 3 1.2 3 3.7V534.6z"/><path d="M97.5 533.3h0v5.5h-2v-13.1h2v1.6h0c0.7-1.2 1.7-1.8 3.1-1.8 1.1 0 2 0.4 2.7 1.2s1 1.9 1 3.2c0 1.5-0.4 2.7-1.1 3.6s-1.7 1.4-3 1.4C99 534.8 98.1 534.3 97.5 533.3zM97.4 529.7v1.1c0 0.7 0.2 1.2 0.6 1.7s1 0.7 1.6 0.7c0.8 0 1.3-0.3 1.8-0.9 0.4-0.6 0.6-1.4 0.6-2.5 0-0.9-0.2-1.6-0.6-2.1 -0.4-0.5-0.9-0.8-1.6-0.8 -0.7 0-1.3 0.3-1.8 0.8S97.4 528.9 97.4 529.7z"/><path d="M108.3 534.6h-2v-13.3h2V534.6z"/><path d="M118.6 530.6h-6.1c0 0.8 0.3 1.5 0.8 1.9s1.2 0.7 2 0.7c1 0 1.8-0.3 2.6-0.9v1.6c-0.8 0.5-1.9 0.8-3.3 0.8 -1.3 0-2.4-0.4-3.1-1.2 -0.8-0.8-1.1-2-1.1-3.4 0-1.4 0.4-2.5 1.2-3.4 0.8-0.9 1.9-1.3 3.1-1.3s2.2 0.4 2.9 1.2 1 1.9 1 3.3V530.6zM116.6 529.2c0-0.7-0.2-1.3-0.5-1.7 -0.3-0.4-0.8-0.6-1.4-0.6 -0.6 0-1.1 0.2-1.5 0.6s-0.7 1-0.8 1.7H116.6z"/><path d="M125.3 534.5c-0.4 0.2-0.9 0.3-1.6 0.3 -1.7 0-2.6-0.8-2.6-2.5v-5.1h-1.5v-1.6h1.5v-2.1l2-0.6v2.7h2.2v1.6h-2.2v4.5c0 0.5 0.1 0.9 0.3 1.1s0.5 0.3 1 0.3c0.3 0 0.6-0.1 0.9-0.3V534.5z"/><path d="M134.6 530.6h-6.1c0 0.8 0.3 1.5 0.8 1.9s1.2 0.7 2 0.7c1 0 1.8-0.3 2.6-0.9v1.6c-0.8 0.5-1.9 0.8-3.3 0.8 -1.3 0-2.4-0.4-3.1-1.2 -0.8-0.8-1.1-2-1.1-3.4 0-1.4 0.4-2.5 1.2-3.4 0.8-0.9 1.9-1.3 3.1-1.3s2.2 0.4 2.9 1.2 1 1.9 1 3.3V530.6zM132.6 529.2c0-0.7-0.2-1.3-0.5-1.7 -0.3-0.4-0.8-0.6-1.4-0.6 -0.6 0-1.1 0.2-1.5 0.6s-0.7 1-0.8 1.7H132.6z"/><path d="M149.6 533.9c0 3.3-1.7 5-5 5 -1.2 0-2.2-0.2-3.1-0.6v-1.9c1 0.6 1.9 0.8 2.8 0.8 2.1 0 3.2-1.1 3.2-3.2v-1h0c-0.7 1.1-1.7 1.7-3 1.7 -1.1 0-2-0.4-2.6-1.2 -0.7-0.8-1-1.9-1-3.2 0-1.5 0.4-2.7 1.1-3.6s1.7-1.4 3-1.4c1.2 0 2.1 0.5 2.6 1.5h0v-1.2h2V533.9zM147.6 530.5v-1.2c0-0.6-0.2-1.2-0.6-1.6 -0.4-0.4-0.9-0.7-1.6-0.7 -0.8 0-1.4 0.3-1.8 0.9 -0.4 0.6-0.7 1.4-0.7 2.4 0 0.9 0.2 1.6 0.6 2.1 0.4 0.5 1 0.8 1.7 0.8 0.7 0 1.3-0.3 1.7-0.8C147.4 531.9 147.6 531.3 147.6 530.5z"/><path d="M159.2 534.6h-2v-1.4h0c-0.6 1.1-1.5 1.6-2.7 1.6 -0.9 0-1.6-0.2-2.1-0.7s-0.8-1.1-0.8-1.9c0-1.7 1-2.7 2.9-3l2.7-0.4c0-1.3-0.6-1.9-1.8-1.9 -1.1 0-2 0.4-2.9 1.1v-1.8c0.9-0.6 2-0.8 3.3-0.8 2.3 0 3.4 1.1 3.4 3.4V534.6zM157.2 530.2l-1.9 0.3c-0.6 0.1-1 0.2-1.3 0.4 -0.3 0.2-0.4 0.6-0.4 1.1 0 0.4 0.1 0.7 0.4 0.9 0.3 0.2 0.6 0.4 1.1 0.4 0.6 0 1.1-0.2 1.5-0.7 0.4-0.4 0.6-1 0.6-1.6V530.2z"/><path d="M175.1 534.6h-2v-4.9c0-0.9-0.1-1.6-0.4-2s-0.7-0.6-1.3-0.6c-0.5 0-1 0.3-1.4 0.8s-0.6 1.2-0.6 1.9v4.9h-2v-5.1c0-1.7-0.6-2.5-1.8-2.5 -0.6 0-1 0.3-1.4 0.8s-0.5 1.2-0.5 2v4.9h-2v-9h2v1.4h0c0.7-1.1 1.6-1.6 2.8-1.6 0.6 0 1.2 0.2 1.6 0.5 0.5 0.3 0.8 0.8 1 1.4 0.7-1.2 1.7-1.9 3-1.9 2 0 3 1.2 3 3.7V534.6z"/><path d="M185.3 530.6h-6.1c0 0.8 0.3 1.5 0.8 1.9s1.2 0.7 2 0.7c1 0 1.8-0.3 2.6-0.9v1.6c-0.8 0.5-1.9 0.8-3.3 0.8 -1.3 0-2.4-0.4-3.1-1.2 -0.8-0.8-1.1-2-1.1-3.4 0-1.4 0.4-2.5 1.2-3.4 0.8-0.9 1.9-1.3 3.1-1.3s2.2 0.4 2.9 1.2 1 1.9 1 3.3V530.6zM183.3 529.2c0-0.7-0.2-1.3-0.5-1.7 -0.3-0.4-0.8-0.6-1.4-0.6 -0.6 0-1.1 0.2-1.5 0.6s-0.7 1-0.8 1.7H183.3z"/><path d="M80.3 556.2h-2v-1.4h0c-0.6 1.1-1.5 1.6-2.7 1.6 -0.9 0-1.6-0.2-2.1-0.7s-0.8-1.1-0.8-1.9c0-1.7 1-2.7 2.9-3l2.7-0.4c0-1.3-0.6-1.9-1.8-1.9 -1.1 0-2 0.4-2.9 1.1v-1.8c0.9-0.6 2-0.8 3.3-0.8 2.3 0 3.4 1.1 3.4 3.4V556.2zM78.3 551.8l-1.9 0.3c-0.6 0.1-1 0.2-1.3 0.4s-0.4 0.6-0.4 1.1c0 0.4 0.1 0.7 0.4 0.9s0.6 0.4 1.1 0.4c0.6 0 1.1-0.2 1.5-0.7s0.6-1 0.6-1.6V551.8z"/><path d="M82.2 555.9v-1.9c0.8 0.6 1.6 0.9 2.5 0.9 1.2 0 1.8-0.4 1.8-1.1 0-0.2-0.1-0.4-0.2-0.5s-0.2-0.3-0.4-0.4 -0.4-0.2-0.6-0.3 -0.5-0.2-0.8-0.3c-0.4-0.1-0.7-0.3-1-0.5s-0.5-0.3-0.7-0.6 -0.3-0.4-0.4-0.7 -0.1-0.6-0.1-0.9c0-0.4 0.1-0.8 0.3-1.1s0.5-0.6 0.8-0.8 0.7-0.4 1.2-0.5 0.9-0.2 1.4-0.2c0.8 0 1.6 0.1 2.2 0.4v1.8c-0.6-0.4-1.4-0.6-2.2-0.6 -0.3 0-0.5 0-0.7 0.1s-0.4 0.1-0.5 0.2 -0.3 0.2-0.3 0.3 -0.1 0.3-0.1 0.4c0 0.2 0 0.4 0.1 0.5s0.2 0.3 0.4 0.4 0.4 0.2 0.6 0.3 0.5 0.2 0.8 0.3c0.4 0.2 0.7 0.3 1 0.5s0.6 0.4 0.8 0.6 0.4 0.4 0.5 0.7 0.2 0.6 0.2 1c0 0.5-0.1 0.9-0.3 1.2s-0.5 0.6-0.8 0.8 -0.8 0.4-1.2 0.5 -0.9 0.2-1.5 0.2C83.8 556.4 83 556.2 82.2 555.9z"/><path d="M106.1 556.2h-2.3l-1.1-3.2h-5l-1.1 3.2h-2.3l4.7-12.6h2.4L106.1 556.2zM102.1 551.3l-1.7-5c-0.1-0.2-0.1-0.4-0.2-0.8h0c-0.1 0.3-0.1 0.6-0.2 0.8l-1.7 5H102.1z"/><path d="M111.1 543.6v1.7h-1.2v9.2h1.2v1.7h-4.4v-1.7h1.2v-9.2h-1.2v-1.7H111.1z"/><path d="M125.9 556.2h-2v-1.5h0c-0.7 1.2-1.7 1.7-3 1.7 -1.1 0-2-0.4-2.7-1.2s-1-1.9-1-3.3c0-1.5 0.4-2.7 1.1-3.6s1.7-1.3 2.9-1.3c1.2 0 2.1 0.5 2.6 1.5h0v-5.6h2V556.2zM123.9 552.1V550.9c0-0.6-0.2-1.2-0.6-1.6s-0.9-0.7-1.6-0.7c-0.8 0-1.4 0.3-1.8 0.9s-0.7 1.4-0.7 2.4c0 0.9 0.2 1.6 0.6 2.2s1 0.8 1.7 0.8c0.7 0 1.3-0.3 1.7-0.8S123.9 552.9 123.9 552.1z"/><path d="M136.2 552.2h-6.1c0 0.8 0.3 1.5 0.8 1.9s1.2 0.7 2 0.7c1 0 1.8-0.3 2.6-0.9v1.6c-0.8 0.5-1.9 0.8-3.3 0.8 -1.3 0-2.4-0.4-3.1-1.2s-1.1-2-1.1-3.4c0-1.4 0.4-2.5 1.2-3.4s1.9-1.3 3.1-1.3 2.2 0.4 2.9 1.2 1 1.9 1 3.3V552.2zM134.2 550.8c0-0.7-0.2-1.3-0.5-1.7s-0.8-0.6-1.4-0.6c-0.6 0-1.1 0.2-1.5 0.6s-0.7 1-0.8 1.7H134.2z"/><path d="M145.1 556.2h-2v-1.4h0c-0.6 1.1-1.5 1.6-2.7 1.6 -0.9 0-1.6-0.2-2.1-0.7s-0.8-1.1-0.8-1.9c0-1.7 1-2.7 2.9-3l2.7-0.4c0-1.3-0.6-1.9-1.8-1.9 -1.1 0-2 0.4-2.9 1.1v-1.8c0.9-0.6 2-0.8 3.3-0.8 2.3 0 3.4 1.1 3.4 3.4V556.2zM143.1 551.8l-1.9 0.3c-0.6 0.1-1 0.2-1.3 0.4s-0.4 0.6-0.4 1.1c0 0.4 0.1 0.7 0.4 0.9s0.6 0.4 1.1 0.4c0.6 0 1.1-0.2 1.5-0.7s0.6-1 0.6-1.6V551.8z"/><path d="M149.6 556.2h-2v-13.3h2V556.2z"/><path d="M159.9 552.2h-6.1c0 0.8 0.3 1.5 0.8 1.9s1.2 0.7 2 0.7c1 0 1.8-0.3 2.6-0.9v1.6c-0.8 0.5-1.9 0.8-3.3 0.8 -1.3 0-2.4-0.4-3.1-1.2s-1.1-2-1.1-3.4c0-1.4 0.4-2.5 1.2-3.4s1.9-1.3 3.1-1.3 2.2 0.4 2.9 1.2 1 1.9 1 3.3V552.2zM157.9 550.8c0-0.7-0.2-1.3-0.5-1.7s-0.8-0.6-1.4-0.6c-0.6 0-1.1 0.2-1.5 0.6s-0.7 1-0.8 1.7H157.9z"/><path d="M167 549.1c-0.2-0.2-0.6-0.3-1.1-0.3 -0.6 0-1.1 0.3-1.5 0.8s-0.6 1.3-0.6 2.2v4.3h-2v-9h2v1.9h0c0.2-0.6 0.5-1.1 0.9-1.5s0.9-0.5 1.4-0.5c0.4 0 0.7 0.1 0.8 0.2V549.1z"/><path d="M167.9 556.4c-0.4 0-0.6-0.1-0.9-0.3s-0.4-0.5-0.4-0.8c0-0.3 0.1-0.6 0.4-0.8s0.5-0.4 0.9-0.4c0.4 0 0.7 0.1 0.9 0.4s0.4 0.5 0.4 0.8c0 0.3-0.1 0.6-0.4 0.8S168.2 556.4 167.9 556.4z"/><polygon fill="#000" points="188.9 616.5 119.5 616.5 119.5 576 122.5 576 122.5 613.5 188.9 613.5 "/><polygon fill="#000" points="185.7 609 196 615 185.7 621 "/><path fill="#000" d="M316 562.1L429 615l-112.9 52.9L203.1 615 316 562.1M316 558.8l-120 56.3 120 56.3 120-56.2L316 558.8 316 558.8z"/><path d="M269.2 609.6h-2.1v-5.5h-5.9v5.5h-2.1v-12.6h2.1v5.3h5.9v-5.3h2.1V609.6z"/><path d="M279 609.6h-2v-1.4h0c-0.6 1.1-1.5 1.6-2.7 1.6 -0.9 0-1.6-0.2-2.1-0.7s-0.8-1.1-0.8-1.9c0-1.7 1-2.7 2.9-3l2.7-0.4c0-1.3-0.6-1.9-1.8-1.9 -1.1 0-2 0.4-2.9 1.1v-1.8c0.9-0.6 2-0.8 3.3-0.8 2.3 0 3.4 1.1 3.4 3.4V609.6zM277 605.2l-1.9 0.3c-0.6 0.1-1 0.2-1.3 0.4s-0.4 0.6-0.4 1.1c0 0.4 0.1 0.7 0.4 0.9s0.6 0.4 1.1 0.4c0.6 0 1.1-0.2 1.5-0.7s0.6-1 0.6-1.6V605.2z"/><path d="M280.9 609.3v-1.9c0.8 0.6 1.6 0.9 2.5 0.9 1.2 0 1.8-0.4 1.8-1.1 0-0.2-0.1-0.4-0.2-0.5s-0.2-0.3-0.4-0.4 -0.4-0.2-0.6-0.3 -0.5-0.2-0.8-0.3c-0.4-0.1-0.7-0.3-1-0.5s-0.5-0.3-0.7-0.6 -0.3-0.4-0.4-0.7 -0.1-0.6-0.1-0.9c0-0.4 0.1-0.8 0.3-1.1s0.5-0.6 0.8-0.8 0.7-0.4 1.2-0.5 0.9-0.2 1.4-0.2c0.8 0 1.6 0.1 2.2 0.4v1.8c-0.6-0.4-1.4-0.6-2.2-0.6 -0.3 0-0.5 0-0.7 0.1s-0.4 0.1-0.5 0.2 -0.3 0.2-0.3 0.3 -0.1 0.3-0.1 0.4c0 0.2 0 0.4 0.1 0.5s0.2 0.3 0.4 0.4 0.4 0.2 0.6 0.3 0.5 0.2 0.8 0.3c0.4 0.2 0.7 0.3 1 0.5s0.6 0.4 0.8 0.6 0.4 0.4 0.5 0.7 0.2 0.6 0.2 1c0 0.5-0.1 0.9-0.3 1.2s-0.5 0.6-0.8 0.8 -0.8 0.4-1.2 0.5 -0.9 0.2-1.5 0.2C282.5 609.8 281.7 609.6 280.9 609.3z"/><path d="M299 609.5c-0.4 0.2-0.9 0.3-1.6 0.3 -1.7 0-2.6-0.8-2.6-2.5v-5.1h-1.5v-1.6h1.5v-2.1l2-0.6v2.7h2.2v1.6H296.8v4.5c0 0.5 0.1 0.9 0.3 1.1s0.5 0.3 1 0.3c0.3 0 0.6-0.1 0.9-0.3V609.5z"/><path d="M308.7 609.6h-2v-4.9c0-1.8-0.6-2.7-1.8-2.7 -0.6 0-1.1 0.3-1.5 0.8s-0.6 1.2-0.6 2v4.8h-2v-13.3h2v5.8h0c0.7-1.1 1.7-1.7 2.9-1.7 2 0 3 1.2 3 3.7V609.6z"/><path d="M318.8 605.6h-6.1c0 0.8 0.3 1.5 0.8 1.9s1.2 0.7 2 0.7c1 0 1.8-0.3 2.6-0.9v1.6c-0.8 0.5-1.9 0.8-3.3 0.8 -1.3 0-2.4-0.4-3.1-1.2s-1.1-2-1.1-3.4c0-1.4 0.4-2.5 1.2-3.4s1.9-1.3 3.1-1.3 2.2 0.4 2.9 1.2 1 1.9 1 3.3V605.6zM316.8 604.2c0-0.7-0.2-1.3-0.5-1.7s-0.8-0.6-1.4-0.6c-0.6 0-1.1 0.2-1.5 0.6s-0.7 1-0.8 1.7H316.8z"/><path d="M327.8 608.3h0v5.5h-2v-13.1h2v1.6h0c0.7-1.2 1.7-1.8 3.1-1.8 1.1 0 2 0.4 2.7 1.2s1 1.9 1 3.2c0 1.5-0.4 2.7-1.1 3.6s-1.7 1.4-3 1.4C329.3 609.8 328.4 609.3 327.8 608.3zM327.7 604.7v1.1c0 0.7 0.2 1.2 0.6 1.7s1 0.7 1.6 0.7c0.8 0 1.3-0.3 1.8-0.9s0.6-1.4 0.6-2.5c0-0.9-0.2-1.6-0.6-2.1s-0.9-0.8-1.6-0.8c-0.7 0-1.3 0.3-1.8 0.8S327.7 603.9 327.7 604.7z"/><path d="M338.6 609.6h-2v-13.3h2V609.6z"/><path d="M348.2 609.6h-2v-1.4h0c-0.6 1.1-1.5 1.6-2.7 1.6 -0.9 0-1.6-0.2-2.1-0.7s-0.8-1.1-0.8-1.9c0-1.7 1-2.7 2.9-3l2.7-0.4c0-1.3-0.6-1.9-1.8-1.9 -1.1 0-2 0.4-2.9 1.1v-1.8c0.9-0.6 2-0.8 3.3-0.8 2.3 0 3.4 1.1 3.4 3.4V609.6zM346.2 605.2l-1.9 0.3c-0.6 0.1-1 0.2-1.3 0.4s-0.4 0.6-0.4 1.1c0 0.4 0.1 0.7 0.4 0.9s0.6 0.4 1.1 0.4c0.6 0 1.1-0.2 1.5-0.7s0.6-1 0.6-1.6V605.2z"/><path d="M358.4 600.6l-4.1 10.4c-0.8 1.9-2 2.8-3.6 2.8 -0.4 0-0.8 0-1.1-0.1v-1.7c0.3 0.1 0.6 0.2 0.9 0.2 0.8 0 1.3-0.4 1.7-1.1l0.6-1.5 -3.6-9h2.3l2.1 6.5c0 0.1 0.1 0.3 0.2 0.7h0c0-0.1 0.1-0.3 0.2-0.6l2.3-6.6H358.4z"/><path d="M367.3 605.6h-6.1c0 0.8 0.3 1.5 0.8 1.9s1.2 0.7 2 0.7c1 0 1.8-0.3 2.6-0.9v1.6c-0.8 0.5-1.9 0.8-3.3 0.8 -1.3 0-2.4-0.4-3.1-1.2s-1.1-2-1.1-3.4c0-1.4 0.4-2.5 1.2-3.4s1.9-1.3 3.1-1.3 2.2 0.4 2.9 1.2 1 1.9 1 3.3V605.6zM365.3 604.2c0-0.7-0.2-1.3-0.5-1.7s-0.8-0.6-1.4-0.6c-0.6 0-1.1 0.2-1.5 0.6s-0.7 1-0.8 1.7H365.3z"/><path d="M374.4 602.5c-0.2-0.2-0.6-0.3-1.1-0.3 -0.6 0-1.1 0.3-1.5 0.8s-0.6 1.3-0.6 2.2v4.3h-2v-9h2v1.9h0c0.2-0.6 0.5-1.1 0.9-1.5s0.9-0.5 1.4-0.5c0.4 0 0.7 0.1 0.8 0.2V602.5z"/><path d="M257 630.9v-1.9c0.8 0.6 1.6 0.9 2.5 0.9 1.2 0 1.8-0.4 1.8-1.1 0-0.2-0.1-0.4-0.2-0.5 -0.1-0.1-0.2-0.3-0.4-0.4s-0.4-0.2-0.6-0.3 -0.5-0.2-0.8-0.3c-0.4-0.1-0.7-0.3-1-0.5s-0.5-0.4-0.7-0.6c-0.2-0.2-0.3-0.4-0.4-0.7s-0.1-0.6-0.1-0.9c0-0.4 0.1-0.8 0.3-1.1 0.2-0.3 0.5-0.6 0.8-0.8 0.3-0.2 0.7-0.4 1.2-0.5 0.4-0.1 0.9-0.2 1.4-0.2 0.8 0 1.6 0.1 2.2 0.4v1.8c-0.6-0.4-1.4-0.6-2.2-0.6 -0.3 0-0.5 0-0.7 0.1s-0.4 0.1-0.5 0.2 -0.3 0.2-0.3 0.3c-0.1 0.1-0.1 0.3-0.1 0.4 0 0.2 0 0.4 0.1 0.5s0.2 0.3 0.4 0.4c0.2 0.1 0.4 0.2 0.6 0.3 0.2 0.1 0.5 0.2 0.8 0.3 0.4 0.2 0.7 0.3 1 0.5s0.6 0.4 0.8 0.6c0.2 0.2 0.4 0.4 0.5 0.7 0.1 0.3 0.2 0.6 0.2 1 0 0.5-0.1 0.9-0.3 1.2s-0.5 0.6-0.8 0.8 -0.8 0.4-1.2 0.5c-0.5 0.1-0.9 0.2-1.5 0.2C258.6 631.4 257.8 631.2 257 630.9z"/><path d="M271.8 630.8c-0.7 0.4-1.6 0.6-2.6 0.6 -1.3 0-2.4-0.4-3.2-1.3 -0.8-0.8-1.2-1.9-1.2-3.2 0-1.5 0.4-2.7 1.3-3.6 0.9-0.9 2.1-1.3 3.5-1.3 0.8 0 1.5 0.1 2.2 0.4v1.9c-0.6-0.5-1.3-0.7-2-0.7 -0.9 0-1.6 0.3-2.1 0.9 -0.6 0.6-0.8 1.3-0.8 2.3 0 0.9 0.3 1.7 0.8 2.2s1.2 0.8 2.1 0.8c0.7 0 1.4-0.3 2.1-0.8V630.8z"/><path d="M277.8 631.4c-1.4 0-2.5-0.4-3.3-1.3 -0.8-0.8-1.2-2-1.2-3.3 0-1.5 0.4-2.7 1.3-3.5s2-1.3 3.5-1.3c1.4 0 2.5 0.4 3.3 1.2s1.2 2 1.2 3.4c0 1.4-0.4 2.6-1.3 3.5C280.4 631 279.2 631.4 277.8 631.4zM277.9 623.6c-0.8 0-1.4 0.3-1.9 0.8s-0.7 1.3-0.7 2.3c0 0.9 0.2 1.7 0.7 2.2 0.5 0.5 1.1 0.8 1.9 0.8 0.8 0 1.4-0.3 1.9-0.8s0.6-1.3 0.6-2.3c0-1-0.2-1.8-0.6-2.3S278.7 623.6 277.9 623.6z"/><path d="M289.8 624.1c-0.2-0.2-0.6-0.3-1.1-0.3 -0.6 0-1.1 0.3-1.5 0.8s-0.6 1.3-0.6 2.2v4.3h-2v-9h2v1.9h0c0.2-0.6 0.5-1.1 0.9-1.5 0.4-0.4 0.9-0.5 1.4-0.5 0.4 0 0.7 0.1 0.8 0.2V624.1z"/><path d="M298.7 627.2h-6.1c0 0.8 0.3 1.5 0.8 1.9s1.2 0.7 2 0.7c1 0 1.8-0.3 2.6-0.9v1.6c-0.8 0.5-1.9 0.8-3.3 0.8 -1.3 0-2.4-0.4-3.1-1.2 -0.8-0.8-1.1-2-1.1-3.4 0-1.4 0.4-2.5 1.2-3.4 0.8-0.9 1.9-1.3 3.1-1.3s2.2 0.4 2.9 1.2 1 1.9 1 3.3V627.2zM296.7 625.8c0-0.7-0.2-1.3-0.5-1.7 -0.3-0.4-0.8-0.6-1.4-0.6 -0.6 0-1.1 0.2-1.5 0.6s-0.7 1-0.8 1.7H296.7z"/><path d="M308.8 631.2h-2v-1.5h0c-0.7 1.2-1.7 1.7-3 1.7 -1.1 0-2-0.4-2.7-1.2 -0.7-0.8-1-1.9-1-3.3 0-1.5 0.4-2.7 1.1-3.6s1.7-1.3 2.9-1.3c1.2 0 2.1 0.5 2.6 1.5h0v-5.6h2V631.2zM306.8 627.1v-1.2c0-0.6-0.2-1.2-0.6-1.6s-0.9-0.7-1.6-0.7c-0.8 0-1.4 0.3-1.8 0.9s-0.7 1.4-0.7 2.4c0 0.9 0.2 1.6 0.6 2.2 0.4 0.5 1 0.8 1.7 0.8 0.7 0 1.3-0.3 1.7-0.8C306.6 628.5 306.8 627.9 306.8 627.1z"/><path d="M324.4 631.2h-2v-4.9c0-1.8-0.6-2.7-1.8-2.7 -0.6 0-1.1 0.3-1.5 0.8s-0.6 1.2-0.6 2v4.8h-2v-13.3h2v5.8h0c0.7-1.1 1.7-1.7 2.9-1.7 2 0 3 1.2 3 3.7V631.2z"/><path d="M327.9 620.3c-0.3 0-0.6-0.1-0.9-0.3s-0.4-0.5-0.4-0.8 0.1-0.6 0.4-0.8 0.5-0.3 0.9-0.3c0.3 0 0.6 0.1 0.9 0.3s0.4 0.5 0.4 0.8c0 0.3-0.1 0.6-0.4 0.8C328.6 620.2 328.3 620.3 327.9 620.3zM329 631.2h-2v-9h2V631.2z"/><path d="M339.8 630.5c0 3.3-1.7 5-5 5 -1.2 0-2.2-0.2-3.1-0.6v-1.9c1 0.6 1.9 0.8 2.8 0.8 2.1 0 3.2-1.1 3.2-3.2v-1h0c-0.7 1.1-1.7 1.7-3 1.7 -1.1 0-2-0.4-2.6-1.2 -0.7-0.8-1-1.9-1-3.2 0-1.5 0.4-2.7 1.1-3.6s1.7-1.4 3-1.4c1.2 0 2.1 0.5 2.6 1.5h0v-1.2h2V630.5zM337.8 627.1v-1.2c0-0.6-0.2-1.2-0.6-1.6 -0.4-0.4-0.9-0.7-1.6-0.7 -0.8 0-1.4 0.3-1.8 0.9 -0.4 0.6-0.7 1.4-0.7 2.4 0 0.9 0.2 1.6 0.6 2.1 0.4 0.5 1 0.8 1.7 0.8 0.7 0 1.3-0.3 1.7-0.8C337.6 628.5 337.8 627.9 337.8 627.1z"/><path d="M350.5 631.2h-2v-4.9c0-1.8-0.6-2.7-1.8-2.7 -0.6 0-1.1 0.3-1.5 0.8s-0.6 1.2-0.6 2v4.8h-2v-13.3h2v5.8h0c0.7-1.1 1.7-1.7 2.9-1.7 2 0 3 1.2 3 3.7V631.2z"/><path d="M360.6 627.2h-6.1c0 0.8 0.3 1.5 0.8 1.9s1.2 0.7 2 0.7c1 0 1.8-0.3 2.6-0.9v1.6c-0.8 0.5-1.9 0.8-3.3 0.8 -1.3 0-2.4-0.4-3.1-1.2 -0.8-0.8-1.1-2-1.1-3.4 0-1.4 0.4-2.5 1.2-3.4 0.8-0.9 1.9-1.3 3.1-1.3s2.2 0.4 2.9 1.2 1 1.9 1 3.3V627.2zM358.6 625.8c0-0.7-0.2-1.3-0.5-1.7 -0.3-0.4-0.8-0.6-1.4-0.6 -0.6 0-1.1 0.2-1.5 0.6s-0.7 1-0.8 1.7H358.6z"/><path d="M367.7 624.1c-0.2-0.2-0.6-0.3-1.1-0.3 -0.6 0-1.1 0.3-1.5 0.8s-0.6 1.3-0.6 2.2v4.3h-2v-9h2v1.9h0c0.2-0.6 0.5-1.1 0.9-1.5 0.4-0.4 0.9-0.5 1.4-0.5 0.4 0 0.7 0.1 0.8 0.2V624.1z"/><path d="M370.5 627.6c-0.1-0.1-0.1-0.3-0.1-0.6s-0.1-0.5-0.1-0.7c0-0.4 0.1-0.7 0.2-1 0.1-0.3 0.3-0.6 0.5-0.8s0.4-0.5 0.7-0.7 0.5-0.5 0.7-0.7 0.4-0.5 0.5-0.7 0.2-0.5 0.2-0.8c0-0.3-0.1-0.5-0.2-0.7 -0.1-0.2-0.2-0.4-0.4-0.5 -0.2-0.1-0.4-0.2-0.6-0.3s-0.5-0.1-0.8-0.1c-0.9 0-1.7 0.4-2.5 1.2v-2c1-0.6 2-0.8 3-0.8 0.5 0 0.9 0.1 1.3 0.2s0.8 0.3 1.1 0.5 0.6 0.5 0.7 0.9 0.3 0.8 0.3 1.2c0 0.5-0.1 0.9-0.2 1.2s-0.3 0.7-0.6 1c-0.2 0.3-0.5 0.6-0.7 0.8s-0.5 0.5-0.7 0.7 -0.4 0.5-0.6 0.7 -0.2 0.5-0.2 0.8c0 0.3 0 0.5 0.1 0.7s0.1 0.4 0.2 0.5H370.5zM371.5 631.4c-0.3 0-0.6-0.1-0.9-0.3 -0.2-0.2-0.4-0.5-0.4-0.8 0-0.3 0.1-0.6 0.4-0.8 0.3-0.2 0.5-0.4 0.9-0.4 0.3 0 0.6 0.1 0.9 0.4 0.2 0.2 0.4 0.5 0.4 0.8 0 0.3-0.1 0.6-0.4 0.8C372.1 631.2 371.8 631.4 371.5 631.4z"/><rect x="434.5" y="613.5" fill="#000" width="69.4" height="3"/><polygon fill="#000" points="500.7 609 511 615 500.7 621 "/><path d="M478.7 598.7l-4.1 8v4.6h-2.1v-4.5l-4-8.1h2.4l2.5 5.4c0 0.1 0.1 0.3 0.3 0.7h0c0.1-0.2 0.1-0.4 0.3-0.7l2.6-5.4H478.7z"/><rect x="314.5" y="669.8" fill="#000" width="3" height="69.4"/><polygon fill="#000" points="310.1 735.9 316 746.3 322 735.9 "/><path d="M332.4 716.6h-2.3l-6-9.3c-0.2-0.2-0.3-0.5-0.4-0.7h-0.1c0 0.3 0.1 0.8 0.1 1.7v8.3H321.7v-12.6h2.4l5.8 9c0.2 0.4 0.4 0.6 0.5 0.8h0c-0.1-0.3-0.1-0.9-0.1-1.7v-8.1h2V716.6z"/><path fill="#000" d="M393 749.3v50.3h-154v-50.2H393M396 746.3h-160v56.3h160V746.3L396 746.3z"/><path fill="#AA1D1D" d="M289.8 767.2l-4.1 8v4.6h-2.1v-4.5l-4-8.1h2.4l2.5 5.4c0 0.1 0.1 0.3 0.3 0.7h0c0.1-0.2 0.1-0.4 0.3-0.7l2.6-5.4H289.8z"/><path fill="#AA1D1D" d="M293.5 780c-1.4 0-2.5-0.4-3.3-1.3s-1.2-2-1.2-3.3c0-1.5 0.4-2.7 1.3-3.5s2-1.3 3.5-1.3c1.4 0 2.5 0.4 3.3 1.2s1.2 2 1.2 3.4c0 1.4-0.4 2.6-1.3 3.4S295 780 293.5 780zM293.6 772.2c-0.8 0-1.4 0.3-1.9 0.8s-0.7 1.3-0.7 2.3c0 0.9 0.2 1.7 0.7 2.2s1.1 0.8 1.9 0.8c0.8 0 1.4-0.3 1.9-0.8s0.6-1.3 0.6-2.3c0-1-0.2-1.8-0.6-2.3S294.4 772.2 293.6 772.2z"/><path fill="#AA1D1D" d="M308.1 779.8h-2v-1.4h0c-0.6 1.1-1.5 1.6-2.8 1.6 -2.1 0-3.2-1.3-3.2-3.8v-5.4h2v5.2c0 1.6 0.6 2.4 1.9 2.4 0.6 0 1.1-0.2 1.5-0.7s0.6-1 0.6-1.7v-5.2h2V779.8z"/><path fill="#AA1D1D" d="M317.8 779.8h-2v-13.3h2V779.8z"/><path fill="#AA1D1D" d="M324.4 780c-1.4 0-2.5-0.4-3.3-1.3s-1.2-2-1.2-3.3c0-1.5 0.4-2.7 1.3-3.5s2-1.3 3.5-1.3c1.4 0 2.5 0.4 3.3 1.2s1.2 2 1.2 3.4c0 1.4-0.4 2.6-1.3 3.4S325.9 780 324.4 780zM324.5 772.2c-0.8 0-1.4 0.3-1.9 0.8s-0.7 1.3-0.7 2.3c0 0.9 0.2 1.7 0.7 2.2s1.1 0.8 1.9 0.8c0.8 0 1.4-0.3 1.9-0.8s0.6-1.3 0.6-2.3c0-1-0.2-1.8-0.6-2.3S325.3 772.2 324.5 772.2z"/><path fill="#AA1D1D" d="M330.6 779.5v-1.9c0.8 0.6 1.6 0.9 2.5 0.9 1.2 0 1.8-0.4 1.8-1.1 0-0.2-0.1-0.4-0.2-0.5s-0.2-0.3-0.4-0.4 -0.4-0.2-0.6-0.3 -0.5-0.2-0.8-0.3c-0.4-0.1-0.7-0.3-1-0.5s-0.5-0.4-0.7-0.6 -0.3-0.4-0.4-0.7 -0.1-0.6-0.1-0.9c0-0.4 0.1-0.8 0.3-1.1s0.5-0.6 0.8-0.8 0.7-0.4 1.2-0.5 0.9-0.2 1.4-0.2c0.8 0 1.6 0.1 2.2 0.4v1.8c-0.6-0.4-1.4-0.6-2.2-0.6 -0.3 0-0.5 0-0.7 0.1s-0.4 0.1-0.5 0.2 -0.3 0.2-0.3 0.3 -0.1 0.3-0.1 0.4c0 0.2 0 0.4 0.1 0.5s0.2 0.3 0.4 0.4 0.4 0.2 0.6 0.3 0.5 0.2 0.8 0.3c0.4 0.2 0.7 0.3 1 0.5s0.6 0.4 0.8 0.6 0.4 0.4 0.5 0.7 0.2 0.6 0.2 1c0 0.5-0.1 0.9-0.3 1.2s-0.5 0.6-0.8 0.8 -0.8 0.4-1.2 0.5 -0.9 0.2-1.5 0.2C332.2 780 331.4 779.8 330.6 779.5z"/><path fill="#AA1D1D" d="M346.6 775.8h-6.1c0 0.8 0.3 1.5 0.8 1.9s1.2 0.7 2 0.7c1 0 1.8-0.3 2.6-0.9v1.6c-0.8 0.5-1.9 0.8-3.3 0.8 -1.3 0-2.4-0.4-3.1-1.2s-1.1-2-1.1-3.4c0-1.4 0.4-2.5 1.2-3.4s1.9-1.3 3.1-1.3 2.2 0.4 2.9 1.2 1 1.9 1 3.3V775.8zM344.6 774.4c0-0.7-0.2-1.3-0.5-1.7s-0.8-0.6-1.4-0.6c-0.6 0-1.1 0.2-1.5 0.6s-0.7 1-0.8 1.7H344.6z"/><path fill="#AA1D1D" d="M349.9 779.9c-0.4 0-0.6-0.1-0.9-0.3s-0.4-0.5-0.4-0.8c0-0.3 0.1-0.6 0.4-0.9s0.5-0.4 0.9-0.4c0.3 0 0.6 0.1 0.9 0.4s0.4 0.5 0.4 0.9c0 0.3-0.1 0.6-0.4 0.8S350.3 779.9 349.9 779.9zM350.9 767.2l-0.2 8.9h-1.7l-0.2-8.9H350.9z"/><path fill="#000" d="M668 589.9v50.3h-154v-50.2H668M671 586.9h-160v56.3h160V586.9L671 586.9z"/><path fill="#637C15" d="M566.7 607.8l-4.1 8v4.6h-2.1v-4.5l-4-8.1h2.4l2.5 5.4c0 0.1 0.1 0.3 0.3 0.7h0c0.1-0.2 0.1-0.4 0.3-0.7l2.6-5.4H566.7z"/><path fill="#637C15" d="M570.5 620.6c-1.4 0-2.5-0.4-3.3-1.3 -0.8-0.8-1.2-2-1.2-3.3 0-1.5 0.4-2.7 1.3-3.5 0.9-0.8 2-1.3 3.5-1.3 1.4 0 2.5 0.4 3.3 1.2s1.2 2 1.2 3.4c0 1.4-0.4 2.6-1.3 3.4C573.1 620.2 571.9 620.6 570.5 620.6zM570.6 612.8c-0.8 0-1.4 0.3-1.9 0.8s-0.7 1.3-0.7 2.3c0 0.9 0.2 1.7 0.7 2.2s1.1 0.8 1.9 0.8c0.8 0 1.4-0.3 1.9-0.8 0.4-0.5 0.6-1.3 0.6-2.3 0-1-0.2-1.8-0.6-2.3C572 613.1 571.4 612.8 570.6 612.8z"/><path fill="#637C15" d="M585.1 620.4h-2v-1.4h0c-0.6 1.1-1.5 1.6-2.8 1.6 -2.1 0-3.2-1.3-3.2-3.8v-5.4h2v5.2c0 1.6 0.6 2.4 1.9 2.4 0.6 0 1.1-0.2 1.5-0.7 0.4-0.4 0.6-1 0.6-1.7v-5.2h2V620.4z"/><path fill="#637C15" d="M604.8 611.4l-2.7 9h-2.1l-1.6-6.1c-0.1-0.2-0.1-0.5-0.1-0.8h0c0 0.2-0.1 0.5-0.2 0.8l-1.8 6.1h-2.1l-2.6-9h2.1l1.6 6.5c0.1 0.2 0.1 0.5 0.1 0.8h0.1c0-0.2 0.1-0.5 0.1-0.8l1.8-6.5h1.9l1.6 6.5c0.1 0.2 0.1 0.5 0.1 0.8h0.1c0-0.2 0.1-0.5 0.1-0.8l1.6-6.5H604.8z"/><path fill="#637C15" d="M607.4 609.5c-0.3 0-0.6-0.1-0.9-0.3 -0.2-0.2-0.4-0.5-0.4-0.8s0.1-0.6 0.4-0.8c0.2-0.2 0.5-0.3 0.9-0.3 0.3 0 0.6 0.1 0.9 0.3s0.4 0.5 0.4 0.8c0 0.3-0.1 0.6-0.4 0.8S607.7 609.5 607.4 609.5zM608.4 620.4h-2v-9h2V620.4z"/><path fill="#637C15" d="M619.1 620.4h-2v-5.1c0-1.7-0.6-2.5-1.8-2.5 -0.6 0-1.1 0.2-1.5 0.7s-0.6 1.1-0.6 1.8v5.1h-2v-9h2v1.5h0c0.7-1.1 1.6-1.7 2.9-1.7 1 0 1.7 0.3 2.2 1s0.8 1.6 0.8 2.8V620.4z"/><path fill="#637C15" d="M623 620.6c-0.4 0-0.6-0.1-0.9-0.3s-0.4-0.5-0.4-0.8c0-0.3 0.1-0.6 0.4-0.9s0.5-0.4 0.9-0.4c0.3 0 0.6 0.1 0.9 0.4 0.2 0.2 0.4 0.5 0.4 0.9 0 0.3-0.1 0.6-0.4 0.8C623.6 620.5 623.3 620.6 623 620.6zM623.9 607.8l-0.2 8.9h-1.7l-0.2-8.9H623.9z"/><path fill="#000" d="M693.2 739.9l-18.5 69H488.9l18.5-69H693.2M697.1 736.9h-192l-20.1 75h192L697.1 736.9 697.1 736.9z"/><path d="M547.2 756.4l-3.5 12.6h-2.4l-2.4-8.8c-0.1-0.4-0.2-0.8-0.2-1.2h0c0 0.4-0.1 0.8-0.2 1.2l-2.4 8.8h-2.4l-3.5-12.6h2.3l2.3 9.2c0.1 0.4 0.2 0.8 0.2 1.2h0c0-0.3 0.1-0.7 0.2-1.2l2.6-9.2h2.2l2.4 9.3c0.1 0.3 0.1 0.7 0.2 1.1h0c0-0.3 0.1-0.7 0.2-1.2l2.2-9.3H547.2z"/><path d="M552.3 769.2c-1.4 0-2.5-0.4-3.3-1.3 -0.8-0.8-1.2-2-1.2-3.3 0-1.5 0.4-2.7 1.3-3.5 0.9-0.8 2-1.3 3.5-1.3 1.4 0 2.5 0.4 3.3 1.2s1.2 2 1.2 3.4c0 1.4-0.4 2.6-1.3 3.4C554.9 768.7 553.7 769.2 552.3 769.2zM552.4 761.4c-0.8 0-1.4 0.3-1.9 0.8s-0.7 1.3-0.7 2.3c0 0.9 0.2 1.7 0.7 2.2 0.5 0.5 1.1 0.8 1.9 0.8 0.8 0 1.4-0.3 1.9-0.8 0.4-0.5 0.6-1.3 0.6-2.3 0-1-0.2-1.8-0.6-2.3C553.8 761.7 553.2 761.4 552.4 761.4z"/><path d="M566.9 769h-2v-1.4h0c-0.6 1.1-1.5 1.6-2.8 1.6 -2.1 0-3.2-1.3-3.2-3.8v-5.4h2v5.2c0 1.6 0.6 2.4 1.9 2.4 0.6 0 1.1-0.2 1.5-0.7 0.4-0.4 0.6-1 0.6-1.7v-5.2h2V769z"/><path d="M571.6 769h-2v-13.3h2V769z"/><path d="M582.4 769h-2v-1.5h0c-0.7 1.2-1.7 1.7-3 1.7 -1.1 0-2-0.4-2.7-1.2 -0.7-0.8-1-1.9-1-3.3 0-1.5 0.4-2.7 1.1-3.6 0.7-0.9 1.7-1.3 2.9-1.3 1.2 0 2.1 0.5 2.6 1.5h0v-5.6h2V769zM580.4 764.9v-1.2c0-0.6-0.2-1.2-0.6-1.6s-0.9-0.7-1.6-0.7c-0.8 0-1.4 0.3-1.8 0.9 -0.4 0.6-0.7 1.4-0.7 2.4 0 0.9 0.2 1.6 0.6 2.2 0.4 0.5 1 0.8 1.7 0.8 0.7 0 1.3-0.3 1.7-0.8C580.2 766.3 580.4 765.6 580.4 764.9z"/><path d="M597.9 760l-4.1 10.4c-0.8 1.9-2 2.8-3.6 2.8 -0.4 0-0.8 0-1.1-0.1v-1.7c0.3 0.1 0.6 0.2 0.9 0.2 0.8 0 1.3-0.4 1.7-1.1l0.6-1.5 -3.6-9h2.3l2.1 6.5c0 0.1 0.1 0.3 0.2 0.7h0c0-0.1 0.1-0.3 0.2-0.6l2.3-6.6H597.9z"/><path d="M603.1 769.2c-1.4 0-2.5-0.4-3.3-1.3 -0.8-0.8-1.2-2-1.2-3.3 0-1.5 0.4-2.7 1.3-3.5 0.9-0.8 2-1.3 3.5-1.3 1.4 0 2.5 0.4 3.3 1.2s1.2 2 1.2 3.4c0 1.4-0.4 2.6-1.3 3.4C605.6 768.7 604.5 769.2 603.1 769.2zM603.2 761.4c-0.8 0-1.4 0.3-1.9 0.8s-0.7 1.3-0.7 2.3c0 0.9 0.2 1.7 0.7 2.2 0.5 0.5 1.1 0.8 1.9 0.8 0.8 0 1.4-0.3 1.9-0.8 0.4-0.5 0.6-1.3 0.6-2.3 0-1-0.2-1.8-0.6-2.3C604.6 761.7 604 761.4 603.2 761.4z"/><path d="M617.7 769h-2v-1.4h0c-0.6 1.1-1.5 1.6-2.8 1.6 -2.1 0-3.2-1.3-3.2-3.8v-5.4h2v5.2c0 1.6 0.6 2.4 1.9 2.4 0.6 0 1.1-0.2 1.5-0.7 0.4-0.4 0.6-1 0.6-1.7v-5.2h2V769z"/><path d="M627.3 769h-2v-13.3h2V769z"/><path d="M631 758.1c-0.3 0-0.6-0.1-0.9-0.3 -0.2-0.2-0.4-0.5-0.4-0.8s0.1-0.6 0.4-0.8c0.2-0.2 0.5-0.3 0.9-0.3 0.3 0 0.6 0.1 0.9 0.3s0.4 0.5 0.4 0.8c0 0.3-0.1 0.6-0.4 0.8C631.6 758 631.3 758.1 631 758.1zM632 769h-2v-9h2V769z"/><path d="M642.8 769h-2.6l-3.5-4.3h0v4.3h-2v-13.3h2v8.4h0l3.3-4.1h2.5l-3.7 4.3L642.8 769z"/><path d="M651.4 765h-6.1c0 0.8 0.3 1.5 0.8 1.9 0.5 0.5 1.2 0.7 2 0.7 1 0 1.8-0.3 2.6-0.9v1.6c-0.8 0.5-1.9 0.8-3.3 0.8 -1.3 0-2.4-0.4-3.1-1.2 -0.8-0.8-1.1-2-1.1-3.4 0-1.4 0.4-2.5 1.2-3.4 0.8-0.9 1.9-1.3 3.1-1.3s2.2 0.4 2.9 1.2 1 1.9 1 3.3V765zM649.5 763.6c0-0.7-0.2-1.3-0.5-1.7 -0.3-0.4-0.8-0.6-1.4-0.6 -0.6 0-1.1 0.2-1.5 0.6 -0.4 0.4-0.7 1-0.8 1.7H649.5z"/><path d="M540.1 790.5c-0.4 0.2-0.9 0.3-1.6 0.3 -1.7 0-2.6-0.8-2.6-2.5v-5.1h-1.5v-1.6h1.5v-2.1l2-0.6v2.7h2.2v1.6h-2.2v4.5c0 0.5 0.1 0.9 0.3 1.1s0.5 0.3 1 0.3c0.3 0 0.6-0.1 0.9-0.3V790.5z"/><path d="M545.8 790.8c-1.4 0-2.5-0.4-3.3-1.3s-1.2-2-1.2-3.3c0-1.5 0.4-2.7 1.3-3.5s2-1.3 3.5-1.3c1.4 0 2.5 0.4 3.3 1.2s1.2 2 1.2 3.4c0 1.4-0.4 2.6-1.3 3.5S547.2 790.8 545.8 790.8zM545.9 783c-0.8 0-1.4 0.3-1.9 0.8s-0.7 1.3-0.7 2.3c0 0.9 0.2 1.7 0.7 2.2s1.1 0.8 1.9 0.8c0.8 0 1.4-0.3 1.9-0.8s0.6-1.3 0.6-2.3c0-1-0.2-1.8-0.6-2.3S546.7 783 545.9 783z"/><path d="M559.6 789.2h0v5.5h-2v-13.1h2v1.6h0c0.7-1.2 1.7-1.8 3.1-1.8 1.1 0 2 0.4 2.7 1.2s1 1.9 1 3.2c0 1.5-0.4 2.7-1.1 3.6s-1.7 1.4-3 1.4C561.1 790.8 560.2 790.2 559.6 789.2zM559.5 785.7v1.1c0 0.7 0.2 1.2 0.6 1.7s1 0.7 1.6 0.7c0.8 0 1.3-0.3 1.8-0.9s0.6-1.4 0.6-2.5c0-0.9-0.2-1.6-0.6-2.1s-0.9-0.8-1.6-0.8c-0.7 0-1.3 0.3-1.8 0.8S559.5 784.9 559.5 785.7z"/><path d="M570.4 790.6h-2v-13.3h2V790.6z"/><path d="M579.9 790.6h-2v-1.4h0c-0.6 1.1-1.5 1.6-2.7 1.6 -0.9 0-1.6-0.2-2.1-0.7s-0.8-1.1-0.8-1.9c0-1.7 1-2.7 2.9-3l2.7-0.4c0-1.3-0.6-1.9-1.8-1.9 -1.1 0-2 0.4-2.9 1.1v-1.8c0.9-0.6 2-0.8 3.3-0.8 2.3 0 3.4 1.1 3.4 3.4V790.6zM578 786.1l-1.9 0.3c-0.6 0.1-1 0.2-1.3 0.4s-0.4 0.6-0.4 1.1c0 0.4 0.1 0.7 0.4 0.9s0.6 0.4 1.1 0.4c0.6 0 1.1-0.2 1.5-0.7s0.6-1 0.6-1.6V786.1z"/><path d="M590.2 781.6l-4.1 10.4c-0.8 1.9-2 2.8-3.6 2.8 -0.4 0-0.8 0-1.1-0.1v-1.7c0.3 0.1 0.6 0.2 0.9 0.2 0.8 0 1.3-0.4 1.7-1.1l0.6-1.5 -3.6-9h2.3l2.1 6.5c0 0.1 0.1 0.3 0.2 0.7h0c0-0.1 0.1-0.3 0.2-0.6l2.3-6.6H590.2z"/><path d="M603.4 790.6h-2v-1.4h0c-0.6 1.1-1.5 1.6-2.7 1.6 -0.9 0-1.6-0.2-2.1-0.7s-0.8-1.1-0.8-1.9c0-1.7 1-2.7 2.9-3l2.7-0.4c0-1.3-0.6-1.9-1.8-1.9 -1.1 0-2 0.4-2.9 1.1v-1.8c0.9-0.6 2-0.8 3.3-0.8 2.3 0 3.4 1.1 3.4 3.4V790.6zM601.5 786.1l-1.9 0.3c-0.6 0.1-1 0.2-1.3 0.4s-0.4 0.6-0.4 1.1c0 0.4 0.1 0.7 0.4 0.9s0.6 0.4 1.1 0.4c0.6 0 1.1-0.2 1.5-0.7s0.6-1 0.6-1.6V786.1z"/><path d="M614.1 789.8c0 3.3-1.7 5-5 5 -1.2 0-2.2-0.2-3.1-0.6v-1.9c1 0.6 1.9 0.8 2.8 0.8 2.1 0 3.2-1.1 3.2-3.2v-1h0c-0.7 1.1-1.7 1.7-3 1.7 -1.1 0-2-0.4-2.6-1.2s-1-1.9-1-3.2c0-1.5 0.4-2.7 1.1-3.6s1.7-1.4 3-1.4c1.2 0 2.1 0.5 2.6 1.5h0v-1.2h2V789.8zM612.1 786.4v-1.2c0-0.6-0.2-1.2-0.6-1.6s-0.9-0.7-1.6-0.7c-0.8 0-1.4 0.3-1.8 0.9s-0.7 1.4-0.7 2.4c0 0.9 0.2 1.6 0.6 2.1s1 0.8 1.7 0.8c0.7 0 1.3-0.3 1.7-0.8S612.1 787.2 612.1 786.4z"/><path d="M623.7 790.6h-2v-1.4h0c-0.6 1.1-1.5 1.6-2.7 1.6 -0.9 0-1.6-0.2-2.1-0.7s-0.8-1.1-0.8-1.9c0-1.7 1-2.7 2.9-3l2.7-0.4c0-1.3-0.6-1.9-1.8-1.9 -1.1 0-2 0.4-2.9 1.1v-1.8c0.9-0.6 2-0.8 3.3-0.8 2.3 0 3.4 1.1 3.4 3.4V790.6zM621.7 786.1l-1.9 0.3c-0.6 0.1-1 0.2-1.3 0.4s-0.4 0.6-0.4 1.1c0 0.4 0.1 0.7 0.4 0.9s0.6 0.4 1.1 0.4c0.6 0 1.1-0.2 1.5-0.7s0.6-1 0.6-1.6V786.1z"/><path d="M627.2 779.7c-0.3 0-0.6-0.1-0.9-0.3s-0.4-0.5-0.4-0.8 0.1-0.6 0.4-0.8 0.5-0.3 0.9-0.3c0.3 0 0.6 0.1 0.9 0.3s0.4 0.5 0.4 0.8c0 0.3-0.1 0.6-0.4 0.8S627.5 779.7 627.2 779.7zM628.2 790.6h-2v-9h2V790.6z"/><path d="M638.9 790.6h-2v-5.1c0-1.7-0.6-2.5-1.8-2.5 -0.6 0-1.1 0.2-1.5 0.7s-0.6 1.1-0.6 1.8v5.1h-2v-9h2v1.5h0c0.7-1.1 1.6-1.7 2.9-1.7 1 0 1.7 0.3 2.2 1s0.8 1.6 0.8 2.8V790.6z"/><path d="M642.7 787c-0.1-0.1-0.1-0.3-0.1-0.6s-0.1-0.5-0.1-0.7c0-0.4 0.1-0.7 0.2-1s0.3-0.6 0.5-0.8 0.4-0.5 0.7-0.7 0.5-0.5 0.7-0.7 0.4-0.5 0.5-0.7 0.2-0.5 0.2-0.8c0-0.3-0.1-0.5-0.2-0.7s-0.2-0.4-0.4-0.5 -0.4-0.2-0.6-0.3 -0.5-0.1-0.8-0.1c-0.9 0-1.7 0.4-2.5 1.2v-2c1-0.6 2-0.8 3-0.8 0.5 0 0.9 0.1 1.3 0.2s0.8 0.3 1.1 0.5 0.6 0.5 0.7 0.9 0.3 0.8 0.3 1.2c0 0.5-0.1 0.9-0.2 1.2s-0.3 0.7-0.6 1 -0.5 0.6-0.7 0.8 -0.5 0.5-0.7 0.7 -0.4 0.5-0.6 0.7 -0.2 0.5-0.2 0.8c0 0.3 0 0.5 0.1 0.7s0.1 0.4 0.2 0.5H642.7zM643.7 790.7c-0.3 0-0.6-0.1-0.9-0.3 -0.2-0.2-0.4-0.5-0.4-0.8 0-0.3 0.1-0.6 0.4-0.8 0.3-0.2 0.5-0.4 0.9-0.4 0.3 0 0.6 0.1 0.9 0.4 0.2 0.2 0.4 0.5 0.4 0.8 0 0.3-0.1 0.6-0.4 0.8C644.3 790.6 644 790.7 643.7 790.7z"/><rect x="394.5" y="774.7" fill="#000" width="94" height="3"/><polygon fill="#000" points="485.3 770.2 495.7 776.2 485.3 782.2 "/><rect x="589.5" y="641.6" fill="#000" width="3" height="88.1"/><polygon fill="#000" points="585.1 726.5 591 736.9 597 726.5 "/><polygon fill="#000" points="764.2 777.7 683.7 777.7 683.7 774.7 761.2 774.7 761.2 110 128.2 110 128.2 107 764.2 107 "/><polygon fill="#000" points="131.4 102.5 121 108.5 131.4 114.5 "/><path d="M784.5 744.7l-4.1 8.1v4.5h-2.8v-4.4l-4-8.2h3.2l2 4.7c0 0.1 0.1 0.4 0.3 1h0c0.1-0.4 0.2-0.8 0.3-1l2.1-4.7H784.5z"/><polygon fill="#000" points="592.5 888.4 208.2 888.4 208.2 885.4 589.5 885.4 589.5 810.4 592.5 810.4 "/><polygon fill="#000" points="211.4 880.9 201 886.9 211.4 892.9 "/><path d="M607.4 857.2h-2.3l-6-9.3c-0.2-0.2-0.3-0.5-0.4-0.7h-0.1c0 0.3 0.1 0.8 0.1 1.7v8.3h-2v-12.6h2.4l5.8 9c0.2 0.4 0.4 0.6 0.5 0.8h0c-0.1-0.3-0.1-0.9-0.1-1.7v-8.1h2V857.2z"/><path fill="#000" d="M411 260.8l112.9 52.9 -112.9 52.9L298.1 313.8 411 260.8M411 257.5l-120 56.3 120 56.3 120-56.2L411 257.5 411 257.5z"/><path d="M364.8 308.3h-2.1v-5.5h-5.9v5.5h-2.1v-12.6h2.1v5.3h5.9v-5.3h2.1V308.3z"/><path d="M374.6 308.3h-2v-1.4h0c-0.6 1.1-1.5 1.6-2.7 1.6 -0.9 0-1.6-0.2-2.1-0.7s-0.8-1.1-0.8-1.9c0-1.7 1-2.7 2.9-3l2.7-0.4c0-1.3-0.6-1.9-1.8-1.9 -1.1 0-2 0.4-2.9 1.1v-1.8c0.9-0.6 2-0.8 3.3-0.8 2.3 0 3.4 1.1 3.4 3.4V308.3zM372.6 303.9l-1.9 0.3c-0.6 0.1-1 0.2-1.3 0.4s-0.4 0.6-0.4 1.1c0 0.4 0.1 0.7 0.4 0.9s0.6 0.4 1.1 0.4c0.6 0 1.1-0.2 1.5-0.7s0.6-1 0.6-1.6V303.9z"/><path d="M376.5 308.1v-1.9c0.8 0.6 1.6 0.9 2.5 0.9 1.2 0 1.8-0.4 1.8-1.1 0-0.2-0.1-0.4-0.2-0.5s-0.2-0.3-0.4-0.4 -0.4-0.2-0.6-0.3 -0.5-0.2-0.8-0.3c-0.4-0.1-0.7-0.3-1-0.5s-0.5-0.3-0.7-0.6 -0.3-0.4-0.4-0.7 -0.1-0.6-0.1-0.9c0-0.4 0.1-0.8 0.3-1.1s0.5-0.6 0.8-0.8 0.7-0.4 1.2-0.5 0.9-0.2 1.4-0.2c0.8 0 1.6 0.1 2.2 0.4v1.8c-0.6-0.4-1.4-0.6-2.2-0.6 -0.3 0-0.5 0-0.7 0.1s-0.4 0.1-0.5 0.2 -0.3 0.2-0.3 0.3 -0.1 0.3-0.1 0.4c0 0.2 0 0.4 0.1 0.5s0.2 0.3 0.4 0.4 0.4 0.2 0.6 0.3 0.5 0.2 0.8 0.3c0.4 0.2 0.7 0.3 1 0.5s0.6 0.4 0.8 0.6 0.4 0.4 0.5 0.7 0.2 0.6 0.2 1c0 0.5-0.1 0.9-0.3 1.2s-0.5 0.6-0.8 0.8 -0.8 0.4-1.2 0.5 -0.9 0.2-1.5 0.2C378.1 308.6 377.2 308.4 376.5 308.1z"/><path d="M394.5 308.2c-0.4 0.2-0.9 0.3-1.6 0.3 -1.7 0-2.6-0.8-2.6-2.5v-5.1h-1.5v-1.6h1.5v-2.1l2-0.6v2.7h2.2v1.6h-2.2v4.5c0 0.5 0.1 0.9 0.3 1.1s0.5 0.3 1 0.3c0.3 0 0.6-0.1 0.9-0.3V308.2z"/><path d="M408.4 299.3l-2.7 9h-2.1l-1.6-6.1c-0.1-0.2-0.1-0.5-0.1-0.8h0c0 0.2-0.1 0.5-0.2 0.8l-1.8 6.1h-2.1l-2.6-9h2.1l1.6 6.5c0.1 0.2 0.1 0.5 0.1 0.8h0.1c0-0.2 0.1-0.5 0.1-0.8l1.8-6.5h1.9l1.6 6.5c0.1 0.2 0.1 0.5 0.1 0.8h0.1c0-0.2 0.1-0.5 0.1-0.8l1.6-6.5H408.4z"/><path d="M410.9 297.5c-0.3 0-0.6-0.1-0.9-0.3 -0.2-0.2-0.4-0.5-0.4-0.8s0.1-0.6 0.4-0.8c0.2-0.2 0.5-0.3 0.9-0.3 0.3 0 0.6 0.1 0.9 0.3s0.4 0.5 0.4 0.8c0 0.3-0.1 0.6-0.4 0.8S411.2 297.5 410.9 297.5zM411.9 308.3h-2v-9h2V308.3z"/><path d="M414 308.1v-1.9c0.8 0.6 1.6 0.9 2.5 0.9 1.2 0 1.8-0.4 1.8-1.1 0-0.2-0.1-0.4-0.2-0.5s-0.2-0.3-0.4-0.4c-0.2-0.1-0.4-0.2-0.6-0.3 -0.2-0.1-0.5-0.2-0.8-0.3 -0.4-0.1-0.7-0.3-1-0.5 -0.3-0.2-0.5-0.3-0.7-0.6 -0.2-0.2-0.3-0.4-0.4-0.7s-0.1-0.6-0.1-0.9c0-0.4 0.1-0.8 0.3-1.1s0.5-0.6 0.8-0.8 0.7-0.4 1.2-0.5 0.9-0.2 1.4-0.2c0.8 0 1.6 0.1 2.2 0.4v1.8c-0.6-0.4-1.4-0.6-2.2-0.6 -0.3 0-0.5 0-0.7 0.1 -0.2 0.1-0.4 0.1-0.5 0.2s-0.3 0.2-0.3 0.3 -0.1 0.3-0.1 0.4c0 0.2 0 0.4 0.1 0.5s0.2 0.3 0.4 0.4c0.2 0.1 0.4 0.2 0.6 0.3 0.2 0.1 0.5 0.2 0.8 0.3 0.4 0.2 0.7 0.3 1 0.5 0.3 0.2 0.6 0.4 0.8 0.6s0.4 0.4 0.5 0.7 0.2 0.6 0.2 1c0 0.5-0.1 0.9-0.3 1.2s-0.5 0.6-0.8 0.8 -0.8 0.4-1.2 0.5c-0.5 0.1-0.9 0.2-1.5 0.2C415.6 308.6 414.7 308.4 414 308.1z"/><path d="M427.1 308.2c-0.4 0.2-0.9 0.3-1.6 0.3 -1.7 0-2.6-0.8-2.6-2.5v-5.1h-1.5v-1.6h1.5v-2.1l2-0.6v2.7h2.2v1.6h-2.2v4.5c0 0.5 0.1 0.9 0.3 1.1s0.5 0.3 1 0.3c0.3 0 0.6-0.1 0.9-0.3V308.2z"/><path d="M435.8 308.3h-2v-13.3h2V308.3z"/><path d="M439.5 297.5c-0.3 0-0.6-0.1-0.9-0.3 -0.2-0.2-0.4-0.5-0.4-0.8s0.1-0.6 0.4-0.8c0.2-0.2 0.5-0.3 0.9-0.3 0.3 0 0.6 0.1 0.9 0.3s0.4 0.5 0.4 0.8c0 0.3-0.1 0.6-0.4 0.8S439.9 297.5 439.5 297.5zM440.5 308.3h-2v-9h2V308.3z"/><path d="M456.6 308.3h-2v-4.9c0-0.9-0.1-1.6-0.4-2 -0.3-0.4-0.7-0.6-1.3-0.6 -0.5 0-1 0.3-1.4 0.8 -0.4 0.5-0.6 1.2-0.6 1.9v4.9h-2v-5.1c0-1.7-0.6-2.5-1.8-2.5 -0.6 0-1 0.3-1.4 0.8 -0.4 0.5-0.5 1.2-0.5 2v4.9h-2v-9h2v1.4h0c0.7-1.1 1.6-1.6 2.8-1.6 0.6 0 1.2 0.2 1.6 0.5 0.5 0.3 0.8 0.8 1 1.3 0.7-1.2 1.7-1.9 3-1.9 2 0 3 1.2 3 3.7V308.3z"/><path d="M460.2 297.5c-0.3 0-0.6-0.1-0.9-0.3 -0.2-0.2-0.4-0.5-0.4-0.8s0.1-0.6 0.4-0.8c0.2-0.2 0.5-0.3 0.9-0.3 0.3 0 0.6 0.1 0.9 0.3s0.4 0.5 0.4 0.8c0 0.3-0.1 0.6-0.4 0.8S460.5 297.5 460.2 297.5zM461.2 308.3h-2v-9h2V308.3z"/><path d="M468.6 308.2c-0.4 0.2-0.9 0.3-1.6 0.3 -1.7 0-2.6-0.8-2.6-2.5v-5.1h-1.5v-1.6h1.5v-2.1l2-0.6v2.7h2.2v1.6h-2.2v4.5c0 0.5 0.1 0.9 0.3 1.1s0.5 0.3 1 0.3c0.3 0 0.6-0.1 0.9-0.3V308.2z"/><path d="M355.3 328.6h0v1.3h-2v-13.3h2v5.9h0c0.7-1.2 1.7-1.8 3.1-1.8 1.1 0 2 0.4 2.7 1.2s1 1.9 1 3.2c0 1.5-0.4 2.7-1.1 3.6s-1.7 1.4-3 1.4C356.8 330.2 355.9 329.6 355.3 328.6zM355.3 325.1v1.1c0 0.7 0.2 1.2 0.6 1.7s1 0.7 1.6 0.7c0.8 0 1.3-0.3 1.8-0.9s0.6-1.4 0.6-2.5c0-0.9-0.2-1.6-0.6-2.1s-0.9-0.8-1.6-0.8c-0.7 0-1.3 0.3-1.8 0.8S355.3 324.3 355.3 325.1z"/><path d="M371.7 326h-6.1c0 0.8 0.3 1.5 0.8 1.9s1.2 0.7 2 0.7c1 0 1.8-0.3 2.6-0.9v1.6c-0.8 0.5-1.9 0.8-3.3 0.8 -1.3 0-2.4-0.4-3.1-1.2s-1.1-2-1.1-3.4c0-1.4 0.4-2.5 1.2-3.4s1.9-1.3 3.1-1.3 2.2 0.4 2.9 1.2 1 1.9 1 3.3V326zM369.8 324.6c0-0.7-0.2-1.3-0.5-1.7s-0.8-0.6-1.4-0.6c-0.6 0-1.1 0.2-1.5 0.6s-0.7 1-0.8 1.7H369.8z"/><path d="M381.3 326h-6.1c0 0.8 0.3 1.5 0.8 1.9s1.2 0.7 2 0.7c1 0 1.8-0.3 2.6-0.9v1.6c-0.8 0.5-1.9 0.8-3.3 0.8 -1.3 0-2.4-0.4-3.1-1.2s-1.1-2-1.1-3.4c0-1.4 0.4-2.5 1.2-3.4s1.9-1.3 3.1-1.3 2.2 0.4 2.9 1.2 1 1.9 1 3.3V326zM379.3 324.6c0-0.7-0.2-1.3-0.5-1.7s-0.8-0.6-1.4-0.6c-0.6 0-1.1 0.2-1.5 0.6s-0.7 1-0.8 1.7H379.3z"/><path d="M391.3 329.9h-2v-5.1c0-1.7-0.6-2.5-1.8-2.5 -0.6 0-1.1 0.2-1.5 0.7s-0.6 1.1-0.6 1.8v5.1h-2v-9h2v1.5h0c0.7-1.1 1.6-1.7 2.9-1.7 1 0 1.7 0.3 2.2 1s0.8 1.6 0.8 2.8V329.9z"/><path d="M403.9 322.9c-0.2-0.2-0.6-0.3-1.1-0.3 -0.6 0-1.1 0.3-1.5 0.8 -0.4 0.5-0.6 1.3-0.6 2.2v4.3h-2v-9h2v1.9h0c0.2-0.6 0.5-1.1 0.9-1.5s0.9-0.5 1.4-0.5c0.4 0 0.7 0.1 0.8 0.2V322.9z"/><path d="M412.8 326h-6.1c0 0.8 0.3 1.5 0.8 1.9s1.2 0.7 2 0.7c1 0 1.8-0.3 2.6-0.9v1.6c-0.8 0.5-1.9 0.8-3.3 0.8 -1.3 0-2.4-0.4-3.1-1.2s-1.1-2-1.1-3.4c0-1.4 0.4-2.5 1.2-3.4s1.9-1.3 3.1-1.3 2.2 0.4 2.9 1.2 1 1.9 1 3.3V326zM410.8 324.6c0-0.7-0.2-1.3-0.5-1.7s-0.8-0.6-1.4-0.6c-0.6 0-1.1 0.2-1.5 0.6s-0.7 1-0.8 1.7H410.8z"/><path d="M421.7 329.9h-2v-1.4h0c-0.6 1.1-1.5 1.6-2.7 1.6 -0.9 0-1.6-0.2-2.1-0.7s-0.8-1.1-0.8-1.9c0-1.7 1-2.7 2.9-3l2.7-0.4c0-1.3-0.6-1.9-1.8-1.9 -1.1 0-2 0.4-2.9 1.1v-1.8c0.9-0.6 2-0.8 3.3-0.8 2.3 0 3.4 1.1 3.4 3.4V329.9zM419.7 325.5l-1.9 0.3c-0.6 0.1-1 0.2-1.3 0.4s-0.4 0.6-0.4 1.1c0 0.4 0.1 0.7 0.4 0.9s0.6 0.4 1.1 0.4c0.6 0 1.1-0.2 1.5-0.7s0.6-1 0.6-1.6V325.5z"/><path d="M430.6 329.5c-0.7 0.4-1.6 0.6-2.6 0.6 -1.3 0-2.4-0.4-3.2-1.3s-1.2-1.9-1.2-3.2c0-1.5 0.4-2.7 1.3-3.6s2.1-1.3 3.5-1.3c0.8 0 1.5 0.1 2.2 0.4v1.9c-0.6-0.5-1.3-0.7-2-0.7 -0.9 0-1.6 0.3-2.1 0.9s-0.8 1.3-0.8 2.3c0 0.9 0.3 1.7 0.8 2.2s1.2 0.8 2.1 0.8c0.7 0 1.4-0.3 2.1-0.8V329.5z"/><path d="M440.6 329.9h-2v-4.9c0-1.8-0.6-2.7-1.8-2.7 -0.6 0-1.1 0.3-1.5 0.8s-0.6 1.2-0.6 2v4.8h-2v-13.3h2v5.8h0c0.7-1.1 1.7-1.7 2.9-1.7 2 0 3 1.2 3 3.7V329.9z"/><path d="M450.7 326h-6.1c0 0.8 0.3 1.5 0.8 1.9s1.2 0.7 2 0.7c1 0 1.8-0.3 2.6-0.9v1.6c-0.8 0.5-1.9 0.8-3.3 0.8 -1.3 0-2.4-0.4-3.1-1.2s-1.1-2-1.1-3.4c0-1.4 0.4-2.5 1.2-3.4s1.9-1.3 3.1-1.3 2.2 0.4 2.9 1.2 1 1.9 1 3.3V326zM448.7 324.6c0-0.7-0.2-1.3-0.5-1.7s-0.8-0.6-1.4-0.6c-0.6 0-1.1 0.2-1.5 0.6s-0.7 1-0.8 1.7H448.7z"/><path d="M460.8 329.9h-2v-1.5h0c-0.7 1.2-1.7 1.7-3 1.7 -1.1 0-2-0.4-2.7-1.2s-1-1.9-1-3.3c0-1.5 0.4-2.7 1.1-3.6s1.7-1.3 2.9-1.3c1.2 0 2.1 0.5 2.6 1.5h0v-5.6h2V329.9zM458.8 325.8v-1.2c0-0.6-0.2-1.2-0.6-1.6s-0.9-0.7-1.6-0.7c-0.8 0-1.4 0.3-1.8 0.9s-0.7 1.4-0.7 2.4c0 0.9 0.2 1.6 0.6 2.2s1 0.8 1.7 0.8c0.7 0 1.3-0.3 1.7-0.8S458.8 326.6 458.8 325.8z"/><path d="M464.8 326.4c-0.1-0.1-0.1-0.3-0.1-0.6s-0.1-0.5-0.1-0.7c0-0.4 0.1-0.7 0.2-1s0.3-0.6 0.5-0.8 0.4-0.5 0.7-0.7 0.5-0.5 0.7-0.7 0.4-0.5 0.5-0.7 0.2-0.5 0.2-0.8c0-0.3-0.1-0.5-0.2-0.7s-0.2-0.4-0.4-0.5 -0.4-0.2-0.6-0.3 -0.5-0.1-0.8-0.1c-0.9 0-1.7 0.4-2.5 1.2v-2c1-0.6 2-0.8 3-0.8 0.5 0 0.9 0.1 1.3 0.2s0.8 0.3 1.1 0.5 0.6 0.5 0.7 0.9 0.3 0.8 0.3 1.2c0 0.5-0.1 0.9-0.2 1.2s-0.3 0.7-0.6 1 -0.5 0.6-0.7 0.8 -0.5 0.5-0.7 0.7 -0.4 0.5-0.6 0.7 -0.2 0.5-0.2 0.8c0 0.3 0 0.5 0.1 0.7s0.1 0.4 0.2 0.5H464.8zM465.8 330.1c-0.3 0-0.6-0.1-0.9-0.3 -0.2-0.2-0.4-0.5-0.4-0.8 0-0.3 0.1-0.6 0.4-0.8 0.3-0.2 0.5-0.4 0.9-0.4 0.3 0 0.6 0.1 0.9 0.4 0.2 0.2 0.4 0.5 0.4 0.8 0 0.3-0.1 0.6-0.4 0.8C466.5 330 466.2 330.1 465.8 330.1z"/><polygon fill="#000" points="412.5 391.5 214.5 391.5 214.5 388.5 409.5 388.5 409.5 377.1 412.5 377.1 "/><polygon fill="#000" points="417 380.4 411 370 405.1 380.4 "/><polygon fill="#000" points="412.5 259 409.5 259 409.5 222.8 128.2 222.8 128.2 219.8 412.5 219.8 "/><polygon fill="#000" points="131.4 227.2 121 221.3 131.4 215.3 "/><path d="M429.2 244.6h-2.9l-5.2-7.9c-0.3-0.5-0.5-0.8-0.6-1h0c0 0.4 0.1 1.1 0.1 2v6.9h-2.7v-12.6h3.1l5 7.7c0.2 0.3 0.4 0.7 0.6 1h0c0-0.3-0.1-0.9-0.1-1.7v-7h2.7V244.6z"/><path d="M563.5 294.4l-4.1 8.1V307h-2.8v-4.4l-4-8.2h3.2l2 4.7c0 0.1 0.1 0.4 0.3 1h0c0.1-0.4 0.2-0.8 0.3-1l2.1-4.7H563.5z"/><polygon fill="#000" points="592.5 466.5 128.2 466.5 128.2 463.5 589.5 463.5 589.5 315.3 524.1 315.3 524.1 312.3 592.5 312.3 "/><polygon fill="#000" points="131.4 471 121 465 131.4 459 "/><circle fill="#C12943" cx="236" cy="152.5" r="25"/><path fill="#FFFFFF" d="M244.6 165.3h-15.9v-4.4h5.2v-15.7l-5.4 1.2v-4.5l10.9-2.2v21.2h5.2V165.3z"/><circle fill="#C12943" cx="266" cy="352.5" r="25"/><path fill="#FFFFFF" d="M264 360.6v0.1h10.2v4.6H257.6v-4.3l7.2-6.9c1.5-1.4 2.5-2.6 3.1-3.5s0.9-1.9 0.9-3c0-2.3-1.2-3.5-3.7-3.5 -2.2 0-4.2 0.9-6.2 2.6v-4.9c2.2-1.4 4.7-2.1 7.4-2.1 2.6 0 4.6 0.6 6 1.9s2.2 3 2.2 5.2c0 2.9-1.8 6-5.3 9.1L264 360.6z"/><circle fill="#C12943" cx="510" cy="257.5" r="25"/><path fill="#FFFFFF" d="M502.2 269.5v-4.8c1.7 1.2 3.7 1.8 5.9 1.8 1.4 0 2.5-0.3 3.3-0.9s1.2-1.5 1.2-2.5c0-1.1-0.5-2-1.5-2.6s-2.3-0.9-4-0.9h-2.3v-4.3h2.1c3.3 0 4.9-1.1 4.9-3.3 0-2.1-1.3-3.1-3.8-3.1 -1.7 0-3.3 0.5-4.9 1.6v-4.5c1.8-0.9 3.8-1.3 6.2-1.3 2.6 0 4.6 0.6 6 1.7s2.2 2.7 2.2 4.5c0 3.3-1.7 5.4-5 6.2v0.1c1.8 0.2 3.2 0.9 4.2 1.9s1.5 2.4 1.5 3.9c0 2.4-0.9 4.2-2.6 5.6s-4.1 2.1-7.1 2.1C506 270.7 503.9 270.3 502.2 269.5z"/><circle fill="#C12943" cx="729" cy="723.3" r="25"/><path fill="#FFFFFF" d="M738.4 730.7h-3v5.4h-5.1v-5.4H719.4v-3.5l10.6-16.3h5.5v15.9h3V730.7zM730.4 716.4h-0.1c-0.2 0.4-0.5 1.1-0.9 2l-5.4 8.4h6.4v-7.9C730.3 718.1 730.4 717.3 730.4 716.4z"/><circle fill="#C12943" cx="216" cy="836.9" r="25"/><path fill="#FFFFFF" d="M208.5 849v-4.7c1.7 1.1 3.6 1.6 5.5 1.6 1.5 0 2.6-0.3 3.4-1s1.2-1.6 1.2-2.8c0-2.5-1.8-3.7-5.3-3.7 -1.1 0-2.5 0.1-4.2 0.3v-14.1h14v4.5h-9.2v5c0.7-0.1 1.4-0.1 2.1-0.1 2.6 0 4.6 0.7 6.1 2s2.2 3.2 2.2 5.5c0 2.5-0.9 4.6-2.6 6.2s-4.1 2.4-7.1 2.4C212.2 850.1 210.1 849.7 208.5 849z"/></svg>