<!DOCTYPE svg><svg xmlns="http://www.w3.org/2000/svg" xmlns:xlink="http://www.w3.org/1999/xlink" width="800px" height="740px"><g><g><rect x="156.648" y="265.643" transform="matrix(0.9543 0.2988 -0.2988 0.9543 99.9727 -119.6095)" fill="#727272" width="569.011" height="3"/><g><polygon fill="#727272" points="169.514,189.147 160.4,179.242 173.536,176.301 "/></g></g></g><g><g><rect x="357.785" y="190.107" transform="matrix(0.2818 0.9595 -0.9595 0.2818 719.513 0.7049)" fill="#727272" width="3.001" height="581.77"/><g><polygon fill="#727272" points="634.583,393.08 647.665,396.252 638.379,405.996 "/></g></g></g><g><g><rect x="63.051" y="414.114" transform="matrix(0.8128 0.5825 -0.5825 0.8128 310.1726 -134.0112)" fill="#727272" width="601.106" height="3"/><g><polygon fill="#727272" points="116.992,247.15 111.438,234.889 124.834,236.209 "/></g></g></g><g><g><rect x="201.635" y="353.676" transform="matrix(0.4889 0.8723 -0.8723 0.4889 534.9957 75.4194)" fill="#242424" width="3" height="281.192"/><g><polygon fill="#242424" points="320.781,420.637 334.24,420.81 327.361,432.381 "/></g></g></g><g><g><rect x="138.147" y="281.958" transform="matrix(0.8725 0.4885 -0.4885 0.8725 176.5764 -109.9035)" fill="#242424" width="321.543" height="3"/><g><polygon fill="#242424" points="157.068,211.752 150.185,200.185 163.645,200.006 "/></g></g></g><g><g><rect x="246" y="372" fill="#242424" width="191" height="3"/><g><polygon fill="#242424" points="248,380.395 236.343,373.664 248,366.932 "/></g></g><g><rect x="156" y="350" fill="#242424" width="151" height="3"/><g><polygon fill="#242424" points="305,344.303 316.657,351.033 305,357.765 "/></g></g></g><g><g><rect x="449" y="362" fill="#242424" width="3" height="191"/><g><polygon fill="#242424" points="457.593,551 450.863,562.657 444.132,551 "/></g></g><g><rect x="427" y="492" fill="#242424" width="3" height="151"/><g><polygon fill="#242424" points="421.503,494 428.232,482.343 434.964,494 "/></g></g></g><g><g><rect x="421.212" y="427.371" transform="matrix(0.7071 0.7071 -0.7071 0.7071 448.9558 -242.1395)" fill="#242424" width="191.111" height="3"/><g><polygon fill="#242424" points="581.702,487.286 585.186,500.288 572.184,496.805 "/></g></g></g><g><rect x="439" y="349" fill="#242424" width="191" height="3"/><g><polygon fill="#242424" points="628,343.605 639.657,350.336 628,357.068 "/></g></g><g><rect x="569" y="372" fill="#242424" width="151" height="3"/><g><polygon fill="#242424" points="571,379.697 559.343,372.967 571,366.234 "/></g></g><g><g><rect x="583.006" y="151.188" transform="matrix(0.7071 0.7071 -0.7071 0.7071 332.4233 -353.1537)" fill="#242424" width="3" height="151.011"/><g><polygon fill="#242424" points="539.468,275.651 526.465,279.135 529.949,266.132 "/></g></g></g><g><g><rect x="438" y="171" fill="#242424" width="3" height="191"/><g><polygon fill="#242424" points="432.469,173 439.198,161.343 445.93,173 "/></g></g></g><g><g><rect x="303.028" y="-26.965" transform="matrix(0.2175 0.9761 -0.9761 0.2175 346.6521 -210.3713)" fill="#242424" width="3" height="275.951"/><g><polygon fill="#242424" points="173.242,147.162 160.4,143.128 170.314,134.023 "/></g></g></g><g><circle fill="#DD3C5E" cx="80.2" cy="562.999" r="80.2"/><g><path fill="#FFFFFF" d="M51.508,542.235c-0.881,0.508-1.923,0.762-3.126,0.762c-1.633,0-2.951-0.51-3.953-1.53c-1.003-1.021-1.504-2.343-1.504-3.97c0-1.811,0.539-3.267,1.617-4.366c1.078-1.099,2.519-1.649,4.324-1.649c1.002,0,1.887,0.176,2.653,0.527v2.32c-0.767-0.573-1.583-0.859-2.449-0.859c-1.053,0-1.916,0.355-2.589,1.068c-0.673,0.713-1.01,1.646-1.01,2.799c0,1.139,0.317,2.037,0.951,2.695c0.634,0.66,1.484,0.988,2.551,0.988c0.895,0,1.74-0.318,2.535-0.955V542.235z"/><path fill="#FFFFFF" d="M58.855,542.997c-1.697,0-3.053-0.514-4.066-1.541c-1.014-1.027-1.52-2.391-1.52-4.088c0-1.848,0.528-3.29,1.584-4.328c1.056-1.039,2.479-1.559,4.27-1.559c1.719,0,3.058,0.506,4.018,1.516c0.959,1.01,1.439,2.41,1.439,4.199c0,1.756-0.518,3.16-1.552,4.217C61.994,542.47,60.603,542.997,58.855,542.997z M58.974,533.47c-0.974,0-1.744,0.34-2.31,1.02c-0.566,0.682-0.849,1.619-0.849,2.814c0,1.154,0.286,2.062,0.859,2.724c0.573,0.663,1.339,0.993,2.299,0.993c0.981,0,1.735-0.325,2.261-0.977c0.526-0.652,0.79-1.58,0.79-2.783c0-1.209-0.263-2.145-0.79-2.803C60.708,533.799,59.955,533.47,58.974,533.47z"/><path fill="#FFFFFF" d="M76.913,542.739h-2.492v-6.197c0-2.056-0.727-3.084-2.181-3.084c-0.759,0-1.386,0.285-1.88,0.854s-0.741,1.288-0.741,2.153v6.273h-2.503v-11h2.503v1.826h0.043c0.823-1.389,2.012-2.084,3.566-2.084c1.196,0,2.109,0.389,2.739,1.166c0.63,0.777,0.945,1.9,0.945,3.367V542.739z"/><path fill="#FFFFFF" d="M79.266,542.396v-2.309c0.931,0.709,1.958,1.063,3.083,1.063c1.504,0,2.256-0.443,2.256-1.332c0-0.25-0.064-0.463-0.193-0.639s-0.303-0.331-0.521-0.467c-0.219-0.137-0.477-0.258-0.773-0.365c-0.297-0.107-0.628-0.229-0.994-0.365c-0.451-0.18-0.858-0.369-1.219-0.57c-0.362-0.199-0.663-0.428-0.902-0.682c-0.24-0.254-0.421-0.543-0.542-0.865c-0.122-0.322-0.183-0.697-0.183-1.127c0-0.53,0.125-0.998,0.376-1.402c0.25-0.404,0.587-0.744,1.01-1.021c0.422-0.275,0.902-0.483,1.439-0.623s1.092-0.21,1.665-0.21c1.017,0,1.926,0.154,2.729,0.463v2.18c-0.773-0.529-1.662-0.795-2.664-0.795c-0.315,0-0.6,0.033-0.854,0.098c-0.254,0.064-0.471,0.154-0.65,0.268c-0.179,0.115-0.319,0.253-0.419,0.414c-0.101,0.161-0.15,0.338-0.15,0.531c0,0.236,0.05,0.438,0.15,0.602c0.1,0.166,0.249,0.311,0.446,0.436c0.197,0.125,0.433,0.24,0.709,0.344c0.275,0.104,0.592,0.217,0.951,0.338c0.473,0.193,0.897,0.391,1.273,0.592c0.376,0.2,0.696,0.428,0.961,0.682c0.265,0.254,0.469,0.548,0.612,0.881c0.143,0.333,0.215,0.729,0.215,1.188c0,0.559-0.129,1.045-0.387,1.461c-0.258,0.415-0.602,0.759-1.031,1.031c-0.43,0.271-0.926,0.475-1.488,0.606c-0.563,0.132-1.155,0.198-1.778,0.198C81.188,542.997,80.146,542.797,79.266,542.396z"/><path fill="#FFFFFF" d="M94.315,542.997c-1.697,0-3.053-0.514-4.066-1.541c-1.014-1.027-1.52-2.391-1.52-4.088c0-1.848,0.528-3.29,1.584-4.328c1.056-1.039,2.479-1.559,4.27-1.559c1.719,0,3.058,0.506,4.018,1.516c0.959,1.01,1.439,2.41,1.439,4.199c0,1.756-0.518,3.16-1.552,4.217C97.454,542.47,96.063,542.997,94.315,542.997z M94.434,533.47c-0.974,0-1.744,0.34-2.31,1.02c-0.566,0.682-0.849,1.619-0.849,2.814c0,1.154,0.286,2.062,0.859,2.724c0.573,0.663,1.339,0.993,2.299,0.993c0.981,0,1.735-0.325,2.261-0.977c0.526-0.652,0.79-1.58,0.79-2.783c0-1.209-0.263-2.145-0.79-2.803C96.168,533.799,95.415,533.47,94.434,533.47z"/><path fill="#FFFFFF" d="M105.079,542.739h-2.503v-16.285h2.503V542.739z"/><path fill="#FFFFFF" d="M117.637,537.917h-7.498c0.028,1.017,0.342,1.801,0.94,2.352c0.598,0.553,1.419,0.828,2.465,0.828c1.174,0,2.252-0.352,3.233-1.053v2.008c-1.003,0.631-2.328,0.945-3.975,0.945c-1.619,0-2.888-0.499-3.808-1.498c-0.92-0.999-1.38-2.404-1.38-4.217c0-1.711,0.506-3.105,1.52-4.184c1.013-1.078,2.272-1.617,3.776-1.617s2.667,0.484,3.491,1.451c0.823,0.967,1.235,2.309,1.235,4.027V537.917z M115.23,536.155c-0.007-0.896-0.219-1.592-0.634-2.09c-0.416-0.498-0.988-0.746-1.719-0.746c-0.716,0-1.323,0.262-1.821,0.783c-0.498,0.523-0.804,1.207-0.918,2.053H115.23z"/><path fill="#FFFFFF" d="M45.374,569.14h-3.158l-4.275-5.285h-0.043v5.285h-2.503v-16.285h2.503v10.323h0.043l4.039-5.038h2.997l-4.544,5.307L45.374,569.14z"/><path fill="#FFFFFF" d="M55.869,564.316h-7.498c0.028,1.017,0.342,1.802,0.94,2.353c0.598,0.552,1.419,0.827,2.465,0.827c1.174,0,2.252-0.351,3.233-1.053v2.009c-1.003,0.631-2.328,0.945-3.975,0.945c-1.619,0-2.888-0.5-3.808-1.498c-0.92-1-1.38-2.404-1.38-4.217c0-1.711,0.506-3.105,1.52-4.184c1.013-1.078,2.272-1.617,3.776-1.617s2.667,0.483,3.491,1.45c0.823,0.967,1.235,2.31,1.235,4.028V564.316z M53.463,562.555c-0.007-0.896-0.219-1.591-0.634-2.089c-0.416-0.498-0.988-0.747-1.719-0.747c-0.716,0-1.323,0.262-1.821,0.784c-0.498,0.523-0.804,1.207-0.918,2.052H53.463z"/><path fill="#FFFFFF" d="M67.771,558.14l-4.963,12.762c-1.031,2.277-2.478,3.416-4.34,3.416c-0.523,0-0.96-0.047-1.311-0.14v-2.073c0.394,0.129,0.752,0.193,1.074,0.193c0.931,0,1.625-0.459,2.084-1.375l0.741-1.805l-4.372-10.979h2.761l2.621,7.992c0.028,0.101,0.093,0.365,0.193,0.795h0.054c0.036-0.164,0.1-0.422,0.193-0.773l2.75-8.014H67.771z"/><path fill="#FFFFFF" d="M71.961,567.55h-0.043v1.59h-2.492v-16.285h2.492v7.219h0.043c0.852-1.461,2.098-2.191,3.738-2.191c1.389,0,2.476,0.492,3.26,1.477c0.784,0.985,1.176,2.305,1.176,3.959c0,1.841-0.44,3.314-1.321,4.42c-0.881,1.107-2.084,1.66-3.609,1.66C73.772,569.397,72.691,568.782,71.961,567.55z M71.896,563.178v1.364c0,0.803,0.256,1.482,0.768,2.041c0.512,0.559,1.162,0.838,1.95,0.838c0.924,0,1.649-0.359,2.175-1.08c0.526-0.719,0.79-1.724,0.79-3.013c0-1.081-0.246-1.929-0.736-2.54c-0.491-0.613-1.155-0.919-1.993-0.919c-0.888,0-1.603,0.315-2.143,0.945C72.167,561.444,71.896,562.232,71.896,563.178z"/><path fill="#FFFFFF" d="M87.559,569.397c-1.697,0-3.053-0.514-4.066-1.541c-1.014-1.027-1.52-2.391-1.52-4.088c0-1.848,0.528-3.291,1.584-4.329c1.056-1.038,2.479-1.558,4.27-1.558c1.719,0,3.058,0.505,4.018,1.515c0.959,1.01,1.439,2.41,1.439,4.2c0,1.755-0.518,3.16-1.552,4.217C90.697,568.87,89.306,569.397,87.559,569.397z M87.677,559.869c-0.974,0-1.744,0.341-2.31,1.021c-0.566,0.681-0.849,1.619-0.849,2.814c0,1.153,0.286,2.061,0.859,2.723c0.573,0.663,1.339,0.994,2.299,0.994c0.981,0,1.735-0.326,2.261-0.978s0.79-1.579,0.79-2.782c0-1.21-0.263-2.145-0.79-2.804S88.658,559.869,87.677,559.869z"/><path fill="#FFFFFF" d="M104.005,569.14h-2.417v-1.719h-0.043c-0.759,1.318-1.873,1.977-3.341,1.977c-1.082,0-1.928-0.293-2.541-0.881c-0.612-0.587-0.918-1.364-0.918-2.331c0-2.077,1.196-3.287,3.588-3.631l3.266-0.462c0-1.568-0.745-2.353-2.234-2.353c-1.311,0-2.492,0.451-3.545,1.354v-2.181c1.16-0.688,2.499-1.031,4.018-1.031c2.778,0,4.168,1.368,4.168,4.104V569.14z M101.599,563.736l-2.31,0.322c-0.716,0.093-1.255,0.267-1.617,0.521c-0.362,0.255-0.542,0.701-0.542,1.338c0,0.466,0.167,0.848,0.5,1.145s0.779,0.445,1.337,0.445c0.759,0,1.387-0.267,1.885-0.801c0.498-0.533,0.747-1.204,0.747-2.014V563.736z"/><path fill="#FFFFFF" d="M113.426,560.514c-0.301-0.236-0.734-0.354-1.3-0.354c-0.738,0-1.354,0.333-1.848,0.999s-0.741,1.572-0.741,2.718v5.264h-2.492v-11h2.492v2.267h0.043c0.243-0.773,0.618-1.376,1.123-1.81s1.069-0.65,1.692-0.65c0.451,0,0.795,0.068,1.031,0.204V560.514z"/><path fill="#FFFFFF" d="M124.995,569.14h-2.492v-1.869h-0.043c-0.802,1.418-2.038,2.127-3.706,2.127c-1.354,0-2.437-0.492-3.25-1.477c-0.813-0.984-1.219-2.326-1.219-4.023c0-1.818,0.449-3.276,1.348-4.372c0.898-1.096,2.096-1.644,3.593-1.644c1.482,0,2.56,0.595,3.233,1.783h0.043v-6.811h2.492V569.14z M122.535,564.112v-1.439c0-0.78-0.254-1.443-0.763-1.987c-0.509-0.544-1.157-0.816-1.944-0.816c-0.931,0-1.664,0.348-2.197,1.042c-0.534,0.695-0.8,1.658-0.8,2.89c0,1.117,0.256,2,0.768,2.647c0.512,0.648,1.201,0.973,2.068,0.973c0.852,0,1.543-0.313,2.073-0.939C122.27,565.854,122.535,565.065,122.535,564.112z"/><path fill="#FFFFFF" d="M56.766,582.229c-0.408,0-0.757-0.132-1.047-0.396c-0.29-0.266-0.435-0.602-0.435-1.01s0.145-0.748,0.435-1.021c0.29-0.271,0.639-0.408,1.047-0.408c0.422,0,0.78,0.137,1.074,0.408c0.293,0.273,0.44,0.613,0.44,1.021c0,0.387-0.147,0.718-0.44,0.993C57.546,582.093,57.188,582.229,56.766,582.229z M58.001,595.54h-2.492v-11h2.492V595.54z"/><path fill="#FFFFFF" d="M71.053,595.54h-2.492v-6.199c0-2.055-0.727-3.082-2.181-3.082c-0.759,0-1.386,0.284-1.88,0.854s-0.741,1.287-0.741,2.154v6.273h-2.503v-11h2.503v1.826h0.043c0.823-1.39,2.012-2.084,3.566-2.084c1.196,0,2.109,0.389,2.739,1.165c0.63,0.777,0.945,1.899,0.945,3.368V595.54z"/><path fill="#FFFFFF" d="M76.628,593.917h-0.043v6.682h-2.492V584.54h2.492v1.934h0.043c0.852-1.461,2.098-2.191,3.738-2.191c1.396,0,2.485,0.49,3.266,1.471c0.78,0.982,1.171,2.299,1.171,3.953c0,1.834-0.44,3.303-1.321,4.404c-0.881,1.104-2.084,1.654-3.609,1.654C78.469,595.765,77.387,595.149,76.628,593.917z M76.564,589.577v1.365c0,0.802,0.256,1.482,0.768,2.041c0.512,0.559,1.162,0.838,1.95,0.838c0.924,0,1.649-0.36,2.175-1.08s0.79-1.725,0.79-3.014c0-1.08-0.246-1.928-0.736-2.54c-0.491-0.612-1.155-0.919-1.993-0.919c-0.888,0-1.603,0.316-2.143,0.945C76.834,587.845,76.564,588.632,76.564,589.577z"/><path fill="#FFFFFF" d="M96.942,595.54H94.45v-1.74h-0.043c-0.724,1.332-1.848,1.998-3.373,1.998c-2.6,0-3.899-1.562-3.899-4.684v-6.574h2.492v6.316c0,1.977,0.763,2.965,2.288,2.965c0.737,0,1.344-0.272,1.821-0.816c0.476-0.545,0.714-1.258,0.714-2.139v-6.326h2.492V595.54z"/><path fill="#FFFFFF" d="M105.987,595.421c-0.487,0.244-1.128,0.365-1.923,0.365c-2.134,0-3.201-1.023-3.201-3.072v-6.219h-1.837v-1.955h1.837v-2.547l2.492-0.709v3.256h2.632v1.955h-2.632v5.5c0,0.651,0.118,1.117,0.354,1.396s0.63,0.418,1.182,0.418c0.422,0,0.788-0.121,1.096-0.365V595.421z"/></g></g><g><circle fill="#EF4D41" cx="80.2" cy="160.999" r="80.2"/><g><path fill="#FFFFFF" d="M51.508,153.885c-0.881,0.508-1.923,0.763-3.126,0.763c-1.633,0-2.951-0.51-3.953-1.531c-1.003-1.021-1.504-2.343-1.504-3.969c0-1.812,0.539-3.267,1.617-4.367c1.078-1.099,2.519-1.649,4.324-1.649c1.002,0,1.887,0.176,2.653,0.526v2.32c-0.767-0.573-1.583-0.859-2.449-0.859c-1.053,0-1.916,0.356-2.589,1.069c-0.673,0.713-1.01,1.646-1.01,2.798c0,1.139,0.317,2.038,0.951,2.696c0.634,0.659,1.484,0.988,2.551,0.988c0.895,0,1.74-0.318,2.535-0.956V153.885z"/><path fill="#FFFFFF" d="M58.855,154.648c-1.697,0-3.053-0.514-4.066-1.542c-1.014-1.027-1.52-2.39-1.52-4.087c0-1.848,0.528-3.291,1.584-4.329c1.056-1.038,2.479-1.558,4.27-1.558c1.719,0,3.058,0.505,4.018,1.515c0.959,1.01,1.439,2.41,1.439,4.2c0,1.755-0.518,3.16-1.552,4.216C61.994,154.12,60.603,154.648,58.855,154.648z M58.974,145.12c-0.974,0-1.744,0.34-2.31,1.021c-0.566,0.681-0.849,1.619-0.849,2.814c0,1.153,0.286,2.061,0.859,2.723c0.573,0.663,1.339,0.994,2.299,0.994c0.981,0,1.735-0.326,2.261-0.978c0.526-0.651,0.79-1.579,0.79-2.782c0-1.21-0.263-2.145-0.79-2.804C60.708,145.449,59.955,145.12,58.974,145.12z"/><path fill="#FFFFFF" d="M76.913,154.39h-2.492v-6.198c0-2.055-0.727-3.083-2.181-3.083c-0.759,0-1.386,0.285-1.88,0.854s-0.741,1.288-0.741,2.154v6.273h-2.503v-11h2.503v1.826h0.043c0.823-1.389,2.012-2.084,3.566-2.084c1.196,0,2.109,0.389,2.739,1.166c0.63,0.777,0.945,1.9,0.945,3.368V154.39z"/><path fill="#FFFFFF" d="M79.266,154.046v-2.31c0.931,0.709,1.958,1.063,3.083,1.063c1.504,0,2.256-0.444,2.256-1.332c0-0.25-0.064-0.463-0.193-0.639c-0.129-0.175-0.303-0.331-0.521-0.467c-0.219-0.136-0.477-0.258-0.773-0.365c-0.297-0.107-0.628-0.229-0.994-0.365c-0.451-0.179-0.858-0.369-1.219-0.569c-0.362-0.2-0.663-0.428-0.902-0.682c-0.24-0.254-0.421-0.542-0.542-0.865c-0.122-0.322-0.183-0.698-0.183-1.128c0-0.53,0.125-0.997,0.376-1.402c0.25-0.404,0.587-0.745,1.01-1.021c0.422-0.275,0.902-0.483,1.439-0.623s1.092-0.209,1.665-0.209c1.017,0,1.926,0.154,2.729,0.462v2.181c-0.773-0.53-1.662-0.795-2.664-0.795c-0.315,0-0.6,0.032-0.854,0.097c-0.254,0.064-0.471,0.154-0.65,0.269c-0.179,0.115-0.319,0.252-0.419,0.414c-0.101,0.161-0.15,0.338-0.15,0.532c0,0.236,0.05,0.437,0.15,0.602c0.1,0.165,0.249,0.31,0.446,0.435c0.197,0.125,0.433,0.24,0.709,0.344c0.275,0.104,0.592,0.217,0.951,0.338c0.473,0.193,0.897,0.391,1.273,0.591c0.376,0.201,0.696,0.428,0.961,0.682c0.265,0.254,0.469,0.548,0.612,0.881c0.143,0.333,0.215,0.729,0.215,1.187c0,0.559-0.129,1.046-0.387,1.461c-0.258,0.416-0.602,0.759-1.031,1.031c-0.43,0.272-0.926,0.475-1.488,0.607c-0.563,0.132-1.155,0.199-1.778,0.199C81.188,154.648,80.146,154.447,79.266,154.046z"/><path fill="#FFFFFF" d="M94.315,154.648c-1.697,0-3.053-0.514-4.066-1.542c-1.014-1.027-1.52-2.39-1.52-4.087c0-1.848,0.528-3.291,1.584-4.329c1.056-1.038,2.479-1.558,4.27-1.558c1.719,0,3.058,0.505,4.018,1.515c0.959,1.01,1.439,2.41,1.439,4.2c0,1.755-0.518,3.16-1.552,4.216C97.454,154.12,96.063,154.648,94.315,154.648z M94.434,145.12c-0.974,0-1.744,0.34-2.31,1.021c-0.566,0.681-0.849,1.619-0.849,2.814c0,1.153,0.286,2.061,0.859,2.723c0.573,0.663,1.339,0.994,2.299,0.994c0.981,0,1.735-0.326,2.261-0.978c0.526-0.651,0.79-1.579,0.79-2.782c0-1.21-0.263-2.145-0.79-2.804C96.168,145.449,95.415,145.12,94.434,145.12z"/><path fill="#FFFFFF" d="M105.079,154.39h-2.503v-16.285h2.503V154.39z"/><path fill="#FFFFFF" d="M117.637,149.567h-7.498c0.028,1.017,0.342,1.801,0.94,2.353c0.598,0.552,1.419,0.827,2.465,0.827c1.174,0,2.252-0.351,3.233-1.053v2.009c-1.003,0.63-2.328,0.945-3.975,0.945c-1.619,0-2.888-0.5-3.808-1.499c-0.92-0.999-1.38-2.404-1.38-4.216c0-1.711,0.506-3.106,1.52-4.184c1.013-1.078,2.272-1.617,3.776-1.617s2.667,0.483,3.491,1.45c0.823,0.967,1.235,2.31,1.235,4.028V149.567z M115.23,147.805c-0.007-0.895-0.219-1.591-0.634-2.089c-0.416-0.498-0.988-0.747-1.719-0.747c-0.716,0-1.323,0.262-1.821,0.784c-0.498,0.523-0.804,1.207-0.918,2.052H115.23z"/><path fill="#FFFFFF" d="M52.716,181.048c-1.697,0-3.053-0.514-4.066-1.542c-1.014-1.027-1.52-2.39-1.52-4.087c0-1.848,0.528-3.291,1.584-4.329c1.056-1.038,2.479-1.558,4.27-1.558c1.719,0,3.058,0.505,4.018,1.515c0.959,1.01,1.439,2.41,1.439,4.2c0,1.755-0.518,3.16-1.552,4.216C55.854,180.52,54.463,181.048,52.716,181.048z M52.834,171.52c-0.974,0-1.744,0.34-2.31,1.021c-0.566,0.681-0.849,1.619-0.849,2.814c0,1.153,0.286,2.061,0.859,2.723c0.573,0.663,1.339,0.994,2.299,0.994c0.981,0,1.735-0.326,2.261-0.978c0.526-0.651,0.79-1.579,0.79-2.782c0-1.21-0.263-2.145-0.79-2.804C54.569,171.849,53.815,171.52,52.834,171.52z"/><path fill="#FFFFFF" d="M70.57,180.79h-2.492v-1.74h-0.043c-0.724,1.332-1.848,1.998-3.373,1.998c-2.6,0-3.899-1.561-3.899-4.684v-6.574h2.492v6.316c0,1.977,0.763,2.965,2.288,2.965c0.737,0,1.344-0.272,1.821-0.816c0.476-0.544,0.714-1.257,0.714-2.138v-6.327h2.492V180.79z"/><path fill="#FFFFFF" d="M79.615,180.672c-0.487,0.243-1.128,0.365-1.923,0.365c-2.134,0-3.201-1.024-3.201-3.072v-6.22h-1.837v-1.955h1.837v-2.546l2.492-0.709v3.255h2.632v1.955h-2.632v5.5c0,0.652,0.118,1.117,0.354,1.396s0.63,0.419,1.182,0.419c0.422,0,0.788-0.122,1.096-0.365V180.672z"/><path fill="#FFFFFF" d="M84.298,179.168h-0.043v6.682h-2.492v-16.06h2.492v1.934h0.043c0.852-1.461,2.098-2.191,3.738-2.191c1.396,0,2.485,0.491,3.266,1.472c0.78,0.981,1.171,2.299,1.171,3.953c0,1.833-0.44,3.302-1.321,4.404c-0.881,1.103-2.084,1.654-3.609,1.654C86.139,181.016,85.057,180.4,84.298,179.168z M84.234,174.828v1.364c0,0.802,0.256,1.482,0.768,2.041c0.512,0.559,1.162,0.838,1.95,0.838c0.924,0,1.649-0.36,2.175-1.08s0.79-1.724,0.79-3.013c0-1.081-0.246-1.928-0.736-2.541c-0.491-0.612-1.155-0.918-1.993-0.918c-0.888,0-1.603,0.315-2.143,0.945C84.504,173.095,84.234,173.883,84.234,174.828z"/><path fill="#FFFFFF" d="M104.612,180.79h-2.492v-1.74h-0.043c-0.724,1.332-1.848,1.998-3.373,1.998c-2.6,0-3.899-1.561-3.899-4.684v-6.574h2.492v6.316c0,1.977,0.763,2.965,2.288,2.965c0.737,0,1.344-0.272,1.821-0.816c0.476-0.544,0.714-1.257,0.714-2.138v-6.327h2.492V180.79z"/><path fill="#FFFFFF" d="M113.657,180.672c-0.487,0.243-1.128,0.365-1.923,0.365c-2.134,0-3.201-1.024-3.201-3.072v-6.22h-1.837v-1.955h1.837v-2.546l2.492-0.709v3.255h2.632v1.955h-2.632v5.5c0,0.652,0.118,1.117,0.354,1.396s0.63,0.419,1.182,0.419c0.422,0,0.788-0.122,1.096-0.365V180.672z"/></g></g><g><circle fill="#3E8ACE" cx="439.2" cy="361.998" r="120.3"/><g><path fill="#FFFFFF" d="M429.363,334.285h-2.643v-9.475c0-1.826-0.283-3.147-0.846-3.964c-0.564-0.816-1.513-1.225-2.845-1.225c-1.128,0-2.087,0.516-2.876,1.547s-1.185,2.267-1.185,3.706v9.41h-2.643v-9.797c0-3.244-1.251-4.866-3.755-4.866c-1.16,0-2.115,0.486-2.867,1.458c-0.752,0.973-1.129,2.237-1.129,3.795v9.41h-2.643v-16.5h2.643v2.61h0.064c1.172-1.998,2.879-2.997,5.125-2.997c1.127,0,2.11,0.314,2.948,0.942c0.838,0.629,1.413,1.453,1.724,2.474c1.225-2.277,3.051-3.416,5.479-3.416c3.631,0,5.447,2.24,5.447,6.719V334.285z"/><path fill="#FFFFFF" d="M446.169,334.285h-2.643v-2.578h-0.064c-1.149,1.977-2.841,2.965-5.075,2.965c-1.645,0-2.931-0.436-3.859-1.305c-0.93-0.871-1.395-2.025-1.395-3.465c0-3.083,1.816-4.877,5.447-5.382l4.946-0.692c0-2.805-1.134-4.206-3.399-4.206c-1.988,0-3.781,0.677-5.383,2.03v-2.707c1.623-1.031,3.492-1.547,5.607-1.547c3.879,0,5.817,2.052,5.817,6.155V334.285z M443.526,325.938l-3.979,0.548c-1.225,0.172-2.148,0.476-2.771,0.91c-0.623,0.436-0.936,1.206-0.936,2.313c0,0.806,0.287,1.464,0.863,1.974c0.574,0.511,1.34,0.766,2.295,0.766c1.311,0,2.393-0.459,3.248-1.378c0.854-0.918,1.28-2.081,1.28-3.488V325.938z"/><path fill="#FFFFFF" d="M452.502,313.596c-0.473,0-0.876-0.161-1.209-0.483s-0.5-0.73-0.5-1.225s0.167-0.905,0.5-1.232s0.736-0.491,1.209-0.491c0.482,0,0.895,0.164,1.232,0.491s0.508,0.738,0.508,1.232c0,0.473-0.17,0.876-0.508,1.208C453.396,313.43,452.984,313.596,452.502,313.596z M453.791,334.285h-2.643v-16.5h2.643V334.285z"/><path fill="#FFFFFF" d="M472.836,334.285h-2.643v-9.41c0-3.502-1.277-5.253-3.834-5.253c-1.322,0-2.415,0.497-3.279,1.49c-0.865,0.994-1.297,2.248-1.297,3.763v9.41h-2.643v-16.5h2.643v2.739h0.064c1.246-2.084,3.051-3.126,5.414-3.126c1.805,0,3.185,0.583,4.141,1.748c0.956,1.166,1.434,2.85,1.434,5.052V334.285z"/><path fill="#FFFFFF" d="M415.006,372.564c0,6.059-2.9,9.088-8.701,9.088c-2.041,0-3.824-0.387-5.35-1.16v-2.643c1.858,1.031,3.631,1.547,5.317,1.547c4.061,0,6.092-2.16,6.092-6.479v-1.805h-0.064c-1.258,2.105-3.148,3.158-5.672,3.158c-2.053,0-3.704-0.732-4.955-2.199c-1.252-1.467-1.877-3.435-1.877-5.905c0-2.804,0.674-5.032,2.022-6.687c1.348-1.654,3.193-2.482,5.535-2.482c2.224,0,3.873,0.893,4.947,2.676h0.064v-2.289h2.643V372.564z M412.363,366.425v-2.433c0-1.311-0.443-2.434-1.33-3.368s-1.99-1.401-3.311-1.401c-1.633,0-2.912,0.594-3.836,1.779c-0.924,1.188-1.385,2.85-1.385,4.988c0,1.836,0.443,3.306,1.328,4.406c0.887,1.102,2.061,1.652,3.521,1.652c1.482,0,2.688-0.527,3.617-1.58S412.363,368.068,412.363,366.425z"/><path fill="#FFFFFF" d="M432.166,373.885h-2.643v-2.578h-0.064c-1.149,1.977-2.842,2.965-5.076,2.965c-1.643,0-2.93-0.435-3.859-1.305c-0.929-0.87-1.393-2.025-1.393-3.465c0-3.082,1.814-4.877,5.445-5.381l4.947-0.693c0-2.804-1.133-4.205-3.4-4.205c-1.986,0-3.781,0.676-5.381,2.029v-2.707c1.621-1.031,3.49-1.547,5.607-1.547c3.877,0,5.816,2.053,5.816,6.156V373.885z M429.523,365.539l-3.98,0.547c-1.225,0.172-2.148,0.477-2.771,0.91c-0.623,0.436-0.934,1.207-0.934,2.313c0,0.807,0.287,1.465,0.861,1.975s1.34,0.766,2.297,0.766c1.311,0,2.393-0.459,3.246-1.379c0.854-0.918,1.281-2.08,1.281-3.488V365.539z"/><path fill="#FFFFFF" d="M460.574,373.885h-2.643v-9.475c0-1.826-0.283-3.146-0.846-3.963c-0.564-0.816-1.513-1.225-2.845-1.225c-1.128,0-2.087,0.516-2.876,1.547s-1.185,2.266-1.185,3.705v9.41h-2.643v-9.797c0-3.244-1.251-4.865-3.755-4.865c-1.16,0-2.115,0.486-2.867,1.457c-0.752,0.973-1.129,2.238-1.129,3.795v9.41h-2.643v-16.5h2.643v2.611h0.064c1.172-1.998,2.879-2.998,5.125-2.998c1.127,0,2.11,0.314,2.948,0.943s1.413,1.453,1.724,2.473c1.225-2.277,3.051-3.416,5.479-3.416c3.631,0,5.447,2.24,5.447,6.72V373.885z"/><path fill="#FFFFFF" d="M478.83,366.296h-11.65c0.043,1.837,0.537,3.255,1.482,4.254s2.246,1.499,3.9,1.499c1.857,0,3.566-0.613,5.123-1.838v2.482c-1.449,1.053-3.367,1.578-5.752,1.578c-2.331,0-4.162-0.748-5.494-2.248c-1.332-1.498-1.998-3.605-1.998-6.324c0-2.566,0.727-4.658,2.184-6.275c1.455-1.617,3.262-2.426,5.422-2.426c2.158,0,3.829,0.699,5.011,2.096s1.772,3.335,1.772,5.816V366.296z M476.123,364.057c-0.011-1.525-0.379-2.713-1.104-3.562s-1.732-1.272-3.021-1.272c-1.246,0-2.305,0.445-3.174,1.337c-0.871,0.892-1.408,2.058-1.611,3.497H476.123z"/><path fill="#FFFFFF" d="M389.442,411.101h-0.064v9.975h-2.643v-24.09h2.643v2.9h0.064c1.3-2.191,3.201-3.287,5.704-3.287c2.127,0,3.787,0.739,4.979,2.216s1.789,3.456,1.789,5.938c0,2.761-0.672,4.971-2.015,6.631c-1.343,1.659-3.18,2.489-5.511,2.489C392.251,413.872,390.602,412.948,389.442,411.101z M389.377,404.446v2.304c0,1.364,0.443,2.521,1.329,3.473c0.887,0.95,2.012,1.426,3.376,1.426c1.601,0,2.854-0.612,3.763-1.837c0.907-1.225,1.361-2.928,1.361-5.107c0-1.838-0.424-3.276-1.273-4.319c-0.849-1.041-1.998-1.563-3.448-1.563c-1.536,0-2.771,0.535-3.706,1.604S389.377,402.835,389.377,404.446z"/><path fill="#FFFFFF" d="M414.74,399.66c-0.463-0.354-1.129-0.531-1.998-0.531c-1.129,0-2.07,0.531-2.828,1.595s-1.137,2.514-1.137,4.351v8.411h-2.643v-16.5h2.643v3.399h0.064c0.377-1.16,0.951-2.064,1.725-2.715c0.773-0.649,1.639-0.975,2.594-0.975c0.688,0,1.215,0.075,1.58,0.226V399.66z"/><path fill="#FFFFFF" d="M424.069,413.872c-2.438,0-4.386-0.771-5.841-2.313c-1.456-1.541-2.184-3.585-2.184-6.131c0-2.771,0.758-4.937,2.271-6.493c1.516-1.559,3.562-2.337,6.14-2.337c2.46,0,4.38,0.757,5.761,2.272c1.38,1.514,2.07,3.614,2.07,6.3c0,2.632-0.744,4.74-2.231,6.324C428.567,413.08,426.572,413.872,424.069,413.872z M424.263,398.822c-1.697,0-3.04,0.578-4.028,1.732s-1.482,2.747-1.482,4.777c0,1.955,0.5,3.497,1.498,4.624c1,1.129,2.337,1.692,4.013,1.692c1.708,0,3.021-0.554,3.939-1.659c0.919-1.107,1.378-2.681,1.378-4.722c0-2.063-0.459-3.652-1.378-4.77C427.284,399.381,425.971,398.822,424.263,398.822z"/><path fill="#FFFFFF" d="M447.756,412.728c-1.268,0.764-2.771,1.145-4.512,1.145c-2.353,0-4.252-0.766-5.696-2.296c-1.444-1.531-2.167-3.516-2.167-5.954c0-2.718,0.779-4.901,2.336-6.55c1.559-1.648,3.637-2.474,6.236-2.474c1.45,0,2.729,0.269,3.835,0.806v2.707c-1.225-0.859-2.535-1.289-3.932-1.289c-1.687,0-3.069,0.604-4.149,1.813c-1.079,1.209-1.619,2.796-1.619,4.762c0,1.934,0.508,3.459,1.522,4.576c1.016,1.117,2.377,1.676,4.085,1.676c1.439,0,2.793-0.478,4.061-1.435V412.728z"/><path fill="#FFFFFF" d="M465.014,405.896h-11.65c0.043,1.838,0.537,3.256,1.482,4.254c0.945,1,2.245,1.499,3.899,1.499c1.858,0,3.566-0.612,5.124-1.837v2.481c-1.45,1.053-3.367,1.579-5.752,1.579c-2.332,0-4.163-0.749-5.495-2.248c-1.332-1.498-1.998-3.606-1.998-6.324c0-2.567,0.728-4.659,2.184-6.276c1.455-1.616,3.263-2.425,5.422-2.425s3.829,0.698,5.011,2.095s1.773,3.335,1.773,5.817V405.896z M462.307,403.656c-0.012-1.525-0.379-2.713-1.104-3.561c-0.725-0.85-1.731-1.273-3.021-1.273c-1.246,0-2.305,0.445-3.175,1.338c-0.87,0.891-1.407,2.057-1.611,3.496H462.307z"/><path fill="#FFFFFF" d="M468.01,412.89v-2.836c1.439,1.063,3.024,1.595,4.754,1.595c2.32,0,3.48-0.773,3.48-2.32c0-0.44-0.1-0.813-0.299-1.12c-0.198-0.306-0.467-0.577-0.805-0.813s-0.736-0.448-1.193-0.637c-0.456-0.188-0.947-0.384-1.474-0.588c-0.73-0.29-1.372-0.583-1.925-0.878c-0.555-0.295-1.016-0.629-1.387-0.999c-0.371-0.371-0.65-0.792-0.838-1.265s-0.281-1.026-0.281-1.66c0-0.773,0.177-1.458,0.531-2.055c0.354-0.596,0.827-1.096,1.418-1.498c0.591-0.403,1.266-0.706,2.021-0.911c0.758-0.203,1.539-0.306,2.346-0.306c1.428,0,2.707,0.247,3.834,0.741v2.675c-1.213-0.795-2.609-1.192-4.189-1.192c-0.494,0-0.939,0.057-1.337,0.169c-0.397,0.113-0.739,0.271-1.022,0.476c-0.285,0.204-0.506,0.449-0.662,0.733c-0.155,0.284-0.232,0.599-0.232,0.942c0,0.43,0.077,0.79,0.232,1.079c0.156,0.291,0.385,0.549,0.686,0.773c0.301,0.227,0.666,0.43,1.096,0.613c0.43,0.182,0.918,0.381,1.467,0.596c0.73,0.279,1.385,0.566,1.965,0.862s1.074,0.628,1.482,0.999c0.408,0.37,0.723,0.797,0.943,1.281c0.22,0.482,0.33,1.058,0.33,1.724c0,0.816-0.18,1.525-0.539,2.127c-0.361,0.602-0.842,1.101-1.443,1.499c-0.602,0.396-1.294,0.692-2.078,0.886s-1.605,0.29-2.465,0.29C470.729,413.872,469.256,413.544,468.01,412.89z"/><path fill="#FFFFFF" d="M482.013,412.89v-2.836c1.439,1.063,3.024,1.595,4.753,1.595c2.32,0,3.48-0.773,3.48-2.32c0-0.44-0.1-0.813-0.298-1.12c-0.198-0.306-0.467-0.577-0.806-0.813c-0.338-0.236-0.736-0.448-1.192-0.637c-0.456-0.188-0.948-0.384-1.474-0.588c-0.73-0.29-1.373-0.583-1.926-0.878c-0.554-0.295-1.016-0.629-1.386-0.999c-0.371-0.371-0.65-0.792-0.838-1.265c-0.188-0.473-0.282-1.026-0.282-1.66c0-0.773,0.178-1.458,0.531-2.055c0.355-0.596,0.828-1.096,1.418-1.498c0.592-0.403,1.266-0.706,2.022-0.911c0.758-0.203,1.539-0.306,2.345-0.306c1.429,0,2.707,0.247,3.835,0.741v2.675c-1.214-0.795-2.61-1.192-4.189-1.192c-0.494,0-0.94,0.057-1.337,0.169c-0.398,0.113-0.739,0.271-1.023,0.476c-0.285,0.204-0.506,0.449-0.661,0.733s-0.233,0.599-0.233,0.942c0,0.43,0.078,0.79,0.233,1.079c0.155,0.291,0.384,0.549,0.685,0.773c0.301,0.227,0.666,0.43,1.096,0.613c0.43,0.182,0.919,0.381,1.467,0.596c0.73,0.279,1.386,0.566,1.966,0.862s1.074,0.628,1.482,0.999c0.408,0.37,0.722,0.797,0.942,1.281c0.221,0.482,0.33,1.058,0.33,1.724c0,0.816-0.18,1.525-0.539,2.127c-0.36,0.602-0.841,1.101-1.442,1.499c-0.602,0.396-1.294,0.692-2.079,0.886c-0.783,0.193-1.605,0.29-2.465,0.29C484.73,413.872,483.259,413.544,482.013,412.89z"/></g></g><circle fill="#E08B1B" cx="439.2" cy="80.999" r="80.2"/><g><path fill="#FFFFFF" d="M427.083,74.272c-0.487,0.243-1.128,0.365-1.923,0.365c-2.135,0-3.201-1.024-3.201-3.072v-6.22h-1.837V63.39h1.837v-2.546l2.492-0.709v3.255h2.632v1.955h-2.632v5.5c0,0.652,0.118,1.117,0.354,1.396s0.63,0.419,1.182,0.419c0.423,0,0.788-0.122,1.096-0.365V74.272z"/><path fill="#FFFFFF" d="M430.488,61.081c-0.408,0-0.758-0.132-1.047-0.397c-0.291-0.265-0.436-0.602-0.436-1.01s0.145-0.748,0.436-1.021c0.289-0.272,0.639-0.408,1.047-0.408c0.422,0,0.78,0.136,1.074,0.408c0.293,0.272,0.44,0.612,0.44,1.021c0,0.387-0.147,0.718-0.44,0.994C431.269,60.943,430.91,61.081,430.488,61.081z M431.724,74.39h-2.492v-11h2.492V74.39z"/><path fill="#FFFFFF" d="M440.779,74.272c-0.487,0.243-1.128,0.365-1.923,0.365c-2.134,0-3.201-1.024-3.201-3.072v-6.22h-1.837V63.39h1.837v-2.546l2.492-0.709v3.255h2.632v1.955h-2.632v5.5c0,0.652,0.118,1.117,0.354,1.396s0.63,0.419,1.182,0.419c0.422,0,0.787-0.122,1.096-0.365V74.272z"/><path fill="#FFFFFF" d="M445.431,74.39h-2.503V58.105h2.503V74.39z"/><path fill="#FFFFFF" d="M457.988,69.567h-7.498c0.028,1.017,0.342,1.801,0.939,2.353c0.598,0.552,1.42,0.827,2.466,0.827c1.175,0,2.252-0.351,3.233-1.053v2.009c-1.003,0.63-2.328,0.945-3.975,0.945c-1.619,0-2.889-0.5-3.809-1.499s-1.38-2.404-1.38-4.216c0-1.711,0.507-3.106,1.521-4.184c1.013-1.078,2.271-1.617,3.775-1.617s2.668,0.483,3.491,1.45s1.235,2.31,1.235,4.028V69.567z M455.582,67.805c-0.008-0.895-0.219-1.591-0.634-2.089c-0.415-0.498-0.988-0.747-1.719-0.747c-0.716,0-1.323,0.262-1.821,0.784c-0.498,0.523-0.804,1.207-0.918,2.052H455.582z"/><path fill="#FFFFFF" d="M410.733,100.79h-2.417v-1.719h-0.043c-0.76,1.318-1.873,1.977-3.341,1.977c-1.081,0-1.929-0.293-2.54-0.881c-0.613-0.587-0.919-1.364-0.919-2.331c0-2.077,1.196-3.287,3.588-3.631l3.266-0.462c0-1.568-0.745-2.353-2.234-2.353c-1.311,0-2.492,0.451-3.545,1.354v-2.181c1.16-0.688,2.499-1.031,4.018-1.031c2.778,0,4.168,1.368,4.168,4.104V100.79z M408.327,95.387l-2.31,0.322c-0.717,0.093-1.256,0.267-1.617,0.521c-0.361,0.254-0.542,0.7-0.542,1.337c0,0.466,0.167,0.847,0.499,1.144c0.334,0.297,0.779,0.446,1.338,0.446c0.759,0,1.387-0.267,1.885-0.8c0.498-0.533,0.747-1.205,0.747-2.014V95.387z"/><path fill="#FFFFFF" d="M413.086,100.446v-2.31c0.931,0.709,1.959,1.063,3.083,1.063c1.504,0,2.256-0.444,2.256-1.332c0-0.25-0.064-0.463-0.193-0.639c-0.129-0.175-0.303-0.331-0.521-0.467c-0.219-0.136-0.477-0.258-0.773-0.365c-0.298-0.107-0.629-0.229-0.994-0.365c-0.451-0.179-0.857-0.369-1.219-0.569c-0.362-0.2-0.663-0.428-0.902-0.682c-0.24-0.254-0.422-0.542-0.543-0.865c-0.122-0.322-0.183-0.698-0.183-1.128c0-0.53,0.125-0.997,0.376-1.402c0.25-0.404,0.587-0.745,1.01-1.021c0.422-0.275,0.902-0.483,1.439-0.623s1.092-0.209,1.665-0.209c1.017,0,1.927,0.154,2.729,0.462v2.181c-0.773-0.53-1.661-0.795-2.664-0.795c-0.315,0-0.601,0.032-0.854,0.097s-0.471,0.154-0.649,0.269c-0.179,0.115-0.319,0.252-0.419,0.414c-0.101,0.161-0.15,0.338-0.15,0.532c0,0.236,0.05,0.437,0.15,0.602c0.1,0.165,0.248,0.31,0.445,0.435c0.197,0.125,0.434,0.24,0.709,0.344c0.275,0.104,0.593,0.217,0.951,0.338c0.473,0.193,0.896,0.391,1.273,0.591c0.375,0.201,0.695,0.428,0.961,0.682c0.265,0.254,0.469,0.548,0.612,0.881s0.215,0.729,0.215,1.187c0,0.559-0.129,1.046-0.387,1.461c-0.258,0.416-0.602,0.759-1.031,1.031c-0.43,0.272-0.926,0.475-1.487,0.607c-0.563,0.132-1.155,0.199-1.778,0.199C415.009,101.048,413.967,100.847,413.086,100.446z"/><path fill="#FFFFFF" d="M431.133,100.285c-0.881,0.508-1.923,0.763-3.126,0.763c-1.633,0-2.95-0.51-3.953-1.531s-1.504-2.343-1.504-3.969c0-1.812,0.538-3.267,1.616-4.367c1.078-1.099,2.52-1.649,4.324-1.649c1.002,0,1.887,0.176,2.653,0.526v2.32c-0.767-0.573-1.583-0.859-2.449-0.859c-1.053,0-1.916,0.356-2.589,1.069c-0.674,0.713-1.01,1.646-1.01,2.798c0,1.139,0.316,2.038,0.951,2.696c0.633,0.659,1.483,0.988,2.551,0.988c0.895,0,1.74-0.318,2.535-0.956V100.285z"/><path fill="#FFFFFF" d="M434.86,87.48c-0.408,0-0.757-0.132-1.048-0.397c-0.289-0.265-0.435-0.602-0.435-1.01s0.146-0.748,0.435-1.021c0.291-0.272,0.64-0.408,1.048-0.408c0.423,0,0.78,0.136,1.074,0.408c0.294,0.272,0.44,0.612,0.44,1.021c0,0.387-0.146,0.718-0.44,0.994C435.641,87.343,435.283,87.48,434.86,87.48z M436.096,100.79h-2.492v-11h2.492V100.79z"/><path fill="#FFFFFF" d="M440.607,87.48c-0.408,0-0.758-0.132-1.047-0.397c-0.291-0.265-0.436-0.602-0.436-1.01s0.145-0.748,0.436-1.021c0.289-0.272,0.639-0.408,1.047-0.408c0.422,0,0.78,0.136,1.074,0.408c0.293,0.272,0.44,0.612,0.44,1.021c0,0.387-0.147,0.718-0.44,0.994C441.388,87.343,441.029,87.48,440.607,87.48z M441.843,100.79h-2.492v-11h2.492V100.79z"/><path fill="#FFFFFF" d="M459.589,100.79h-2.417v-1.719h-0.043c-0.76,1.318-1.873,1.977-3.341,1.977c-1.081,0-1.929-0.293-2.54-0.881c-0.613-0.587-0.919-1.364-0.919-2.331c0-2.077,1.196-3.287,3.588-3.631l3.266-0.462c0-1.568-0.745-2.353-2.234-2.353c-1.311,0-2.492,0.451-3.545,1.354v-2.181c1.16-0.688,2.499-1.031,4.018-1.031c2.778,0,4.168,1.368,4.168,4.104V100.79z M457.183,95.387l-2.31,0.322c-0.717,0.093-1.256,0.267-1.617,0.521c-0.361,0.254-0.542,0.7-0.542,1.337c0,0.466,0.167,0.847,0.499,1.144c0.334,0.297,0.779,0.446,1.338,0.446c0.759,0,1.387-0.267,1.885-0.8c0.498-0.533,0.747-1.205,0.747-2.014V95.387z"/><path fill="#FFFFFF" d="M469.01,92.164c-0.301-0.236-0.734-0.354-1.3-0.354c-0.737,0-1.354,0.333-1.848,0.999s-0.741,1.572-0.741,2.718v5.264h-2.492v-11h2.492v2.267h0.043c0.243-0.773,0.617-1.376,1.123-1.81c0.504-0.433,1.068-0.65,1.691-0.65c0.451,0,0.795,0.068,1.031,0.204V92.164z"/><path fill="#FFFFFF" d="M477.206,100.672c-0.487,0.243-1.128,0.365-1.923,0.365c-2.135,0-3.201-1.024-3.201-3.072v-6.22h-1.837V89.79h1.837v-2.546l2.492-0.709v3.255h2.632v1.955h-2.632v5.5c0,0.652,0.118,1.117,0.354,1.396s0.63,0.419,1.182,0.419c0.423,0,0.788-0.122,1.096-0.365V100.672z"/></g><circle fill="#DBA91F" cx="637.897" cy="163.303" r="80.201"/><circle fill="#CEBA29" cx="720.199" cy="362" r="80.201"/><circle fill="#ACB530" cx="637.896" cy="560.697" r="80.201"/><circle fill="#94B53A" cx="439.2" cy="642.999" r="80.2"/><g><path fill="#FFFFFF" d="M427.384,638.272c-0.487,0.242-1.128,0.365-1.923,0.365c-2.135,0-3.201-1.024-3.201-3.072v-6.221h-1.837v-1.955h1.837v-2.545l2.492-0.709v3.254h2.632v1.955h-2.632v5.5c0,0.652,0.118,1.117,0.354,1.396s0.63,0.42,1.182,0.42c0.423,0,0.788-0.122,1.096-0.365V638.272z"/><path fill="#FFFFFF" d="M438.717,633.567h-7.498c0.028,1.017,0.342,1.801,0.939,2.352c0.598,0.553,1.42,0.828,2.466,0.828c1.175,0,2.252-0.352,3.233-1.053v2.008c-1.003,0.631-2.328,0.945-3.975,0.945c-1.619,0-2.889-0.499-3.809-1.498s-1.38-2.404-1.38-4.217c0-1.711,0.507-3.105,1.521-4.184c1.013-1.078,2.271-1.617,3.775-1.617s2.668,0.484,3.491,1.451s1.235,2.309,1.235,4.027V633.567z M436.311,631.806c-0.008-0.896-0.219-1.592-0.634-2.09s-0.988-0.746-1.719-0.746c-0.716,0-1.323,0.262-1.821,0.783c-0.498,0.523-0.804,1.207-0.918,2.053H436.311z"/><path fill="#FFFFFF" d="M450.286,627.39l-3.663,5.564l3.62,5.436h-2.89l-1.934-3.404c-0.122-0.208-0.266-0.473-0.43-0.795h-0.043c-0.029,0.064-0.18,0.329-0.451,0.795l-1.966,3.404h-2.879l3.738-5.393l-3.545-5.607h2.9l1.901,3.578c0.143,0.265,0.283,0.537,0.419,0.816h0.032l2.46-4.395H450.286z"/><path fill="#FFFFFF" d="M457.913,638.272c-0.487,0.242-1.128,0.365-1.923,0.365c-2.135,0-3.201-1.024-3.201-3.072v-6.221h-1.837v-1.955h1.837v-2.545l2.492-0.709v3.254h2.632v1.955h-2.632v5.5c0,0.652,0.118,1.117,0.354,1.396s0.63,0.42,1.182,0.42c0.423,0,0.788-0.122,1.096-0.365V638.272z"/><path fill="#FFFFFF" d="M389.62,664.79h-2.492v-6.016c0-2.177-0.727-3.266-2.181-3.266c-0.73,0-1.347,0.315-1.848,0.945c-0.501,0.631-0.752,1.436-0.752,2.417v5.919h-2.503v-16.285h2.503v7.111h0.043c0.831-1.389,2.02-2.084,3.566-2.084c2.442,0,3.663,1.493,3.663,4.479V664.79z"/><path fill="#FFFFFF" d="M393.906,651.48c-0.408,0-0.757-0.132-1.047-0.397c-0.29-0.265-0.435-0.602-0.435-1.01s0.145-0.748,0.435-1.021s0.639-0.408,1.047-0.408c0.422,0,0.78,0.136,1.074,0.408c0.293,0.272,0.44,0.612,0.44,1.021c0,0.387-0.147,0.719-0.44,0.994C394.686,651.343,394.328,651.48,393.906,651.48z M395.141,664.79h-2.492v-11h2.492V664.79z"/><path fill="#FFFFFF" d="M408.408,663.909c0,4.039-2.031,6.059-6.092,6.059c-1.432,0-2.682-0.24-3.749-0.72v-2.277c1.203,0.688,2.345,1.031,3.426,1.031c2.614,0,3.922-1.286,3.922-3.856v-1.203h-0.043c-0.824,1.404-2.063,2.105-3.717,2.105c-1.34,0-2.419-0.488-3.239-1.467c-0.82-0.977-1.23-2.289-1.23-3.937c0-1.869,0.44-3.354,1.321-4.458c0.881-1.103,2.091-1.654,3.63-1.654c1.454,0,2.531,0.595,3.234,1.783h0.043v-1.525h2.492V663.909z M405.938,659.752v-1.429c0-0.773-0.257-1.434-0.769-1.982c-0.513-0.547-1.151-0.821-1.917-0.821c-0.945,0-1.686,0.349-2.219,1.048c-0.534,0.697-0.8,1.674-0.8,2.927c0,1.081,0.256,1.946,0.768,2.595c0.512,0.648,1.19,0.972,2.036,0.972c0.859,0,1.557-0.31,2.094-0.929S405.938,660.719,405.938,659.752z"/><path fill="#FFFFFF" d="M421.428,664.79h-2.492v-6.016c0-2.177-0.728-3.266-2.182-3.266c-0.73,0-1.346,0.315-1.848,0.945c-0.501,0.631-0.752,1.436-0.752,2.417v5.919h-2.502v-16.285h2.502v7.111h0.043c0.831-1.389,2.02-2.084,3.566-2.084c2.442,0,3.664,1.493,3.664,4.479V664.79z"/><path fill="#FFFFFF" d="M426.959,664.79h-2.502v-16.285h2.502V664.79z"/><path fill="#FFFFFF" d="M431.461,651.48c-0.408,0-0.758-0.132-1.048-0.397c-0.29-0.265-0.435-0.602-0.435-1.01s0.145-0.748,0.435-1.021s0.64-0.408,1.048-0.408c0.422,0,0.779,0.136,1.074,0.408c0.293,0.272,0.439,0.612,0.439,1.021c0,0.387-0.146,0.719-0.439,0.994C432.24,651.343,431.883,651.48,431.461,651.48z M432.695,664.79h-2.492v-11h2.492V664.79z"/><path fill="#FFFFFF" d="M445.963,663.909c0,4.039-2.031,6.059-6.092,6.059c-1.432,0-2.682-0.24-3.748-0.72v-2.277c1.203,0.688,2.345,1.031,3.426,1.031c2.614,0,3.922-1.286,3.922-3.856v-1.203h-0.043c-0.824,1.404-2.063,2.105-3.717,2.105c-1.34,0-2.42-0.488-3.239-1.467c-0.82-0.977-1.229-2.289-1.229-3.937c0-1.869,0.439-3.354,1.32-4.458c0.881-1.103,2.092-1.654,3.631-1.654c1.454,0,2.531,0.595,3.234,1.783h0.043v-1.525h2.492V663.909z M443.492,659.752v-1.429c0-0.773-0.257-1.434-0.769-1.982c-0.513-0.547-1.151-0.821-1.917-0.821c-0.945,0-1.686,0.349-2.219,1.048c-0.533,0.697-0.801,1.674-0.801,2.927c0,1.081,0.256,1.946,0.769,2.595c0.512,0.648,1.19,0.972,2.036,0.972c0.859,0,1.557-0.31,2.094-0.929S443.492,660.719,443.492,659.752z"/><path fill="#FFFFFF" d="M458.982,664.79h-2.492v-6.016c0-2.177-0.728-3.266-2.182-3.266c-0.73,0-1.346,0.315-1.848,0.945c-0.501,0.631-0.752,1.436-0.752,2.417v5.919h-2.502v-16.285h2.502v7.111h0.043c0.831-1.389,2.02-2.084,3.566-2.084c2.442,0,3.664,1.493,3.664,4.479V664.79z"/><path fill="#FFFFFF" d="M467.813,664.672c-0.488,0.243-1.129,0.365-1.924,0.365c-2.134,0-3.201-1.024-3.201-3.072v-6.22h-1.836v-1.955h1.836v-2.546l2.492-0.709v3.255h2.633v1.955h-2.633v5.5c0,0.652,0.119,1.117,0.355,1.396s0.629,0.419,1.182,0.419c0.422,0,0.787-0.122,1.096-0.365V664.672z"/><path fill="#FFFFFF" d="M471.217,651.48c-0.408,0-0.757-0.132-1.047-0.397c-0.29-0.265-0.436-0.602-0.436-1.01s0.146-0.748,0.436-1.021s0.639-0.408,1.047-0.408c0.423,0,0.781,0.136,1.074,0.408c0.294,0.272,0.441,0.612,0.441,1.021c0,0.387-0.147,0.719-0.441,0.994C471.998,651.343,471.64,651.48,471.217,651.48z M472.453,664.79h-2.492v-11h2.492V664.79z"/><path fill="#FFFFFF" d="M485.504,664.79h-2.492v-6.198c0-2.056-0.727-3.083-2.18-3.083c-0.76,0-1.387,0.285-1.881,0.854c-0.494,0.57-0.74,1.288-0.74,2.154v6.273h-2.504v-11h2.504v1.826h0.043c0.822-1.389,2.012-2.084,3.566-2.084c1.195,0,2.108,0.389,2.738,1.166c0.631,0.777,0.945,1.899,0.945,3.367V664.79z"/><path fill="#FFFFFF" d="M498.557,663.909c0,4.039-2.031,6.059-6.092,6.059c-1.432,0-2.682-0.24-3.748-0.72v-2.277c1.203,0.688,2.345,1.031,3.426,1.031c2.614,0,3.922-1.286,3.922-3.856v-1.203h-0.043c-0.824,1.404-2.063,2.105-3.717,2.105c-1.34,0-2.42-0.488-3.239-1.467c-0.82-0.977-1.229-2.289-1.229-3.937c0-1.869,0.439-3.354,1.32-4.458c0.881-1.103,2.092-1.654,3.631-1.654c1.454,0,2.531,0.595,3.234,1.783h0.043v-1.525h2.492V663.909z M496.086,659.752v-1.429c0-0.773-0.257-1.434-0.769-1.982c-0.513-0.547-1.151-0.821-1.917-0.821c-0.945,0-1.686,0.349-2.219,1.048c-0.533,0.697-0.801,1.674-0.801,2.927c0,1.081,0.256,1.946,0.769,2.595c0.512,0.648,1.19,0.972,2.036,0.972c0.859,0,1.557-0.31,2.094-0.929S496.086,660.719,496.086,659.752z"/></g><g><path fill="#FFFFFF" d="M625.877,156.189c-0.881,0.508-1.924,0.763-3.127,0.763c-1.633,0-2.95-0.51-3.953-1.531c-1.002-1.021-1.504-2.343-1.504-3.969c0-1.812,0.539-3.267,1.617-4.367c1.078-1.099,2.52-1.649,4.324-1.649c1.002,0,1.887,0.176,2.652,0.526v2.32c-0.766-0.573-1.582-0.859-2.449-0.859c-1.053,0-1.916,0.356-2.588,1.069c-0.674,0.713-1.01,1.646-1.01,2.798c0,1.139,0.316,2.038,0.95,2.696c0.634,0.659,1.483,0.988,2.552,0.988c0.895,0,1.74-0.318,2.535-0.956V156.189z"/><path fill="#FFFFFF" d="M636.791,156.694h-2.418v-1.719h-0.043c-0.759,1.318-1.873,1.977-3.34,1.977c-1.082,0-1.929-0.293-2.541-0.881c-0.612-0.587-0.918-1.364-0.918-2.331c0-2.077,1.195-3.287,3.588-3.631l3.266-0.462c0-1.568-0.746-2.353-2.234-2.353c-1.311,0-2.492,0.451-3.545,1.354v-2.181c1.16-0.688,2.498-1.031,4.018-1.031c2.777,0,4.168,1.368,4.168,4.104V156.694z M634.385,151.291l-2.311,0.322c-0.716,0.093-1.255,0.267-1.616,0.521c-0.362,0.254-0.542,0.7-0.542,1.337c0,0.466,0.166,0.847,0.499,1.144c0.333,0.297,0.778,0.446,1.337,0.446c0.76,0,1.388-0.267,1.886-0.8c0.497-0.533,0.747-1.205,0.747-2.014V151.291z"/><path fill="#FFFFFF" d="M646.211,148.068c-0.301-0.236-0.734-0.354-1.299-0.354c-0.738,0-1.354,0.333-1.848,0.999s-0.742,1.572-0.742,2.718v5.264h-2.492v-11h2.492v2.267h0.043c0.244-0.773,0.618-1.376,1.123-1.81c0.505-0.433,1.068-0.65,1.691-0.65c0.451,0,0.795,0.068,1.031,0.204V148.068z"/><path fill="#FFFFFF" d="M657.781,156.694h-2.492v-1.869h-0.043c-0.803,1.418-2.038,2.127-3.707,2.127c-1.354,0-2.437-0.492-3.249-1.477c-0.813-0.984-1.22-2.326-1.22-4.023c0-1.819,0.449-3.276,1.349-4.372c0.898-1.096,2.097-1.644,3.593-1.644c1.482,0,2.561,0.595,3.234,1.783h0.043v-6.811h2.492V156.694z M655.32,151.667v-1.439c0-0.78-0.254-1.443-0.762-1.987c-0.51-0.544-1.157-0.816-1.945-0.816c-0.931,0-1.663,0.348-2.196,1.042c-0.534,0.695-0.8,1.658-0.8,2.89c0,1.117,0.256,2,0.768,2.648c0.512,0.648,1.201,0.972,2.068,0.972c0.852,0,1.543-0.313,2.072-0.94C655.056,153.409,655.32,152.619,655.32,151.667z"/><path fill="#FFFFFF" d="M612.514,183.094h-2.492v-1.869h-0.043c-0.803,1.418-2.038,2.127-3.707,2.127c-1.354,0-2.437-0.492-3.249-1.477c-0.813-0.984-1.22-2.326-1.22-4.023c0-1.819,0.449-3.276,1.349-4.372c0.898-1.096,2.097-1.644,3.593-1.644c1.482,0,2.561,0.595,3.234,1.783h0.043v-6.811h2.492V183.094z M610.053,178.066v-1.439c0-0.78-0.254-1.443-0.762-1.987c-0.51-0.544-1.157-0.816-1.945-0.816c-0.931,0-1.663,0.348-2.196,1.042c-0.534,0.695-0.8,1.658-0.8,2.89c0,1.117,0.256,2,0.768,2.648c0.512,0.648,1.201,0.972,2.068,0.972c0.852,0,1.543-0.313,2.072-0.94C609.788,179.809,610.053,179.019,610.053,178.066z"/><path fill="#FFFFFF" d="M625.082,178.271h-7.498c0.027,1.017,0.342,1.801,0.939,2.353c0.598,0.552,1.42,0.827,2.465,0.827c1.175,0,2.252-0.351,3.234-1.053v2.009c-1.004,0.63-2.328,0.945-3.975,0.945c-1.619,0-2.889-0.5-3.809-1.499s-1.381-2.404-1.381-4.216c0-1.711,0.507-3.106,1.521-4.184c1.013-1.078,2.272-1.617,3.776-1.617s2.667,0.483,3.49,1.45c0.824,0.967,1.236,2.31,1.236,4.028V178.271z M622.676,176.509c-0.008-0.895-0.219-1.591-0.635-2.089c-0.415-0.498-0.988-0.747-1.719-0.747c-0.716,0-1.322,0.262-1.82,0.784c-0.498,0.523-0.805,1.207-0.918,2.052H622.676z"/><path fill="#FFFFFF" d="M635.898,183.094h-2.416v-1.719h-0.043c-0.76,1.318-1.873,1.977-3.342,1.977c-1.081,0-1.928-0.293-2.54-0.881c-0.612-0.587-0.919-1.364-0.919-2.331c0-2.077,1.196-3.287,3.588-3.631l3.266-0.462c0-1.568-0.744-2.353-2.234-2.353c-1.311,0-2.492,0.451-3.545,1.354v-2.181c1.16-0.688,2.5-1.031,4.018-1.031c2.779,0,4.168,1.368,4.168,4.104V183.094z M633.492,177.69l-2.309,0.322c-0.717,0.093-1.256,0.267-1.617,0.521c-0.361,0.254-0.543,0.7-0.543,1.337c0,0.466,0.167,0.847,0.5,1.144c0.333,0.297,0.779,0.446,1.338,0.446c0.758,0,1.387-0.267,1.885-0.8c0.498-0.533,0.746-1.205,0.746-2.014V177.69z"/><path fill="#FFFFFF" d="M641.441,183.094h-2.502v-16.285h2.502V183.094z"/><path fill="#FFFFFF" d="M645.943,169.784c-0.408,0-0.758-0.132-1.048-0.397c-0.29-0.265-0.435-0.602-0.435-1.01s0.145-0.748,0.435-1.021c0.29-0.272,0.64-0.408,1.048-0.408c0.422,0,0.779,0.136,1.074,0.408c0.293,0.272,0.439,0.612,0.439,1.021c0,0.387-0.146,0.718-0.439,0.994C646.723,169.646,646.365,169.784,645.943,169.784z M647.178,183.094h-2.492v-11h2.492V183.094z"/><path fill="#FFFFFF" d="M660.23,183.094h-2.492v-6.198c0-2.055-0.728-3.083-2.182-3.083c-0.759,0-1.385,0.285-1.879,0.854s-0.742,1.288-0.742,2.154v6.273h-2.502v-11h2.502v1.826h0.043c0.824-1.389,2.013-2.084,3.566-2.084c1.196,0,2.109,0.389,2.74,1.166c0.629,0.777,0.945,1.9,0.945,3.368V183.094z"/><path fill="#FFFFFF" d="M673.281,182.213c0,4.039-2.029,6.059-6.09,6.059c-1.434,0-2.683-0.24-3.75-0.72v-2.277c1.203,0.688,2.346,1.031,3.428,1.031c2.613,0,3.92-1.286,3.92-3.856v-1.203h-0.043c-0.823,1.404-2.063,2.105-3.717,2.105c-1.339,0-2.418-0.489-3.238-1.466s-1.23-2.29-1.23-3.937c0-1.869,0.441-3.355,1.322-4.458c0.881-1.103,2.09-1.654,3.631-1.654c1.453,0,2.531,0.595,3.232,1.783h0.043v-1.525h2.492V182.213z M670.811,178.056v-1.429c0-0.773-0.256-1.434-0.768-1.982s-1.151-0.822-1.918-0.822c-0.945,0-1.685,0.349-2.218,1.047c-0.534,0.698-0.8,1.674-0.8,2.927c0,1.082,0.256,1.946,0.768,2.594c0.512,0.648,1.19,0.972,2.035,0.972c0.859,0,1.559-0.31,2.096-0.929C670.543,179.816,670.811,179.022,670.811,178.056z"/></g><g><path fill="#FFFFFF" d="M705.02,344.391l-4.254,11h-2.696l-4.05-11h2.707l2.438,7.691c0.187,0.565,0.301,1.06,0.344,1.482h0.032c0.064-0.53,0.164-1.01,0.301-1.439l2.557-7.734H705.02z"/><path fill="#FFFFFF" d="M714.784,355.391h-2.417v-1.719h-0.043c-0.76,1.317-1.873,1.977-3.341,1.977c-1.081,0-1.929-0.294-2.54-0.881c-0.613-0.588-0.919-1.365-0.919-2.332c0-2.076,1.196-3.287,3.588-3.631l3.266-0.461c0-1.568-0.745-2.354-2.234-2.354c-1.311,0-2.492,0.451-3.545,1.354v-2.18c1.16-0.688,2.499-1.031,4.018-1.031c2.778,0,4.168,1.367,4.168,4.104V355.391z M712.378,349.986l-2.31,0.322c-0.717,0.094-1.256,0.268-1.617,0.521s-0.542,0.7-0.542,1.338c0,0.465,0.167,0.847,0.499,1.144c0.334,0.298,0.779,0.446,1.338,0.446c0.759,0,1.387-0.268,1.885-0.801s0.747-1.205,0.747-2.014V349.986z"/><path fill="#FFFFFF" d="M720.327,355.391h-2.503v-16.285h2.503V355.391z"/><path fill="#FFFFFF" d="M733.164,355.391h-2.492v-1.74h-0.043c-0.724,1.332-1.848,1.998-3.373,1.998c-2.6,0-3.899-1.562-3.899-4.684v-6.574h2.492v6.316c0,1.977,0.763,2.965,2.288,2.965c0.737,0,1.344-0.272,1.82-0.816c0.477-0.545,0.715-1.258,0.715-2.139v-6.326h2.492V355.391z"/><path fill="#FFFFFF" d="M745.722,350.566h-7.498c0.028,1.018,0.342,1.802,0.94,2.354c0.598,0.551,1.419,0.826,2.465,0.826c1.174,0,2.252-0.35,3.233-1.053v2.01c-1.003,0.63-2.327,0.945-3.975,0.945c-1.618,0-2.888-0.5-3.808-1.499c-0.921-0.999-1.381-2.404-1.381-4.216c0-1.712,0.506-3.106,1.52-4.185c1.014-1.077,2.272-1.616,3.776-1.616s2.667,0.482,3.491,1.449c0.823,0.967,1.235,2.311,1.235,4.029V350.566z M743.315,348.805c-0.007-0.895-0.219-1.591-0.634-2.089c-0.416-0.497-0.988-0.747-1.719-0.747c-0.717,0-1.323,0.262-1.82,0.785c-0.498,0.522-0.805,1.207-0.919,2.051H743.315z"/><path fill="#FFFFFF" d="M695.346,381.79h-2.416v-1.719h-0.043c-0.76,1.317-1.873,1.977-3.342,1.977c-1.081,0-1.928-0.294-2.54-0.881s-0.919-1.364-0.919-2.331c0-2.076,1.196-3.287,3.588-3.631l3.266-0.462c0-1.568-0.744-2.353-2.234-2.353c-1.311,0-2.492,0.451-3.545,1.354v-2.181c1.16-0.688,2.5-1.031,4.018-1.031c2.779,0,4.168,1.368,4.168,4.104V381.79z M692.939,376.387l-2.309,0.322c-0.717,0.094-1.256,0.268-1.617,0.521s-0.543,0.699-0.543,1.337c0,0.466,0.167,0.847,0.5,1.144c0.333,0.298,0.779,0.446,1.338,0.446c0.758,0,1.387-0.267,1.885-0.8s0.746-1.205,0.746-2.015V376.387z"/><path fill="#FFFFFF" d="M708.387,381.79h-2.492v-1.869h-0.043c-0.802,1.418-2.037,2.127-3.705,2.127c-1.354,0-2.438-0.492-3.25-1.478c-0.813-0.984-1.219-2.325-1.219-4.022c0-1.819,0.449-3.276,1.348-4.372s2.096-1.644,3.594-1.644c1.482,0,2.56,0.595,3.232,1.783h0.043v-6.811h2.492V381.79z M705.928,376.763v-1.439c0-0.78-0.255-1.442-0.764-1.987c-0.508-0.544-1.156-0.816-1.943-0.816c-0.932,0-1.664,0.348-2.197,1.042s-0.801,1.658-0.801,2.89c0,1.117,0.256,2,0.769,2.648c0.512,0.648,1.201,0.972,2.067,0.972c0.853,0,1.543-0.313,2.074-0.94C705.662,378.505,705.928,377.715,705.928,376.763z"/><path fill="#FFFFFF" d="M721.643,381.79h-2.492v-1.869h-0.043c-0.802,1.418-2.037,2.127-3.705,2.127c-1.354,0-2.438-0.492-3.25-1.478c-0.813-0.984-1.219-2.325-1.219-4.022c0-1.819,0.449-3.276,1.348-4.372s2.096-1.644,3.594-1.644c1.482,0,2.56,0.595,3.232,1.783h0.043v-6.811h2.492V381.79z M719.184,376.763v-1.439c0-0.78-0.255-1.442-0.764-1.987c-0.508-0.544-1.156-0.816-1.943-0.816c-0.932,0-1.664,0.348-2.197,1.042s-0.801,1.658-0.801,2.89c0,1.117,0.256,2,0.769,2.648c0.512,0.648,1.201,0.972,2.067,0.972c0.853,0,1.543-0.313,2.074-0.94C718.918,378.505,719.184,377.715,719.184,376.763z"/><path fill="#FFFFFF" d="M726.154,368.48c-0.408,0-0.757-0.133-1.047-0.397s-0.436-0.602-0.436-1.01s0.146-0.748,0.436-1.021c0.29-0.271,0.639-0.408,1.047-0.408c0.423,0,0.781,0.137,1.074,0.408c0.294,0.272,0.441,0.612,0.441,1.021c0,0.387-0.147,0.718-0.441,0.993C726.936,368.343,726.577,368.48,726.154,368.48z M727.391,381.79h-2.492v-11h2.492V381.79z"/><path fill="#FFFFFF" d="M740.441,381.79h-2.492v-6.198c0-2.055-0.727-3.083-2.18-3.083c-0.76,0-1.387,0.284-1.881,0.854c-0.494,0.568-0.74,1.287-0.74,2.153v6.273h-2.504v-11h2.504v1.826h0.043c0.822-1.39,2.012-2.084,3.566-2.084c1.195,0,2.108,0.389,2.738,1.165c0.631,0.777,0.945,1.9,0.945,3.368V381.79z"/><path fill="#FFFFFF" d="M753.494,380.909c0,4.039-2.031,6.059-6.092,6.059c-1.432,0-2.682-0.24-3.748-0.72v-2.277c1.203,0.688,2.345,1.031,3.426,1.031c2.614,0,3.922-1.285,3.922-3.856v-1.203h-0.043c-0.824,1.403-2.063,2.105-3.717,2.105c-1.34,0-2.42-0.489-3.239-1.466c-0.82-0.979-1.229-2.29-1.229-3.938c0-1.869,0.439-3.355,1.32-4.458s2.092-1.654,3.631-1.654c1.454,0,2.531,0.595,3.234,1.783h0.043v-1.525h2.492V380.909z M751.023,376.752v-1.429c0-0.773-0.257-1.435-0.769-1.981c-0.513-0.549-1.151-0.822-1.917-0.822c-0.945,0-1.686,0.35-2.219,1.047c-0.533,0.699-0.801,1.675-0.801,2.928c0,1.082,0.256,1.946,0.769,2.594c0.512,0.648,1.19,0.973,2.036,0.973c0.859,0,1.557-0.31,2.094-0.93C750.754,378.512,751.023,377.719,751.023,376.752z"/></g><g><path fill="#FFFFFF" d="M631.955,543.087l-3.244,11h-2.61l-1.998-7.455c-0.079-0.287-0.129-0.609-0.15-0.967h-0.043c-0.015,0.243-0.079,0.559-0.193,0.945l-2.17,7.477h-2.557l-3.233-11h2.578l1.998,7.928c0.064,0.236,0.107,0.551,0.129,0.945h0.075c0.021-0.301,0.079-0.623,0.172-0.967l2.224-7.906h2.342l1.977,7.959c0.064,0.252,0.111,0.566,0.14,0.945h0.075c0.014-0.264,0.068-0.58,0.161-0.945l1.955-7.959H631.955z"/><path fill="#FFFFFF" d="M635.06,540.776c-0.408,0-0.757-0.132-1.048-0.396c-0.289-0.266-0.435-0.602-0.435-1.01s0.146-0.748,0.435-1.021c0.291-0.271,0.64-0.408,1.048-0.408c0.423,0,0.78,0.137,1.074,0.408c0.294,0.273,0.44,0.613,0.44,1.021c0,0.387-0.146,0.718-0.44,0.993C635.84,540.64,635.482,540.776,635.06,540.776z M636.295,554.087h-2.492v-11h2.492V554.087z"/><path fill="#FFFFFF" d="M649.347,554.087h-2.492v-6.199c0-2.055-0.728-3.082-2.181-3.082c-0.76,0-1.386,0.284-1.88,0.854s-0.741,1.287-0.741,2.154v6.273h-2.503v-11h2.503v1.826h0.043c0.823-1.39,2.012-2.084,3.566-2.084c1.195,0,2.109,0.389,2.739,1.165c0.63,0.777,0.945,1.899,0.945,3.368V554.087z"/><path fill="#FFFFFF" d="M651.699,553.743v-2.311c0.931,0.709,1.959,1.064,3.083,1.064c1.504,0,2.256-0.444,2.256-1.332c0-0.251-0.064-0.464-0.193-0.64c-0.129-0.175-0.303-0.331-0.521-0.468c-0.219-0.135-0.477-0.258-0.773-0.365c-0.298-0.107-0.629-0.229-0.994-0.365c-0.451-0.178-0.857-0.368-1.219-0.568c-0.362-0.201-0.663-0.428-0.902-0.683c-0.24-0.254-0.422-0.542-0.543-0.864c-0.122-0.322-0.183-0.699-0.183-1.129c0-0.529,0.125-0.996,0.376-1.401c0.25-0.404,0.587-0.745,1.01-1.021c0.422-0.275,0.902-0.483,1.439-0.623s1.092-0.209,1.665-0.209c1.017,0,1.927,0.154,2.729,0.461v2.182c-0.773-0.53-1.661-0.795-2.664-0.795c-0.315,0-0.601,0.031-0.854,0.096s-0.471,0.154-0.649,0.27c-0.179,0.114-0.319,0.252-0.419,0.413c-0.101,0.161-0.15,0.339-0.15,0.532c0,0.236,0.05,0.437,0.15,0.602c0.1,0.164,0.248,0.31,0.445,0.435c0.197,0.126,0.434,0.24,0.709,0.344c0.275,0.104,0.593,0.217,0.951,0.339c0.473,0.193,0.896,0.391,1.273,0.59c0.375,0.201,0.695,0.429,0.961,0.683c0.265,0.255,0.469,0.548,0.612,0.881s0.215,0.729,0.215,1.187c0,0.559-0.129,1.047-0.387,1.461c-0.258,0.416-0.602,0.76-1.031,1.031c-0.43,0.273-0.926,0.475-1.487,0.607c-0.563,0.133-1.155,0.199-1.778,0.199C653.622,554.345,652.58,554.144,651.699,553.743z"/><path fill="#FFFFFF" d="M620.257,580.368c-0.487,0.243-1.128,0.365-1.923,0.365c-2.135,0-3.201-1.023-3.201-3.072v-6.22h-1.837v-1.955h1.837v-2.546l2.492-0.709v3.255h2.632v1.955h-2.632v5.5c0,0.651,0.118,1.117,0.354,1.396s0.63,0.419,1.182,0.419c0.423,0,0.788-0.121,1.096-0.365V580.368z"/><path fill="#FFFFFF" d="M630.849,580.486h-2.417v-1.719h-0.043c-0.76,1.317-1.873,1.977-3.341,1.977c-1.081,0-1.929-0.294-2.54-0.881c-0.613-0.587-0.919-1.364-0.919-2.331c0-2.076,1.196-3.287,3.588-3.631l3.266-0.462c0-1.568-0.745-2.353-2.234-2.353c-1.311,0-2.492,0.451-3.545,1.354v-2.181c1.16-0.688,2.499-1.031,4.018-1.031c2.778,0,4.168,1.368,4.168,4.104V580.486z M628.442,575.083l-2.31,0.322c-0.717,0.094-1.256,0.268-1.617,0.521s-0.542,0.699-0.542,1.337c0,0.466,0.167,0.847,0.499,1.144c0.334,0.298,0.779,0.446,1.338,0.446c0.759,0,1.387-0.267,1.885-0.8s0.747-1.205,0.747-2.015V575.083z"/><path fill="#FFFFFF" d="M636.424,578.896h-0.043v1.59h-2.492v-16.285h2.492v7.219h0.043c0.852-1.461,2.098-2.191,3.738-2.191c1.389,0,2.477,0.493,3.26,1.478c0.785,0.984,1.177,2.304,1.177,3.958c0,1.841-0.44,3.313-1.321,4.421c-0.881,1.105-2.084,1.659-3.609,1.659C638.235,580.744,637.154,580.128,636.424,578.896z M636.359,574.524v1.364c0,0.802,0.256,1.482,0.768,2.041s1.162,0.838,1.95,0.838c0.924,0,1.649-0.36,2.175-1.079c0.527-0.721,0.79-1.725,0.79-3.014c0-1.081-0.245-1.928-0.735-2.541c-0.491-0.611-1.155-0.918-1.993-0.918c-0.888,0-1.603,0.315-2.144,0.945C636.629,572.792,636.359,573.579,636.359,574.524z"/><path fill="#FFFFFF" d="M649.647,580.486h-2.503v-16.285h2.503V580.486z"/><path fill="#FFFFFF" d="M662.205,575.663h-7.498c0.028,1.018,0.342,1.801,0.939,2.353s1.42,0.827,2.466,0.827c1.175,0,2.252-0.351,3.233-1.053v2.009c-1.003,0.63-2.328,0.945-3.975,0.945c-1.619,0-2.889-0.499-3.809-1.499c-0.92-0.998-1.38-2.404-1.38-4.216c0-1.712,0.507-3.106,1.521-4.185c1.013-1.077,2.271-1.616,3.775-1.616s2.668,0.483,3.491,1.45s1.235,2.31,1.235,4.028V575.663z M659.799,573.901c-0.008-0.895-0.219-1.592-0.634-2.09c-0.415-0.497-0.988-0.746-1.719-0.746c-0.716,0-1.323,0.262-1.821,0.784s-0.804,1.207-0.918,2.052H659.799z"/></g><circle fill="#6E5AAF" cx="171.247" cy="362" r="64.16"/><g><path fill="#FFFFFF" d="M153.475,354.59c0,3.672-1.846,5.508-5.537,5.508c-1.302,0-2.438-0.219-3.408-0.654v-2.07c1.094,0.625,2.132,0.938,3.115,0.938c2.376,0,3.564-1.169,3.564-3.506v-1.094h-0.039c-0.749,1.275-1.875,1.914-3.379,1.914c-1.217,0-2.199-0.445-2.944-1.334s-1.118-2.081-1.118-3.578c0-1.699,0.4-3.051,1.201-4.053c0.801-1.003,1.901-1.504,3.301-1.504c1.322,0,2.301,0.54,2.939,1.621h0.039v-1.387h2.266V354.59z M151.229,350.811v-1.299c0-0.703-0.233-1.305-0.698-1.803s-1.046-0.746-1.743-0.746c-0.859,0-1.532,0.316-2.017,0.951s-0.728,1.522-0.728,2.662c0,0.982,0.233,1.769,0.698,2.357c0.465,0.59,1.083,0.885,1.851,0.885c0.781,0,1.416-0.282,1.904-0.846C150.984,352.41,151.229,351.689,151.229,350.811z"/><path fill="#FFFFFF" d="M158.699,355.391h-2.275v-14.805h2.275V355.391z"/><path fill="#FFFFFF" d="M166.082,355.625c-1.543,0-2.775-0.468-3.696-1.402c-0.921-0.934-1.382-2.172-1.382-3.715c0-1.68,0.48-2.992,1.44-3.936c0.96-0.944,2.254-1.416,3.882-1.416c1.563,0,2.78,0.459,3.652,1.377s1.309,2.19,1.309,3.818c0,1.595-0.47,2.872-1.411,3.832C168.935,355.145,167.67,355.625,166.082,355.625z M166.189,346.963c-0.885,0-1.585,0.309-2.1,0.928c-0.514,0.618-0.771,1.471-0.771,2.559c0,1.048,0.26,1.873,0.781,2.475c0.521,0.603,1.217,0.904,2.09,0.904c0.892,0,1.577-0.297,2.056-0.889c0.479-0.593,0.718-1.436,0.718-2.529c0-1.101-0.239-1.95-0.718-2.549C167.767,347.262,167.082,346.963,166.189,346.963z"/><path fill="#FFFFFF" d="M175.896,353.945h-0.039v1.445h-2.266v-14.805h2.266v6.563h0.039c0.775-1.328,1.908-1.992,3.398-1.992c1.263,0,2.251,0.447,2.964,1.342c0.713,0.896,1.069,2.096,1.069,3.6c0,1.673-0.4,3.012-1.201,4.018s-1.895,1.51-3.281,1.51C177.543,355.625,176.561,355.064,175.896,353.945z M175.838,349.971v1.24c0,0.729,0.233,1.348,0.698,1.855s1.056,0.762,1.772,0.762c0.84,0,1.499-0.328,1.978-0.982s0.718-1.566,0.718-2.738c0-0.983-0.223-1.754-0.669-2.311s-1.05-0.834-1.812-0.834c-0.807,0-1.457,0.286-1.948,0.859C176.083,348.395,175.838,349.111,175.838,349.971z"/><path fill="#FFFFFF" d="M193.084,355.391h-2.197v-1.563h-0.039c-0.69,1.197-1.703,1.797-3.037,1.797c-0.983,0-1.753-0.268-2.31-0.801c-0.557-0.534-0.835-1.24-0.835-2.119c0-1.889,1.087-2.988,3.262-3.301l2.969-0.42c0-1.426-0.677-2.139-2.031-2.139c-1.191,0-2.266,0.41-3.223,1.23v-1.982c1.055-0.625,2.272-0.938,3.652-0.938c2.526,0,3.789,1.243,3.789,3.73V355.391z M190.896,350.479l-2.1,0.293c-0.651,0.084-1.141,0.242-1.47,0.473c-0.329,0.231-0.493,0.637-0.493,1.217c0,0.423,0.151,0.77,0.454,1.039c0.303,0.271,0.708,0.406,1.216,0.406c0.69,0,1.261-0.243,1.714-0.729c0.453-0.484,0.679-1.095,0.679-1.83V350.479z"/><path fill="#FFFFFF" d="M198.123,355.391h-2.275v-14.805h2.275V355.391z"/><path fill="#FFFFFF" d="M141.414,369.391l-3.867,10h-2.451l-3.682-10h2.461l2.217,6.992c0.169,0.514,0.273,0.963,0.313,1.348h0.029c0.059-0.482,0.15-0.918,0.273-1.309l2.324-7.031H141.414z"/><path fill="#FFFFFF" d="M150.291,379.391h-2.197v-1.563h-0.039c-0.69,1.197-1.703,1.797-3.037,1.797c-0.983,0-1.753-0.268-2.31-0.801c-0.557-0.534-0.835-1.24-0.835-2.119c0-1.889,1.087-2.988,3.262-3.301l2.969-0.42c0-1.426-0.677-2.139-2.031-2.139c-1.191,0-2.266,0.41-3.223,1.23v-1.982c1.055-0.625,2.272-0.938,3.652-0.938c2.526,0,3.789,1.243,3.789,3.73V379.391z M148.104,374.479l-2.1,0.293c-0.651,0.084-1.141,0.242-1.47,0.473c-0.329,0.231-0.493,0.637-0.493,1.217c0,0.423,0.151,0.77,0.454,1.039c0.303,0.271,0.708,0.406,1.216,0.406c0.69,0,1.261-0.243,1.714-0.729c0.453-0.484,0.679-1.095,0.679-1.83V374.479z"/><path fill="#FFFFFF" d="M158.855,371.549c-0.273-0.215-0.667-0.322-1.182-0.322c-0.67,0-1.23,0.303-1.68,0.908s-0.674,1.429-0.674,2.471v4.785h-2.266v-10h2.266v2.061h0.039c0.221-0.703,0.562-1.252,1.021-1.646c0.459-0.394,0.972-0.59,1.538-0.59c0.41,0,0.723,0.062,0.938,0.186V371.549z"/><path fill="#FFFFFF" d="M161.6,367.291c-0.371,0-0.688-0.121-0.952-0.361c-0.264-0.241-0.396-0.547-0.396-0.918s0.132-0.681,0.396-0.928c0.264-0.248,0.581-0.371,0.952-0.371c0.384,0,0.709,0.123,0.977,0.371c0.267,0.247,0.4,0.557,0.4,0.928c0,0.352-0.133,0.652-0.4,0.902C162.309,367.165,161.984,367.291,161.6,367.291z M162.723,379.391h-2.266v-10h2.266V379.391z"/><path fill="#FFFFFF" d="M173.357,379.391h-2.197v-1.563h-0.039c-0.69,1.197-1.703,1.797-3.037,1.797c-0.983,0-1.753-0.268-2.31-0.801c-0.557-0.534-0.835-1.24-0.835-2.119c0-1.889,1.087-2.988,3.262-3.301l2.969-0.42c0-1.426-0.677-2.139-2.031-2.139c-1.191,0-2.266,0.41-3.223,1.23v-1.982c1.055-0.625,2.272-0.938,3.652-0.938c2.526,0,3.789,1.243,3.789,3.73V379.391z M171.17,374.479l-2.1,0.293c-0.651,0.084-1.141,0.242-1.47,0.473c-0.329,0.231-0.493,0.637-0.493,1.217c0,0.423,0.151,0.77,0.454,1.039c0.303,0.271,0.708,0.406,1.216,0.406c0.69,0,1.261-0.243,1.714-0.729c0.453-0.484,0.679-1.095,0.679-1.83V374.479z"/><path fill="#FFFFFF" d="M178.426,377.945h-0.039v1.445h-2.266v-14.805h2.266v6.563h0.039c0.775-1.328,1.908-1.992,3.398-1.992c1.263,0,2.251,0.447,2.964,1.342c0.713,0.896,1.069,2.096,1.069,3.6c0,1.673-0.4,3.012-1.201,4.018s-1.895,1.51-3.281,1.51C180.073,379.625,179.09,379.064,178.426,377.945z M178.367,373.971v1.24c0,0.729,0.233,1.348,0.698,1.855s1.056,0.762,1.772,0.762c0.84,0,1.499-0.328,1.978-0.982s0.718-1.566,0.718-2.738c0-0.983-0.223-1.754-0.669-2.311s-1.05-0.834-1.812-0.834c-0.807,0-1.457,0.286-1.948,0.859C178.613,372.395,178.367,373.111,178.367,373.971z"/><path fill="#FFFFFF" d="M190.447,379.391h-2.275v-14.805h2.275V379.391z"/><path fill="#FFFFFF" d="M201.863,375.006h-6.816c0.026,0.924,0.311,1.637,0.854,2.139c0.543,0.501,1.291,0.752,2.241,0.752c1.068,0,2.047-0.319,2.939-0.957v1.826c-0.912,0.572-2.116,0.859-3.613,0.859c-1.471,0-2.625-0.455-3.462-1.363s-1.255-2.186-1.255-3.832c0-1.557,0.46-2.824,1.382-3.805c0.921-0.979,2.065-1.469,3.433-1.469s2.425,0.439,3.174,1.318s1.123,2.1,1.123,3.662V375.006z M199.676,373.404c-0.006-0.814-0.199-1.447-0.576-1.9c-0.377-0.452-0.898-0.678-1.563-0.678c-0.651,0-1.203,0.237-1.655,0.713c-0.453,0.475-0.731,1.097-0.835,1.865H199.676z"/><path fill="#FFFFFF" d="M203.396,379.078v-2.1c0.846,0.645,1.781,0.967,2.803,0.967c1.367,0,2.051-0.404,2.051-1.211c0-0.229-0.059-0.422-0.176-0.582c-0.117-0.159-0.275-0.301-0.474-0.424c-0.199-0.124-0.433-0.234-0.703-0.332s-0.571-0.209-0.903-0.332c-0.41-0.163-0.78-0.336-1.108-0.518c-0.329-0.183-0.602-0.39-0.82-0.621c-0.218-0.23-0.382-0.492-0.493-0.785s-0.166-0.635-0.166-1.025c0-0.482,0.114-0.907,0.342-1.275c0.228-0.367,0.534-0.677,0.918-0.928c0.384-0.25,0.82-0.439,1.309-0.566s0.993-0.189,1.514-0.189c0.924,0,1.751,0.14,2.48,0.42v1.982c-0.703-0.482-1.51-0.723-2.422-0.723c-0.287,0-0.545,0.029-0.776,0.088s-0.428,0.14-0.591,0.244c-0.163,0.104-0.29,0.229-0.381,0.375s-0.137,0.309-0.137,0.484c0,0.215,0.045,0.396,0.137,0.547c0.091,0.149,0.226,0.281,0.405,0.395c0.179,0.114,0.394,0.219,0.645,0.313c0.25,0.095,0.539,0.197,0.864,0.309c0.43,0.176,0.815,0.354,1.157,0.537c0.342,0.182,0.633,0.389,0.874,0.619c0.241,0.231,0.426,0.498,0.557,0.801s0.195,0.663,0.195,1.08c0,0.508-0.117,0.95-0.352,1.328c-0.234,0.377-0.547,0.689-0.938,0.938c-0.391,0.247-0.841,0.431-1.353,0.551c-0.511,0.121-1.05,0.182-1.616,0.182C205.145,379.625,204.197,379.442,203.396,379.078z"/></g></svg>
