<?xml version="1.0" encoding="utf-8"?>
<!-- Generator: Adobe Illustrator 17.1.0, SVG Export Plug-In . SVG Version: 6.00 Build 0)  -->
<svg version="1.2" baseProfile="tiny" id="Layer_1" xmlns="http://www.w3.org/2000/svg" xmlns:xlink="http://www.w3.org/1999/xlink"
	 x="0px" y="0px" width="640px" height="299.6px" viewBox="0 0 640 299.6" overflow="scroll" xml:space="preserve">
<g>
	<g>
		<polygon fill="#EEEEEE" points="222,298 222,262 262,262 262,182 298,182 298,222 338,222 338,282 382,282 382,242 418,242 
			418,298 		"/>
		<path fill="#BBBBBB" d="M296,184v36v4h4h36v56v4h4h40h4v-4v-36h32v52H224v-32h36h4v-4v-76H296 M300,180h-40v80h-40v40h200v-60h-40
			v40h-40v-60h-40V180L300,180z"/>
	</g>
	<g>
		<path d="M84.6,269.9l-5-6.8h2.6l3.7,5.2l3.7-5.2h2.6l-5,6.8l5.2,7.1h-2.6l-3.9-5.5L82,277h-2.6L84.6,269.9z"/>
		<path d="M102,267.2c2.6,1.4,3.9,3,3.9,5c0,1.5-0.5,2.8-1.6,3.7s-2.5,1.4-4.2,1.4c-1.8,0-3.3-0.4-4.3-1.3c-1-0.9-1.5-2.1-1.5-3.7
			c0-2.2,1.2-3.8,3.6-5c-2-1.2-3-2.8-3-4.7c0-1.4,0.5-2.4,1.5-3.2c1-0.8,2.2-1.2,3.7-1.2c1.6,0,2.8,0.4,3.8,1.2s1.4,1.9,1.4,3.3
			C105.3,264.6,104.2,266.1,102,267.2z M99.8,268.2c-2.1,1-3.2,2.4-3.2,4.1c0,2,1.2,3,3.5,3c1.2,0,2-0.3,2.7-0.8
			c0.6-0.6,0.9-1.3,0.9-2.3c0-0.8-0.3-1.4-0.8-2c-0.5-0.6-1.4-1.2-2.7-1.8L99.8,268.2z M100.1,266.3c2-0.9,2.9-2,2.9-3.5
			c0-0.9-0.3-1.5-0.8-2s-1.3-0.7-2.2-0.7c-0.9,0-1.6,0.2-2.1,0.7s-0.8,1.1-0.8,2c0,0.8,0.2,1.4,0.6,1.9
			C98.2,265.2,99,265.7,100.1,266.3z"/>
		<path d="M118.5,258.4v2c-0.6-0.2-1.3-0.3-2.1-0.3c-1.9,0-3.3,0.6-4.3,1.8s-1.5,3.1-1.6,5.7h0.2c0.8-1.4,2.1-2.2,3.9-2.2
			c1.7,0,2.9,0.5,3.9,1.5s1.4,2.4,1.4,4.1c0,1.9-0.5,3.5-1.5,4.6c-1,1.1-2.4,1.7-4.1,1.7c-1.8,0-3.3-0.7-4.4-2.1
			c-1.1-1.4-1.6-3.4-1.6-6c0-7.3,2.7-10.9,8.1-10.9C117.2,258.2,117.9,258.3,118.5,258.4z M117.7,271.1c0-1.2-0.3-2.2-0.9-2.8
			s-1.4-1-2.5-1s-2,0.3-2.7,1s-1.1,1.5-1.1,2.3c0,1.3,0.3,2.4,1,3.3c0.7,0.9,1.6,1.4,2.7,1.4c1.1,0,1.9-0.4,2.5-1.1
			S117.7,272.4,117.7,271.1z"/>
	</g>
	<g>
		<polygon fill="#7FCDE5" points="102,118 102,98 2,98 2,2 198,2 198,118 		"/>
		<path fill="#5AB1BF" d="M196,4v112h-92v-16v-4h-4H4V4H196 M200,0H0v100h100v20h100V0L200,0z"/>
	</g>
	<g>
		<path d="M14.9,56.5v-2.1c1.4,0.5,2.7,0.8,3.9,0.8c1.4,0,2.4-0.3,3.2-1c0.8-0.7,1.2-1.6,1.2-2.9V38.5h2.4v12.8
			c0,1.8-0.6,3.3-1.8,4.4c-1.2,1.1-2.8,1.6-4.8,1.6C17.1,57.3,15.8,57,14.9,56.5z"/>
		<path d="M38.2,57l-0.5-1.9h-0.1c-0.7,0.8-1.3,1.4-2,1.7c-0.7,0.3-1.6,0.5-2.7,0.5c-1.4,0-2.5-0.4-3.2-1.1s-1.2-1.7-1.2-3.1
			c0-2.8,2.2-4.3,6.5-4.4l2.6-0.1v-0.9c0-2-1-3-3.1-3c-1.2,0-2.6,0.3-4.2,1l-0.8-1.7c1.7-0.8,3.3-1.2,4.9-1.2c1.9,0,3.3,0.4,4.2,1.1
			s1.3,1.9,1.3,3.5V57H38.2z M37.6,50.2l-2.1,0.1c-1.7,0.1-2.8,0.3-3.5,0.8c-0.7,0.5-1,1.1-1,2.1c0,1.5,0.8,2.3,2.5,2.3
			c1.2,0,2.2-0.3,3-1c0.7-0.7,1.1-1.7,1.1-2.9V50.2z"/>
		<path d="M47.3,57L42,43.1h2.4l3,8.3c0.7,2,1.1,3.3,1.3,4.1h0.1c0.1-0.4,0.5-1.7,1.3-4.1l3-8.3h2.4L50.2,57H47.3z"/>
		<path d="M66.7,57l-0.5-1.9h-0.1c-0.7,0.8-1.3,1.4-2,1.7c-0.7,0.3-1.6,0.5-2.7,0.5c-1.4,0-2.5-0.4-3.2-1.1s-1.2-1.7-1.2-3.1
			c0-2.8,2.2-4.3,6.5-4.4l2.6-0.1v-0.9c0-2-1-3-3.1-3c-1.2,0-2.6,0.3-4.2,1l-0.8-1.7c1.7-0.8,3.3-1.2,4.9-1.2c1.9,0,3.3,0.4,4.2,1.1
			s1.3,1.9,1.3,3.5V57H66.7z M66.1,50.2l-2.1,0.1c-1.7,0.1-2.8,0.3-3.5,0.8c-0.7,0.5-1,1.1-1,2.1c0,1.5,0.8,2.3,2.5,2.3
			c1.2,0,2.2-0.3,3-1c0.7-0.7,1.1-1.7,1.1-2.9V50.2z"/>
		<path d="M89.9,55.3h-0.2c0.1,1.1,0.2,1.8,0.2,2.1v6h-2.3V43.1h1.9l0.3,1.9h0.1c0.9-1.4,2.3-2.1,4.1-2.1c1.7,0,3,0.6,4,1.9
			c1,1.3,1.5,3,1.5,5.3c0,2.3-0.5,4.1-1.5,5.3c-1,1.3-2.3,1.9-4,1.9C92.2,57.3,90.8,56.6,89.9,55.3z M89.9,49.5V50
			c0,1.9,0.3,3.3,0.9,4.1c0.6,0.8,1.5,1.2,2.8,1.2c2.3,0,3.5-1.8,3.5-5.4c0-3.5-1.2-5.3-3.5-5.3c-1.3,0-2.2,0.4-2.8,1.1
			S89.9,47.8,89.9,49.5z"/>
		<path d="M113.2,43.4l-0.6,2.1c-1-0.4-2-0.6-2.8-0.6c-1.4,0-2.4,0.4-3.2,1.2c-0.7,0.8-1.1,1.9-1.1,3.4V57h-2.3V43.1h1.9l0.3,2.6
			h0.1c0.6-1,1.3-1.7,2.1-2.2s1.6-0.6,2.7-0.6C111.2,42.8,112.2,43,113.2,43.4z"/>
		<path d="M121.4,57.3c-1.8,0-3.3-0.7-4.5-2c-1.2-1.3-1.8-3.1-1.8-5.3c0-2.2,0.6-4,1.7-5.3s2.7-1.9,4.6-1.9c1.8,0,3.4,0.7,4.5,2
			s1.8,3.1,1.8,5.2c0,2.2-0.6,4-1.7,5.3S123.3,57.3,121.4,57.3z M121.4,55.4c2.6,0,3.9-1.8,3.9-5.3c0-3.5-1.3-5.3-4-5.3
			c-2.6,0-3.9,1.8-3.9,5.3C117.5,53.6,118.8,55.4,121.4,55.4z"/>
		<path d="M142.4,43.1v1.4l-2.5,0.3c0.6,0.7,0.8,1.6,0.8,2.7c0,1.4-0.5,2.4-1.4,3.3c-0.9,0.8-2.2,1.2-3.8,1.2c-0.5,0-0.8,0-1.1-0.1
			c-0.8,0.5-1.3,1-1.3,1.7c0,0.7,0.7,1.1,2,1.1h2.4c1.5,0,2.6,0.3,3.4,1s1.2,1.6,1.2,2.8c0,3.2-2.4,4.8-7.2,4.8
			c-1.8,0-3.2-0.3-4.2-1c-1-0.7-1.4-1.6-1.4-2.9c0-1.8,1-2.9,3-3.4c-0.8-0.4-1.2-1-1.2-2c0-0.9,0.6-1.8,1.7-2.4
			c-0.8-0.3-1.3-0.8-1.8-1.6c-0.4-0.7-0.6-1.5-0.6-2.4c0-1.5,0.5-2.7,1.4-3.6c0.9-0.8,2.2-1.3,3.9-1.3c0.7,0,1.4,0.1,1.9,0.3H142.4z
			 M136.9,56.8h-2.4c-1.9,0-2.9,0.8-2.9,2.5c0,1.5,1.1,2.2,3.4,2.2c3.3,0,5-0.9,5-2.8c0-0.7-0.2-1.2-0.6-1.5
			C139,56.9,138.1,56.8,136.9,56.8z M135.6,50.5c1.9,0,2.8-1,2.8-2.9c0-2-1-3-2.9-3s-2.9,1-2.9,3.1
			C132.7,49.5,133.7,50.5,135.6,50.5z"/>
		<path d="M155.6,43.4l-0.6,2.1c-1-0.4-2-0.6-2.8-0.6c-1.4,0-2.4,0.4-3.2,1.2c-0.7,0.8-1.1,1.9-1.1,3.4V57h-2.3V43.1h1.9l0.3,2.6
			h0.1c0.6-1,1.3-1.7,2.1-2.2s1.6-0.6,2.7-0.6C153.6,42.8,154.6,43,155.6,43.4z"/>
		<path d="M167.5,57l-0.5-1.9h-0.1c-0.7,0.8-1.3,1.4-2,1.7c-0.7,0.3-1.6,0.5-2.7,0.5c-1.4,0-2.5-0.4-3.2-1.1s-1.2-1.7-1.2-3.1
			c0-2.8,2.2-4.3,6.5-4.4l2.6-0.1v-0.9c0-2-1-3-3.1-3c-1.2,0-2.6,0.3-4.2,1l-0.8-1.7c1.7-0.8,3.3-1.2,4.9-1.2c1.9,0,3.3,0.4,4.2,1.1
			s1.3,1.9,1.3,3.5V57H167.5z M166.8,50.2l-2.1,0.1c-1.7,0.1-2.8,0.3-3.5,0.8c-0.7,0.5-1,1.1-1,2.1c0,1.5,0.8,2.3,2.5,2.3
			c1.2,0,2.2-0.3,3-1c0.7-0.7,1.1-1.7,1.1-2.9V50.2z"/>
		<path d="M183.7,57v-9c0-1.2-0.1-2.1-0.3-2.6s-0.6-0.7-1.1-0.7c-0.7,0-1.3,0.4-1.6,1.1s-0.5,1.9-0.5,3.5V57h-2v-9
			c0-2.2-0.5-3.3-1.6-3.3c-0.7,0-1.2,0.3-1.5,1c-0.3,0.7-0.5,2-0.5,4V57h-2.1V43.1h1.6l0.3,1.9h0.1c0.6-1.4,1.4-2.1,2.6-2.1
			c1.4,0,2.3,0.8,2.7,2.3h0.1c0.6-1.5,1.6-2.3,2.8-2.3c1.1,0,1.9,0.4,2.4,1.2c0.5,0.8,0.7,2.1,0.7,3.9V57H183.7z"/>
	</g>
	<g>
		<path d="M290.2,277l-1.8-5.8h-6.2l-1.9,5.8h-2.4l6.1-18.6h2.5l6.2,18.6H290.2z M287.7,269.2l-1.7-5.4c-0.3-1-0.6-2-0.8-2.9
			c-0.2,0.8-0.4,1.6-0.6,2.3l-1.8,5.9H287.7z"/>
		<path d="M296.8,269.4v7.7h-2.4v-18.6h4.5c4.4,0,6.6,1.8,6.6,5.3c0,2.4-1.2,4.1-3.7,5l5,8.3h-2.8l-4.4-7.7H296.8z M296.8,267.4h2.1
			c1.4,0,2.5-0.3,3.2-0.8s1-1.4,1-2.7c0-1.2-0.3-2.1-1-2.6s-1.8-0.8-3.3-0.8h-2V267.4z"/>
		<path d="M313.7,277l-3.5-16.3h-0.1c0.2,2.3,0.2,4,0.2,5.2V277h-1.9v-18.6h3.1l3.1,15.1h0.1l3.2-15.1h3.2V277h-1.9v-11.3
			c0-0.9,0.1-2.5,0.2-5h-0.1l-3.6,16.2H313.7z"/>
	</g>
	<g>
		<polygon fill="#D67B76" points="2,278 2,102 98,102 98,122 198,122 198,258 162,258 162,238 122,238 122,178 78,178 78,218 
			38,218 38,278 		"/>
		<path fill="#BC645B" d="M96,104v16v4h4h96v132h-32v-16v-4h-4h-36v-56v-4h-4H80h-4v4v36H40h-4v4v56H4V104H96 M100,100H0v180h40v-60
			h40v-40h40v60h40v20h40V120H100V100L100,100z"/>
	</g>
	<g>
		<polygon fill="#D67B76" points="342,278 342,218 302,218 302,178 258,178 258,258 222,258 222,102 318,102 318,122 418,122 
			418,238 378,238 378,278 		"/>
		<path fill="#BC645B" d="M316,104v16v4h4h96v112h-36h-4v4v36h-32v-56v-4h-4h-36v-36v-4h-4h-40h-4v4v76h-32V104H316 M320,100H220
			v160h40v-80h40v40h40v60h40v-40h40V120H320V100L320,100z"/>
	</g>
	<g>
		<polygon fill="#EEEEEE" points="2,298 2,282 42,282 42,222 82,222 82,182 118,182 118,242 158,242 158,262 198,262 198,298 		"/>
		<path fill="#BBBBBB" d="M116,184v56v4h4h36v16v4h4h36v32H4v-12h36h4v-4v-56h36h4v-4v-36H116 M120,180H80v40H40v60H0v20h200v-40
			h-40v-20h-40V180L120,180z"/>
	</g>
	<g>
		<path d="M50.2,158.9v-2.1c1.4,0.5,2.7,0.8,3.9,0.8c1.4,0,2.4-0.3,3.2-1c0.8-0.7,1.2-1.6,1.2-2.9v-12.9h2.4v12.8
			c0,1.8-0.6,3.3-1.8,4.4c-1.2,1.1-2.8,1.6-4.8,1.6C52.5,159.6,51.1,159.4,50.2,158.9z"/>
		<path d="M73.5,159.4l-0.5-1.9H73c-0.7,0.8-1.3,1.4-2,1.7c-0.7,0.3-1.6,0.5-2.7,0.5c-1.4,0-2.5-0.4-3.2-1.1s-1.2-1.7-1.2-3.1
			c0-2.8,2.2-4.3,6.5-4.4l2.6-0.1v-0.9c0-2-1-3-3.1-3c-1.2,0-2.6,0.3-4.2,1l-0.8-1.7c1.7-0.8,3.3-1.2,4.9-1.2c1.9,0,3.3,0.4,4.2,1.1
			s1.3,1.9,1.3,3.5v9.5H73.5z M72.9,152.5l-2.1,0.1c-1.7,0.1-2.8,0.3-3.5,0.8c-0.7,0.5-1,1.1-1,2.1c0,1.5,0.8,2.3,2.5,2.3
			c1.2,0,2.2-0.3,3-1c0.7-0.7,1.1-1.7,1.1-2.9V152.5z"/>
		<path d="M82.6,159.4l-5.3-13.9h2.4l3,8.3c0.7,2,1.1,3.3,1.3,4.1h0.1c0.1-0.4,0.5-1.7,1.3-4.1l3-8.3h2.4l-5.3,13.9H82.6z"/>
		<path d="M102.1,159.4l-0.5-1.9h-0.1c-0.7,0.8-1.3,1.4-2,1.7c-0.7,0.3-1.6,0.5-2.7,0.5c-1.4,0-2.5-0.4-3.2-1.1s-1.2-1.7-1.2-3.1
			c0-2.8,2.2-4.3,6.5-4.4l2.6-0.1v-0.9c0-2-1-3-3.1-3c-1.2,0-2.6,0.3-4.2,1l-0.8-1.7c1.7-0.8,3.3-1.2,4.9-1.2c1.9,0,3.3,0.4,4.2,1.1
			s1.3,1.9,1.3,3.5v9.5H102.1z M101.4,152.5l-2.1,0.1c-1.7,0.1-2.8,0.3-3.5,0.8c-0.7,0.5-1,1.1-1,2.1c0,1.5,0.8,2.3,2.5,2.3
			c1.2,0,2.2-0.3,3-1c0.7-0.7,1.1-1.7,1.1-2.9V152.5z"/>
		<path d="M133.5,140.8h2.5l-6.2,18.6h-2.4l-6.2-18.6h2.5l3.7,11.8c0.3,1.1,0.7,2.5,1.1,4.2c0.3-1.2,0.7-2.7,1.2-4.3L133.5,140.8z"
			/>
		<path d="M142.7,159.4l-3.5-16.3h-0.1c0.2,2.3,0.2,4,0.2,5.2v11.1h-1.9v-18.6h3.1l3.1,15.1h0.1l3.2-15.1h3.2v18.6h-1.9v-11.3
			c0-0.9,0.1-2.5,0.2-5h-0.1l-3.6,16.2H142.7z"/>
	</g>
	<g>
		<polygon fill="#7FCDE5" points="322,118 322,98 222,98 222,2 418,2 418,118 		"/>
		<path fill="#5AB1BF" d="M416,4v112h-92v-16v-4h-4h-96V4H416 M420,0H220v100h100v20h100V0L420,0z"/>
	</g>
	<g>
		<path d="M234.9,56.5v-2.1c1.4,0.5,2.7,0.8,3.9,0.8c1.4,0,2.4-0.3,3.2-1c0.8-0.7,1.2-1.6,1.2-2.9V38.5h2.4v12.8
			c0,1.8-0.6,3.3-1.8,4.4c-1.2,1.1-2.8,1.6-4.8,1.6C237.1,57.3,235.8,57,234.9,56.5z"/>
		<path d="M258.2,57l-0.5-1.9h-0.1c-0.7,0.8-1.3,1.4-2,1.7c-0.7,0.3-1.6,0.5-2.7,0.5c-1.4,0-2.5-0.4-3.2-1.1s-1.2-1.7-1.2-3.1
			c0-2.8,2.2-4.3,6.5-4.4l2.6-0.1v-0.9c0-2-1-3-3.1-3c-1.2,0-2.6,0.3-4.2,1l-0.8-1.7c1.7-0.8,3.3-1.2,4.9-1.2c1.9,0,3.3,0.4,4.2,1.1
			s1.3,1.9,1.3,3.5V57H258.2z M257.6,50.2l-2.1,0.1c-1.7,0.1-2.8,0.3-3.5,0.8c-0.7,0.5-1,1.1-1,2.1c0,1.5,0.8,2.3,2.5,2.3
			c1.2,0,2.2-0.3,3-1c0.7-0.7,1.1-1.7,1.1-2.9V50.2z"/>
		<path d="M267.3,57L262,43.1h2.4l3,8.3c0.7,2,1.1,3.3,1.3,4.1h0.1c0.1-0.4,0.5-1.7,1.3-4.1l3-8.3h2.4L270.2,57H267.3z"/>
		<path d="M286.7,57l-0.5-1.9h-0.1c-0.7,0.8-1.3,1.4-2,1.7c-0.7,0.3-1.6,0.5-2.7,0.5c-1.4,0-2.5-0.4-3.2-1.1s-1.2-1.7-1.2-3.1
			c0-2.8,2.2-4.3,6.5-4.4l2.6-0.1v-0.9c0-2-1-3-3.1-3c-1.2,0-2.6,0.3-4.2,1l-0.8-1.7c1.7-0.8,3.3-1.2,4.9-1.2c1.9,0,3.3,0.4,4.2,1.1
			s1.3,1.9,1.3,3.5V57H286.7z M286.1,50.2l-2.1,0.1c-1.7,0.1-2.8,0.3-3.5,0.8c-0.7,0.5-1,1.1-1,2.1c0,1.5,0.8,2.3,2.5,2.3
			c1.2,0,2.2-0.3,3-1c0.7-0.7,1.1-1.7,1.1-2.9V50.2z"/>
		<path d="M309.9,55.3h-0.2c0.1,1.1,0.2,1.8,0.2,2.1v6h-2.3V43.1h1.9l0.3,1.9h0.1c0.9-1.4,2.3-2.1,4.1-2.1c1.7,0,3,0.6,4,1.9
			c1,1.3,1.5,3,1.5,5.3c0,2.3-0.5,4.1-1.5,5.3c-1,1.3-2.3,1.9-4,1.9C312.2,57.3,310.8,56.6,309.9,55.3z M309.9,49.5V50
			c0,1.9,0.3,3.3,0.9,4.1c0.6,0.8,1.5,1.2,2.8,1.2c2.3,0,3.5-1.8,3.5-5.4c0-3.5-1.2-5.3-3.5-5.3c-1.3,0-2.2,0.4-2.8,1.1
			S309.9,47.8,309.9,49.5z"/>
		<path d="M333.2,43.4l-0.6,2.1c-1-0.4-2-0.6-2.8-0.6c-1.4,0-2.4,0.4-3.2,1.2c-0.7,0.8-1.1,1.9-1.1,3.4V57h-2.3V43.1h1.9l0.3,2.6
			h0.1c0.6-1,1.3-1.7,2.1-2.2s1.6-0.6,2.7-0.6C331.2,42.8,332.2,43,333.2,43.4z"/>
		<path d="M341.4,57.3c-1.8,0-3.3-0.7-4.5-2c-1.2-1.3-1.8-3.1-1.8-5.3c0-2.2,0.6-4,1.7-5.3s2.7-1.9,4.6-1.9c1.8,0,3.4,0.7,4.5,2
			c1.2,1.3,1.8,3.1,1.8,5.2c0,2.2-0.6,4-1.7,5.3C344.9,56.6,343.3,57.3,341.4,57.3z M341.4,55.4c2.6,0,3.9-1.8,3.9-5.3
			c0-3.5-1.3-5.3-4-5.3c-2.6,0-3.9,1.8-3.9,5.3C337.5,53.6,338.8,55.4,341.4,55.4z"/>
		<path d="M362.4,43.1v1.4l-2.5,0.3c0.5,0.7,0.8,1.6,0.8,2.7c0,1.4-0.5,2.4-1.4,3.3c-0.9,0.8-2.2,1.2-3.8,1.2c-0.5,0-0.8,0-1.1-0.1
			c-0.8,0.5-1.3,1-1.3,1.7c0,0.7,0.7,1.1,2,1.1h2.4c1.5,0,2.6,0.3,3.4,1c0.8,0.7,1.2,1.6,1.2,2.8c0,3.2-2.4,4.8-7.2,4.8
			c-1.8,0-3.2-0.3-4.2-1c-1-0.7-1.4-1.6-1.4-2.9c0-1.8,1-2.9,3-3.4c-0.8-0.4-1.2-1-1.2-2c0-0.9,0.6-1.8,1.7-2.4
			c-0.8-0.3-1.3-0.8-1.8-1.6c-0.4-0.7-0.6-1.5-0.6-2.4c0-1.5,0.5-2.7,1.4-3.6c0.9-0.8,2.2-1.3,3.9-1.3c0.7,0,1.4,0.1,1.9,0.3H362.4z
			 M356.9,56.8h-2.4c-1.9,0-2.9,0.8-2.9,2.5c0,1.5,1.1,2.2,3.4,2.2c3.3,0,5-0.9,5-2.8c0-0.7-0.2-1.2-0.6-1.5
			C359,56.9,358.1,56.8,356.9,56.8z M355.6,50.5c1.9,0,2.8-1,2.8-2.9c0-2-1-3-2.9-3s-2.9,1-2.9,3.1
			C352.7,49.5,353.7,50.5,355.6,50.5z"/>
		<path d="M375.6,43.4l-0.6,2.1c-1-0.4-2-0.6-2.8-0.6c-1.4,0-2.4,0.4-3.2,1.2c-0.7,0.8-1.1,1.9-1.1,3.4V57h-2.3V43.1h1.9l0.3,2.6
			h0.1c0.6-1,1.3-1.7,2.1-2.2s1.6-0.6,2.7-0.6C373.6,42.8,374.6,43,375.6,43.4z"/>
		<path d="M387.5,57l-0.5-1.9h-0.1c-0.7,0.8-1.3,1.4-2,1.7c-0.7,0.3-1.6,0.5-2.7,0.5c-1.4,0-2.5-0.4-3.2-1.1
			c-0.8-0.7-1.2-1.7-1.2-3.1c0-2.8,2.2-4.3,6.5-4.4l2.6-0.1v-0.9c0-2-1-3-3.1-3c-1.2,0-2.6,0.3-4.2,1l-0.8-1.7
			c1.7-0.8,3.3-1.2,4.9-1.2c1.9,0,3.3,0.4,4.2,1.1c0.9,0.7,1.3,1.9,1.3,3.5V57H387.5z M386.8,50.2l-2.1,0.1
			c-1.7,0.1-2.8,0.3-3.5,0.8c-0.7,0.5-1,1.1-1,2.1c0,1.5,0.8,2.3,2.5,2.3c1.2,0,2.2-0.3,3-1c0.7-0.7,1.1-1.7,1.1-2.9V50.2z"/>
		<path d="M403.7,57v-9c0-1.2-0.1-2.1-0.3-2.6c-0.2-0.5-0.6-0.7-1.1-0.7c-0.7,0-1.3,0.4-1.6,1.1c-0.3,0.7-0.5,1.9-0.5,3.5V57h-2v-9
			c0-2.2-0.5-3.3-1.6-3.3c-0.7,0-1.2,0.3-1.5,1c-0.3,0.7-0.5,2-0.5,4V57h-2.1V43.1h1.6l0.3,1.9h0.1c0.6-1.4,1.4-2.1,2.6-2.1
			c1.4,0,2.3,0.8,2.7,2.3h0.1c0.6-1.5,1.6-2.3,2.8-2.3c1.1,0,1.9,0.4,2.4,1.2c0.5,0.8,0.7,2.1,0.7,3.9V57H403.7z"/>
	</g>
	<g>
		<path d="M270.2,158.9v-2.1c1.4,0.5,2.7,0.8,3.9,0.8c1.4,0,2.4-0.3,3.2-1c0.8-0.7,1.2-1.6,1.2-2.9v-12.9h2.4v12.8
			c0,1.8-0.6,3.3-1.8,4.4c-1.2,1.1-2.8,1.6-4.8,1.6C272.5,159.6,271.1,159.4,270.2,158.9z"/>
		<path d="M293.5,159.4l-0.5-1.9H293c-0.7,0.8-1.3,1.4-2,1.7c-0.7,0.3-1.6,0.5-2.7,0.5c-1.4,0-2.5-0.4-3.2-1.1s-1.2-1.7-1.2-3.1
			c0-2.8,2.2-4.3,6.5-4.4l2.6-0.1v-0.9c0-2-1-3-3.1-3c-1.2,0-2.6,0.3-4.2,1l-0.8-1.7c1.7-0.8,3.3-1.2,4.9-1.2c1.9,0,3.3,0.4,4.2,1.1
			s1.3,1.9,1.3,3.5v9.5H293.5z M292.9,152.5l-2.1,0.1c-1.7,0.1-2.8,0.3-3.5,0.8c-0.7,0.5-1,1.1-1,2.1c0,1.5,0.8,2.3,2.5,2.3
			c1.2,0,2.2-0.3,3-1c0.7-0.7,1.1-1.7,1.1-2.9V152.5z"/>
		<path d="M302.6,159.4l-5.3-13.9h2.4l3,8.3c0.7,2,1.1,3.3,1.3,4.1h0.1c0.1-0.4,0.5-1.7,1.3-4.1l3-8.3h2.4l-5.3,13.9H302.6z"/>
		<path d="M322.1,159.4l-0.5-1.9h-0.1c-0.7,0.8-1.3,1.4-2,1.7c-0.7,0.3-1.6,0.5-2.7,0.5c-1.4,0-2.5-0.4-3.2-1.1s-1.2-1.7-1.2-3.1
			c0-2.8,2.2-4.3,6.5-4.4l2.6-0.1v-0.9c0-2-1-3-3.1-3c-1.2,0-2.6,0.3-4.2,1l-0.8-1.7c1.7-0.8,3.3-1.2,4.9-1.2c1.9,0,3.3,0.4,4.2,1.1
			s1.3,1.9,1.3,3.5v9.5H322.1z M321.4,152.5l-2.1,0.1c-1.7,0.1-2.8,0.3-3.5,0.8c-0.7,0.5-1,1.1-1,2.1c0,1.5,0.8,2.3,2.5,2.3
			c1.2,0,2.2-0.3,3-1c0.7-0.7,1.1-1.7,1.1-2.9V152.5z"/>
		<path d="M353.5,140.8h2.5l-6.2,18.6h-2.4l-6.2-18.6h2.5l3.7,11.8c0.3,1.1,0.7,2.5,1.1,4.2c0.3-1.2,0.7-2.7,1.2-4.3L353.5,140.8z"
			/>
		<path d="M362.7,159.4l-3.5-16.3h-0.1c0.2,2.3,0.2,4,0.2,5.2v11.1h-1.9v-18.6h3.1l3.1,15.1h0.1l3.2-15.1h3.2v18.6h-1.9v-11.3
			c0-0.9,0.1-2.5,0.2-5h-0.1l-3.6,16.2H362.7z"/>
	</g>
	<g>
		<path d="M84.6,269.9l-5-6.8h2.6l3.7,5.2l3.7-5.2h2.6l-5,6.8l5.2,7.1h-2.6l-3.9-5.5L82,277h-2.6L84.6,269.9z"/>
		<path d="M102,267.2c2.6,1.4,3.9,3,3.9,5c0,1.5-0.5,2.8-1.6,3.7s-2.5,1.4-4.2,1.4c-1.8,0-3.3-0.4-4.3-1.3c-1-0.9-1.5-2.1-1.5-3.7
			c0-2.2,1.2-3.8,3.6-5c-2-1.2-3-2.8-3-4.7c0-1.4,0.5-2.4,1.5-3.2c1-0.8,2.2-1.2,3.7-1.2c1.6,0,2.8,0.4,3.8,1.2s1.4,1.9,1.4,3.3
			C105.3,264.6,104.2,266.1,102,267.2z M99.8,268.2c-2.1,1-3.2,2.4-3.2,4.1c0,2,1.2,3,3.5,3c1.2,0,2-0.3,2.7-0.8
			c0.6-0.6,0.9-1.3,0.9-2.3c0-0.8-0.3-1.4-0.8-2c-0.5-0.6-1.4-1.2-2.7-1.8L99.8,268.2z M100.1,266.3c2-0.9,2.9-2,2.9-3.5
			c0-0.9-0.3-1.5-0.8-2s-1.3-0.7-2.2-0.7c-0.9,0-1.6,0.2-2.1,0.7s-0.8,1.1-0.8,2c0,0.8,0.2,1.4,0.6,1.9
			C98.2,265.2,99,265.7,100.1,266.3z"/>
		<path d="M118.5,258.4v2c-0.6-0.2-1.3-0.3-2.1-0.3c-1.9,0-3.3,0.6-4.3,1.8s-1.5,3.1-1.6,5.7h0.2c0.8-1.4,2.1-2.2,3.9-2.2
			c1.7,0,2.9,0.5,3.9,1.5s1.4,2.4,1.4,4.1c0,1.9-0.5,3.5-1.5,4.6c-1,1.1-2.4,1.7-4.1,1.7c-1.8,0-3.3-0.7-4.4-2.1
			c-1.1-1.4-1.6-3.4-1.6-6c0-7.3,2.7-10.9,8.1-10.9C117.2,258.2,117.9,258.3,118.5,258.4z M117.7,271.1c0-1.2-0.3-2.2-0.9-2.8
			s-1.4-1-2.5-1s-2,0.3-2.7,1s-1.1,1.5-1.1,2.3c0,1.3,0.3,2.4,1,3.3c0.7,0.9,1.6,1.4,2.7,1.4c1.1,0,1.9-0.4,2.5-1.1
			S117.7,272.4,117.7,271.1z"/>
	</g>
	<g>
		<polygon fill="#E5BBBA" points="442,298 442,222 538,222 538,242 638,242 638,298 		"/>
		<g>
			<path fill="#DBACA9" d="M536,224v16v4h4h96v52H520h-40h-36v-72H536 M540,220H440v80h40h40h120v-60H540V220L540,220z"/>
		</g>
	</g>
	<g>
		<path d="M467.2,277h-2.4v-8.7h-7.4v8.7H455v-18.6h2.4v7.8h7.4v-7.8h2.4V277z"/>
		<path d="M475.2,264.2h2.2l1.8,6.6c0.5,1.9,0.8,3.2,0.9,3.9c0-0.4,0.3-3.1,0.8-7.9l0.9-8.4h2.2l-2.4,18.6h-2.4l-2.1-7.4
			c-0.3-1.2-0.6-2.4-0.8-3.6c-0.3,1.5-0.5,2.7-0.8,3.6l-2,7.3h-2.4l-2.6-18.6h2.2l1.1,8.4c0.2,1.5,0.4,3.1,0.5,4.8
			c0.1,1.7,0.2,2.7,0.2,3.1c0.2-1.3,0.5-2.6,0.9-4L475.2,264.2z"/>
		<path d="M500.4,276.5v-2.1c1.4,0.5,2.7,0.8,3.9,0.8c1.4,0,2.4-0.3,3.2-1c0.8-0.7,1.2-1.6,1.2-2.9v-12.9h2.4v12.8
			c0,1.8-0.6,3.3-1.8,4.4c-1.2,1.1-2.8,1.6-4.8,1.6C502.7,277.3,501.3,277,500.4,276.5z"/>
		<path d="M523.8,277l-0.5-1.9h-0.1c-0.7,0.8-1.3,1.4-2,1.7c-0.7,0.3-1.6,0.5-2.7,0.5c-1.4,0-2.5-0.4-3.2-1.1
			c-0.8-0.7-1.2-1.7-1.2-3.1c0-2.8,2.2-4.3,6.5-4.4l2.6-0.1v-0.9c0-2-1-3-3.1-3c-1.2,0-2.6,0.3-4.2,1l-0.8-1.7
			c1.7-0.8,3.3-1.2,4.9-1.2c1.9,0,3.3,0.4,4.2,1.1c0.9,0.7,1.3,1.9,1.3,3.5v9.5H523.8z M523.2,270.2l-2.1,0.1
			c-1.7,0.1-2.8,0.3-3.5,0.8c-0.7,0.5-1,1.1-1,2.1c0,1.5,0.8,2.3,2.5,2.3c1.2,0,2.2-0.3,3-1c0.7-0.7,1.1-1.7,1.1-2.9V270.2z"/>
		<path d="M532.8,277l-5.3-13.9h2.4l3,8.3c0.7,2,1.1,3.3,1.3,4.1h0.1c0.1-0.4,0.5-1.7,1.3-4.1l3-8.3h2.4l-5.3,13.9H532.8z"/>
		<path d="M552.3,277l-0.5-1.9h-0.1c-0.7,0.8-1.3,1.4-2,1.7c-0.7,0.3-1.6,0.5-2.7,0.5c-1.4,0-2.5-0.4-3.2-1.1
			c-0.8-0.7-1.2-1.7-1.2-3.1c0-2.8,2.2-4.3,6.5-4.4l2.6-0.1v-0.9c0-2-1-3-3.1-3c-1.2,0-2.6,0.3-4.2,1l-0.8-1.7
			c1.7-0.8,3.3-1.2,4.9-1.2c1.9,0,3.3,0.4,4.2,1.1c0.9,0.7,1.3,1.9,1.3,3.5v9.5H552.3z M551.7,270.2l-2.1,0.1
			c-1.7,0.1-2.8,0.3-3.5,0.8c-0.7,0.5-1,1.1-1,2.1c0,1.5,0.8,2.3,2.5,2.3c1.2,0,2.2-0.3,3-1c0.7-0.7,1.1-1.7,1.1-2.9V270.2z"/>
		<path d="M583.9,277l-1.8-5.8h-6.2L574,277h-2.4l6.1-18.6h2.5l6.2,18.6H583.9z M581.4,269.2l-1.7-5.4c-0.3-1-0.6-2-0.8-2.9
			c-0.2,0.8-0.4,1.6-0.6,2.3l-1.8,5.9H581.4z"/>
		<path d="M598.7,263.6l-0.8,2c-1.3-0.5-2.4-0.7-3.4-0.7c-3.1,0-4.7,1.7-4.7,5.2c0,3.4,1.5,5.2,4.6,5.2c1.3,0,2.7-0.3,4.1-0.8v2
			c-1.1,0.5-2.5,0.8-4.2,0.8c-2.2,0-3.9-0.6-5.1-1.8c-1.2-1.2-1.8-3-1.8-5.3c0-2.4,0.6-4.2,1.8-5.4c1.2-1.2,3-1.9,5.2-1.9
			C596,262.8,597.4,263.1,598.7,263.6z"/>
		<path d="M612.4,263.6l-0.8,2c-1.3-0.5-2.4-0.7-3.4-0.7c-3.1,0-4.7,1.7-4.7,5.2c0,3.4,1.5,5.2,4.6,5.2c1.3,0,2.7-0.3,4.1-0.8v2
			c-1.1,0.5-2.5,0.8-4.2,0.8c-2.2,0-3.9-0.6-5.1-1.8c-1.2-1.2-1.8-3-1.8-5.3c0-2.4,0.6-4.2,1.8-5.4c1.2-1.2,3-1.9,5.2-1.9
			C609.7,262.8,611.1,263.1,612.4,263.6z"/>
		<path d="M618.9,273.2c1.3,0,1.9,0.7,1.9,2.1s-0.6,2.1-1.9,2.1c-1.3,0-1.9-0.7-1.9-2.1S617.6,273.2,618.9,273.2z"/>
	</g>
	<g>
		<polygon fill="#7FCDE5" points="542,238 542,218 442,218 442,122 638,122 638,238 		"/>
		<path fill="#5AB1BF" d="M636,124v112h-92v-16v-4h-4h-96v-92H636 M640,120H440v100h100v20h100V120L640,120z"/>
	</g>
	<g>
		<path d="M454.9,176.5v-2.1c1.4,0.5,2.7,0.8,3.9,0.8c1.4,0,2.4-0.3,3.2-1c0.8-0.7,1.2-1.6,1.2-2.9v-12.9h2.4v12.8
			c0,1.8-0.6,3.3-1.8,4.4c-1.2,1.1-2.8,1.6-4.8,1.6C457.1,177.3,455.8,177,454.9,176.5z"/>
		<path d="M478.2,177l-0.5-1.9h-0.1c-0.7,0.8-1.3,1.4-2,1.7c-0.7,0.3-1.6,0.5-2.7,0.5c-1.4,0-2.5-0.4-3.2-1.1
			c-0.8-0.7-1.2-1.7-1.2-3.1c0-2.8,2.2-4.3,6.5-4.4l2.6-0.1v-0.9c0-2-1-3-3.1-3c-1.2,0-2.6,0.3-4.2,1l-0.8-1.7
			c1.7-0.8,3.3-1.2,4.9-1.2c1.9,0,3.3,0.4,4.2,1.1c0.9,0.7,1.3,1.9,1.3,3.5v9.5H478.2z M477.6,170.2l-2.1,0.1
			c-1.7,0.1-2.8,0.3-3.5,0.8c-0.7,0.5-1,1.1-1,2.1c0,1.5,0.8,2.3,2.5,2.3c1.2,0,2.2-0.3,3-1c0.7-0.7,1.1-1.7,1.1-2.9V170.2z"/>
		<path d="M487.3,177l-5.3-13.9h2.4l3,8.3c0.7,2,1.1,3.3,1.3,4.1h0.1c0.1-0.4,0.5-1.7,1.3-4.1l3-8.3h2.4l-5.3,13.9H487.3z"/>
		<path d="M506.7,177l-0.5-1.9h-0.1c-0.7,0.8-1.3,1.4-2,1.7c-0.7,0.3-1.6,0.5-2.7,0.5c-1.4,0-2.5-0.4-3.2-1.1
			c-0.8-0.7-1.2-1.7-1.2-3.1c0-2.8,2.2-4.3,6.5-4.4l2.6-0.1v-0.9c0-2-1-3-3.1-3c-1.2,0-2.6,0.3-4.2,1l-0.8-1.7
			c1.7-0.8,3.3-1.2,4.9-1.2c1.9,0,3.3,0.4,4.2,1.1c0.9,0.7,1.3,1.9,1.3,3.5v9.5H506.7z M506.1,170.2l-2.1,0.1
			c-1.7,0.1-2.8,0.3-3.5,0.8c-0.7,0.5-1,1.1-1,2.1c0,1.5,0.8,2.3,2.5,2.3c1.2,0,2.2-0.3,3-1c0.7-0.7,1.1-1.7,1.1-2.9V170.2z"/>
		<path d="M529.9,175.3h-0.2c0.1,1.1,0.2,1.8,0.2,2.1v6h-2.3v-20.2h1.9l0.3,1.9h0.1c0.9-1.4,2.3-2.1,4.1-2.1c1.7,0,3,0.6,4,1.9
			c1,1.3,1.5,3,1.5,5.3c0,2.3-0.5,4.1-1.5,5.3c-1,1.3-2.3,1.9-4,1.9C532.2,177.3,530.8,176.6,529.9,175.3z M529.9,169.5v0.5
			c0,1.9,0.3,3.3,0.9,4.1c0.6,0.8,1.5,1.2,2.8,1.2c2.3,0,3.5-1.8,3.5-5.4c0-3.5-1.2-5.3-3.5-5.3c-1.3,0-2.2,0.4-2.8,1.1
			C530.2,166.6,529.9,167.8,529.9,169.5z"/>
		<path d="M553.2,163.4l-0.6,2.1c-1-0.4-2-0.6-2.8-0.6c-1.4,0-2.4,0.4-3.2,1.2c-0.7,0.8-1.1,1.9-1.1,3.4v7.5h-2.3v-13.9h1.9l0.3,2.6
			h0.1c0.6-1,1.3-1.7,2.1-2.2s1.6-0.6,2.7-0.6C551.2,162.8,552.2,163,553.2,163.4z"/>
		<path d="M561.4,177.3c-1.8,0-3.3-0.7-4.5-2c-1.2-1.3-1.8-3.1-1.8-5.3c0-2.2,0.6-4,1.7-5.3c1.1-1.3,2.7-1.9,4.6-1.9
			c1.8,0,3.4,0.7,4.5,2c1.2,1.3,1.8,3.1,1.8,5.2c0,2.2-0.6,4-1.7,5.3C564.9,176.6,563.3,177.3,561.4,177.3z M561.4,175.4
			c2.6,0,3.9-1.8,3.9-5.3c0-3.5-1.3-5.3-4-5.3c-2.6,0-3.9,1.8-3.9,5.3C557.5,173.6,558.8,175.4,561.4,175.4z"/>
		<path d="M582.4,163.1v1.4l-2.5,0.3c0.5,0.7,0.8,1.6,0.8,2.7c0,1.4-0.5,2.4-1.4,3.3c-0.9,0.8-2.2,1.2-3.8,1.2c-0.5,0-0.8,0-1.1-0.1
			c-0.8,0.5-1.3,1-1.3,1.7c0,0.7,0.7,1.1,2,1.1h2.4c1.5,0,2.6,0.3,3.4,1c0.8,0.7,1.2,1.6,1.2,2.8c0,3.2-2.4,4.8-7.2,4.8
			c-1.8,0-3.2-0.3-4.2-1c-1-0.7-1.4-1.6-1.4-2.9c0-1.8,1-2.9,3-3.4c-0.8-0.4-1.2-1-1.2-2c0-0.9,0.6-1.8,1.7-2.4
			c-0.8-0.3-1.3-0.8-1.8-1.6c-0.4-0.7-0.6-1.5-0.6-2.4c0-1.5,0.5-2.7,1.4-3.6c0.9-0.8,2.2-1.3,3.9-1.3c0.7,0,1.4,0.1,1.9,0.3H582.4z
			 M576.9,176.8h-2.4c-1.9,0-2.9,0.8-2.9,2.5c0,1.5,1.1,2.2,3.4,2.2c3.3,0,5-0.9,5-2.8c0-0.7-0.2-1.2-0.6-1.5
			C579,176.9,578.1,176.8,576.9,176.8z M575.6,170.5c1.9,0,2.8-1,2.8-2.9c0-2-1-3-2.9-3s-2.9,1-2.9,3.1
			C572.7,169.5,573.7,170.5,575.6,170.5z"/>
		<path d="M595.6,163.4l-0.6,2.1c-1-0.4-2-0.6-2.8-0.6c-1.4,0-2.4,0.4-3.2,1.2c-0.7,0.8-1.1,1.9-1.1,3.4v7.5h-2.3v-13.9h1.9l0.3,2.6
			h0.1c0.6-1,1.3-1.7,2.1-2.2s1.6-0.6,2.7-0.6C593.6,162.8,594.6,163,595.6,163.4z"/>
		<path d="M607.5,177l-0.5-1.9h-0.1c-0.7,0.8-1.3,1.4-2,1.7c-0.7,0.3-1.6,0.5-2.7,0.5c-1.4,0-2.5-0.4-3.2-1.1
			c-0.8-0.7-1.2-1.7-1.2-3.1c0-2.8,2.2-4.3,6.5-4.4l2.6-0.1v-0.9c0-2-1-3-3.1-3c-1.2,0-2.6,0.3-4.2,1l-0.8-1.7
			c1.7-0.8,3.3-1.2,4.9-1.2c1.9,0,3.3,0.4,4.2,1.1c0.9,0.7,1.3,1.9,1.3,3.5v9.5H607.5z M606.8,170.2l-2.1,0.1
			c-1.7,0.1-2.8,0.3-3.5,0.8c-0.7,0.5-1,1.1-1,2.1c0,1.5,0.8,2.3,2.5,2.3c1.2,0,2.2-0.3,3-1c0.7-0.7,1.1-1.7,1.1-2.9V170.2z"/>
		<path d="M623.7,177v-9c0-1.2-0.1-2.1-0.3-2.6c-0.2-0.5-0.6-0.7-1.1-0.7c-0.7,0-1.3,0.4-1.6,1.1c-0.3,0.7-0.5,1.9-0.5,3.5v7.7h-2
			v-9c0-2.2-0.5-3.3-1.6-3.3c-0.7,0-1.2,0.3-1.5,1c-0.3,0.7-0.5,2-0.5,4v7.2h-2.1v-13.9h1.6l0.3,1.9h0.1c0.6-1.4,1.4-2.1,2.6-2.1
			c1.4,0,2.3,0.8,2.7,2.3h0.1c0.6-1.5,1.6-2.3,2.8-2.3c1.1,0,1.9,0.4,2.4,1.2c0.5,0.8,0.7,2.1,0.7,3.9v9.1H623.7z"/>
	</g>
</g>
</svg>
