<?xml version="1.0" encoding="utf-8"?>
<!-- Generator: Adobe Illustrator 16.0.3, SVG Export Plug-In . SVG Version: 6.00 Build 0)  -->
<!DOCTYPE svg PUBLIC "-//W3C//DTD SVG 1.1//EN" "http://www.w3.org/Graphics/SVG/1.1/DTD/svg11.dtd">
<svg version="1.1" id="Layer_1" xmlns="http://www.w3.org/2000/svg" xmlns:xlink="http://www.w3.org/1999/xlink" x="0px" y="0px"
	 width="800px" height="275px" viewBox="0 0 800 275" enable-background="new 0 0 800 275" xml:space="preserve">
<g>
	<rect x="341" y="1" fill="#FFFFFF" width="118" height="58"/>
	<path d="M458,2v56H342V2H458 M460,0H340v60h120V0L460,0z"/>
</g>
<text transform="matrix(1 0 0 1 361.5132 33.6177)" font-family="'Consolas'" font-size="14">index.html</text>
<g>
	<g>
		<line fill="none" stroke="#000000" stroke-width="2" stroke-miterlimit="10" x1="400" y1="60" x2="400" y2="112.824"/>
		<g>
			<polygon points="395.014,111.365 399.999,120 404.986,111.365 			"/>
		</g>
	</g>
</g>
<g>
	<rect x="341" y="121" fill="#FFFFFF" width="118" height="58"/>
	<path d="M458,122v56H342v-56H458 M460,120H340v60h120V120L460,120z"/>
</g>
<text transform="matrix(1 0 0 1 380.7563 153.6177)" font-family="'Consolas'" font-size="14">/blog</text>
<g>
	<rect x="1" y="121" fill="#FFFFFF" width="118" height="58"/>
	<path d="M118,122v56H2v-56H118 M120,120H0v60h120V120L120,120z"/>
</g>
<text transform="matrix(1 0 0 1 29.2104 153.6177)" font-family="'Consolas'" font-size="14">/gallery</text>
<g>
	<rect x="171" y="121" fill="#FFFFFF" width="118" height="58"/>
	<path d="M288,122v56H172v-56H288 M290,120H170v60h120V120L290,120z"/>
</g>
<text transform="matrix(1 0 0 1 210.7563 153.6177)" font-family="'Consolas'" font-size="14">/shop</text>
<g>
	<rect x="681" y="121" fill="#FFFFFF" width="118" height="58"/>
	<path d="M798,122v56H682v-56H798 M800,120H680v60h120V120L800,120z"/>
</g>
<text transform="matrix(1 0 0 1 689.9668 153.6177)" font-family="'Consolas'" font-size="14">/get-in-touch</text>
<g>
	<rect x="511" y="121" fill="#FFFFFF" width="118" height="58"/>
	<path d="M628,122v56H512v-56H628 M630,120H510v60h120V120L630,120z"/>
</g>
<text transform="matrix(1 0 0 1 535.3613 153.6177)" font-family="'Consolas'" font-size="14">/about-me</text>
<g>
	<g>
		<polyline fill="none" stroke="#000000" stroke-width="2" stroke-miterlimit="10" points="400,90 230,90 230,112.824 		"/>
		<g>
			<polygon points="225.014,111.365 229.999,120 234.985,111.365 			"/>
		</g>
	</g>
</g>
<g>
	<g>
		<polyline fill="none" stroke="#000000" stroke-width="2" stroke-miterlimit="10" points="230,90 60,90 60,112.824 		"/>
		<g>
			<polygon points="55.014,111.365 60,120 64.986,111.365 			"/>
		</g>
	</g>
</g>
<g>
	<g>
		<polyline fill="none" stroke="#000000" stroke-width="2" stroke-miterlimit="10" points="400,90 570,90 570,112.824 		"/>
		<g>
			<polygon points="565.014,111.365 570,120 574.986,111.365 			"/>
		</g>
	</g>
</g>
<g>
	<g>
		<polyline fill="none" stroke="#000000" stroke-width="2" stroke-miterlimit="10" points="569.999,90 739.999,90 740,112.824 		"/>
		<g>
			<polygon points="735.014,111.365 740,120 744.985,111.365 			"/>
		</g>
	</g>
</g>
<g>
	<g>
		<polyline fill="none" stroke="#000000" stroke-width="2" stroke-miterlimit="10" points="230,180 230,200 286,200 286,212.824 		
			"/>
		<g>
			<polygon points="281.014,211.365 285.999,220 290.985,211.365 			"/>
		</g>
	</g>
</g>
<text transform="matrix(1 0 0 1 152.832 243.6177)" font-family="'Consolas'" font-size="11">/basket</text>
<g>
	<path d="M212,222v36h-76v-36H212 M214,220h-80v40h80V220L214,220z"/>
</g>
<text transform="matrix(1 0 0 1 264.832 243.6177)"><tspan x="0" y="0" font-family="'Consolas'" font-size="11">/item?</tspan><tspan x="36.287" y="0" font-family="'Consolas-Italic'" font-size="11">x</tspan></text>
<g>
	<path d="M324,222v36h-76v-36H324 M326,220h-80v40h80V220L326,220z"/>
</g>
<g>
	<g>
		<polyline fill="none" stroke="#000000" stroke-width="2" stroke-miterlimit="10" points="230,200 174,200 174,212.824 		"/>
		<g>
			<polygon points="169.014,211.365 174,220 178.986,211.365 			"/>
		</g>
	</g>
</g>
<g>
	<g>
		<polyline fill="none" stroke="#000000" stroke-width="2" stroke-miterlimit="10" points="400,200 520,200 520,212.824 		"/>
		<g>
			<polygon points="515.014,211.365 520,220 524.986,211.365 			"/>
		</g>
	</g>
</g>
<text transform="matrix(1 0 0 1 375.8086 243.6177)"><tspan x="0" y="0" font-family="'Consolas'" font-size="11">/tag?</tspan><tspan x="30.239" y="0" font-family="'Consolas-Italic'" font-size="11">tag</tspan></text>
<g>
	<path d="M438,222v36h-76v-36H438 M440,220h-80v40h80V220L440,220z"/>
</g>
<text transform="matrix(1 0 0 1 486.7363 243.6177)"><tspan x="0" y="0" font-family="'Consolas'" font-size="11">/</tspan><tspan x="6.049" y="0" font-family="'Consolas-Italic'" font-size="11">date</tspan><tspan x="30.24" y="0" font-family="'Consolas'" font-size="11">/</tspan><tspan x="36.287" y="0" font-family="'Consolas-Italic'" font-size="11">title</tspan></text>
<g>
	<g>
		<line fill="none" stroke="#000000" stroke-width="2" stroke-miterlimit="10" x1="400" y1="180" x2="400" y2="212.824"/>
		<g>
			<polygon points="395.014,211.365 400,220 404.986,211.365 			"/>
		</g>
	</g>
</g>
<g>
	<path d="M566,222v36h-92v-36H566 M568,220h-96v40h96V220L568,220z"/>
</g>
</svg>
