<!-- i exported from ullustrator, don't judge me -->
<svg version="1.1" id="Layer_1" xmlns="http://www.w3.org/2000/svg" xmlns:xlink="http://www.w3.org/1999/xlink" x="0px" y="0px"
	 width="800px" height="800px" viewBox="0 -479 800 800" enable-background="new 0 -479 800 800" xml:space="preserve">
<path fill="#BFBFBF" d="M750-479v800H50v-800H750 M754-483h-4H50h-4v4v800v4h4h700h4v-4v-800V-483L754-483z"/>
<path fill="#BFBFBF" d="M750-479v60H50v-60H750 M754-483h-4H50h-4v4v60v4h4h700h4v-4v-60V-483L754-483z"/>
<text transform="matrix(1 0 0 1 72.4998 -444.3037)" font-family="source sans pro,myriad pro,segoe ui,clear sans,sans-serif" font-size="16">Home</text>
<text transform="matrix(1 0 0 1 145.4998 -444.3037)" font-family="source sans pro,myriad pro,segoe ui,clear sans,sans-serif" font-size="16">2×2×2 Cube</text>
<text transform="matrix(1 0 0 1 258.4998 -444.3037)" font-family="source sans pro,myriad pro,segoe ui,clear sans,sans-serif" font-size="16">3×3×3 Cube</text>
<text transform="matrix(1 0 0 1 530.4998 -444.3037)" font-family="source sans pro,myriad pro,segoe ui,clear sans,sans-serif" font-size="16">...</text>
<g>
	<rect x="74" y="-417" fill="#FFB42E" width="160" height="47.5"/>
	<path fill="#FFFFFF" d="M234-417v47.5H74V-417H234 M240-423h-6H74h-6v6v47.5v6h6h160h6v-6V-417V-423L240-423z"/>
</g>
<rect x="84" y="-407" fill="none" width="140" height="27.5"/>
<text transform="matrix(1 0 0 1 83.9998 -397.0601)"><tspan x="0" y="0" font-family="source sans pro,myriad pro,segoe ui,clear sans,sans-serif" font-size="14">Links to the different </tspan><tspan x="0" y="16.8" font-family="source sans pro,myriad pro,segoe ui,clear sans,sans-serif" font-size="14">pages of the website.</tspan></text>
<polygon fill="#FFB42E" points="74,-437 74,-417 94,-417 "/>
<text transform="matrix(1 0 0 1 374.4998 -444.3037)" font-family="source sans pro,myriad pro,segoe ui,clear sans,sans-serif" font-size="16">3×3×3 Speed Cube</text>
<g>
	<rect x="571" y="-417" fill="#FFB42E" width="141.5" height="91"/>
	<path fill="#FFFFFF" d="M712.5-417v91H571v-91H712.5 M718.5-423h-6H571h-6v6v91v6h6h141.5h6v-6v-91V-423L718.5-423z"/>
</g>
<rect x="581" y="-407" fill="none" width="75.5" height="27.5"/>
<text transform="matrix(1 0 0 1 580.9998 -397.0601)"><tspan x="0" y="0" font-family="source sans pro,myriad pro,segoe ui,clear sans,sans-serif" font-size="14">Background:</tspan><tspan x="0" y="16.8" font-family="source code pro,monaco,consolas,monospace" font-size="14">#69af98</tspan></text>
<polygon fill="#FFB42E" points="571,-437 571,-417 591,-417 "/>
<rect x="669" y="-413" fill="#69AF98" width="39.5" height="39.5"/>
<rect x="581" y="-363.5" fill="none" width="75.5" height="27.5"/>
<text transform="matrix(1 0 0 1 580.9998 -353.5601)"><tspan x="0" y="0" font-family="source sans pro,myriad pro,segoe ui,clear sans,sans-serif" font-size="14">Text:</tspan><tspan x="0" y="16.8" font-family="source code pro,monaco,consolas,monospace" font-size="14">#fff</tspan></text>
<rect x="669" y="-369.5" fill="#FFFFFF" width="39.5" height="39.5"/>
<text transform="matrix(1 0 0 1 49.9997 -323.6372)" font-family="source sans pro,myriad pro,segoe ui,clear sans,sans-serif" font-weight="bold" font-size="36">Page Title</text>
<rect x="50" y="-295.887" fill="none" width="700" height="64.887"/>
<text transform="matrix(1 0 0 1 49.9998 -285.9473)"><tspan x="0" y="0" font-family="source sans pro,myriad pro,segoe ui,clear sans,sans-serif" font-size="14">Vestibulum id erat vel nisi dapibus auctor pretium id dui. Praesent sagittis sem volutpat augue fringilla, ut tempus libero </tspan><tspan x="0" y="16.8" font-family="source sans pro,myriad pro,segoe ui,clear sans,sans-serif" font-size="14">lacinia. Mauris sollicitudin eu sem et tempor. Nunc mollis sapien nulla, a varius ligula faucibus quis. Nullam sollicitudin </tspan><tspan x="0" y="33.6" font-family="source sans pro,myriad pro,segoe ui,clear sans,sans-serif" font-size="14">diam at eros ornare, quis eleifend ex auctor. Maecenas tincidunt purus sed laoreet efficitur. Etiam est eros, maximus nec </tspan><tspan x="0" y="50.4" font-family="source sans pro,myriad pro,segoe ui,clear sans,sans-serif" font-size="14">enim id, auctor ornare felis.</tspan></text>
<g>
	<rect x="237.999" y="-333.387" fill="#FFB42E" width="180.835" height="47.5"/>
	<path fill="#FFFFFF" d="M418.834-333.387v47.5H237.999v-47.5H418.834 M424.834-339.387h-6H237.999h-6v6v47.5v6h6h180.835h6v-6
		v-47.5V-339.387L424.834-339.387z"/>
</g>
<rect x="247.999" y="-323.387" fill="none" width="160.835" height="27.5"/>
<text transform="matrix(1 0 0 1 247.9993 -313.4473)"><tspan x="0" y="0" font-family="source sans pro,myriad pro,segoe ui,clear sans,sans-serif" font-size="14">Main title: 1.5em; bold; </tspan><tspan x="0" y="16.8" font-family="source sans pro,myriad pro,segoe ui,clear sans,sans-serif" font-size="14">Myriad, Segoe UI, sans-serif</tspan></text>
<polygon fill="#FFB42E" points="237.999,-313.387 237.999,-333.387 217.999,-333.387 "/>
<g>
	<rect x="291" y="-417" fill="#FFB42E" width="167" height="47.5"/>
	<path fill="#FFFFFF" d="M458-417v47.5H291V-417H458 M464-423h-6H291h-6v6v47.5v6h6h167h6v-6V-417V-423L464-423z"/>
</g>
<rect x="301" y="-407" fill="none" width="147" height="27.5"/>
<text transform="matrix(1 0 0 1 300.9998 -397.0601)"><tspan x="0" y="0" font-family="source sans pro,myriad pro,segoe ui,clear sans,sans-serif" font-size="14">Navigation links: 12pt; </tspan><tspan x="0" y="16.8" font-family="source sans pro,myriad pro,segoe ui,clear sans,sans-serif" font-size="14">normal weight; sans-serif</tspan></text>
<polygon fill="#FFB42E" points="291,-437 291,-417 311,-417 "/>
<g>
	<rect x="50" y="-214" fill="#FFFFFF" width="100" height="100"/>
	<path fill="#BFBFBF" d="M146-210v92H54v-92H146 M150-214H50v100h100V-214L150-214z"/>
</g>
<g>
	<rect x="160" y="-214" fill="#FFFFFF" width="100" height="100"/>
	<path fill="#BFBFBF" d="M256-210v92h-92v-92H256 M260-214H160v100h100V-214L260-214z"/>
</g>
<g>
	<rect x="270" y="-214" fill="#FFFFFF" width="100" height="100"/>
	<path fill="#BFBFBF" d="M366-210v92h-92v-92H366 M370-214H270v100h100V-214L370-214z"/>
</g>
<g>
	<rect x="380" y="-214" fill="#FFFFFF" width="100" height="100"/>
	<path fill="#BFBFBF" d="M476-210v92h-92v-92H476 M480-214H380v100h100V-214L480-214z"/>
</g>
<g>
	<rect x="490" y="-214" fill="#FFFFFF" width="100" height="100"/>
	<path fill="#BFBFBF" d="M586-210v92h-92v-92H586 M590-214H490v100h100V-214L590-214z"/>
</g>
<g>
	<rect x="229.582" y="-187.75" fill="#FFB42E" width="180.835" height="47.5"/>
	<path fill="#FFFFFF" d="M410.417-187.75v47.5H229.582v-47.5H410.417 M416.417-193.75h-6H229.582h-6v6v47.5v6h6h180.835h6v-6v-47.5
		V-193.75L416.417-193.75z"/>
</g>
<rect x="239.582" y="-177.75" fill="none" width="160.835" height="27.5"/>
<text transform="matrix(1 0 0 1 239.5825 -167.8101)"><tspan x="0" y="0" font-family="source sans pro,myriad pro,segoe ui,clear sans,sans-serif" font-size="14">Image links to each of the </tspan><tspan x="0" y="16.8" font-family="source sans pro,myriad pro,segoe ui,clear sans,sans-serif" font-size="14">site pages.</tspan></text>
<path d="M173-92c3.86,0,7,3.14,7,7v22c0,3.86-3.14,7-7,7H59c-3.86,0-7-3.14-7-7v-22c0-3.86,3.14-7,7-7H173 M173-94H59
	c-4.971,0-9,4.029-9,9v22c0,4.971,4.029,9,9,9h114c4.97,0,9-4.029,9-9v-22C182-89.971,177.97-94,173-94L173-94z"/>
<path d="M315-92c3.86,0,7,3.14,7,7v22c0,3.86-3.14,7-7,7H201c-3.86,0-7-3.14-7-7v-22c0-3.86,3.14-7,7-7H315 M315-94H201
	c-4.971,0-9,4.029-9,9v22c0,4.971,4.029,9,9,9h114c4.97,0,9-4.029,9-9v-22C324-89.971,319.97-94,315-94L315-94z"/>
<text transform="matrix(1 0 0 1 72.0058 -69.8909)" font-family="source sans pro,myriad pro,segoe ui,clear sans,sans-serif" font-size="14">View User Data</text>
<text transform="matrix(1 0 0 1 206.5505 -69.8907)" font-family="source sans pro,myriad pro,segoe ui,clear sans,sans-serif" font-size="14">Update User Data</text>
<g>
	<rect x="353.999" y="-74" fill="#FFB42E" width="165.085" height="110.75"/>
	<path fill="#FFFFFF" d="M519.084-74V36.75H353.999V-74H519.084 M525.084-80h-6H353.999h-6v6V36.75v6h6h165.085h6v-6V-74V-80
		L525.084-80z"/>
</g>
<rect x="364" y="-64" fill="none" width="160.834" height="13.75"/>
<text transform="matrix(1 0 0 1 363.9998 -54.0601)" font-family="source sans pro,myriad pro,segoe ui,clear sans,sans-serif" font-size="14">User data action buttons.</text>
<polygon fill="#FFB42E" points="354,-54 354,-74 334,-74 "/>
<rect x="364" y="-44.25" fill="none" width="75.5" height="27.5"/>
<text transform="matrix(1 0 0 1 363.9998 -34.3101)"><tspan x="0" y="0" font-family="source sans pro,myriad pro,segoe ui,clear sans,sans-serif" font-size="14">Background:</tspan><tspan x="0" y="16.8" font-family="source code pro,monaco,consolas,monospace" font-size="14">#69af98</tspan></text>
<rect x="475.584" y="-50.25" fill="#69AF98" width="39.5" height="39.5"/>
<rect x="364" y="-0.75" fill="none" width="75.5" height="27.5"/>
<text transform="matrix(1 0 0 1 363.9998 9.1899)"><tspan x="0" y="0" font-family="source sans pro,myriad pro,segoe ui,clear sans,sans-serif" font-size="14">Text:</tspan><tspan x="0" y="16.8" font-family="source code pro,monaco,consolas,monospace" font-size="14">#fff</tspan></text>
<rect x="475.584" y="-6.75" fill="#FFFFFF" width="39.5" height="39.5"/>
<g>
	<rect x="52" y="303" fill="#CE2439" width="696" height="4"/>
	<g>
		<rect x="50" y="292" fill="#CE2439" width="4" height="26"/>
	</g>
	<g>
		<rect x="746" y="292" fill="#CE2439" width="4" height="26"/>
	</g>
</g>
<text transform="matrix(1 0 0 1 142.7903 295)" fill="#CE2439" font-family="source sans pro,myriad pro,segoe ui,clear sans,sans-serif" font-weight="bold" font-size="14">60%, min. 1060 px</text>
<g>
	<rect x="52" y="-36" fill="#CE2439" width="128" height="4"/>
	<g>
		<rect x="50" y="-47" fill="#CE2439" width="4" height="26"/>
	</g>
	<g>
		<rect x="178" y="-47" fill="#CE2439" width="4" height="26"/>
	</g>
</g>
<text transform="matrix(1 0 0 1 60.8551 -14)"><tspan x="0" y="0" fill="#CE2439" font-family="source sans pro,myriad pro,segoe ui,clear sans,sans-serif" font-weight="bold" font-size="14">20%, min. 100 px,</tspan><tspan x="3.843" y="16.8" fill="#CE2439" font-family="source sans pro,myriad pro,segoe ui,clear sans,sans-serif" font-weight="bold" font-size="14">0.8 em rounding</tspan></text>
<g>
	<rect x="52" y="-214" fill="#CE2439" width="96" height="4"/>
	<g>
		<rect x="50" y="-225" fill="#CE2439" width="4" height="26"/>
	</g>
	<g>
		<rect x="146" y="-225" fill="#CE2439" width="4" height="26"/>
	</g>
</g>
<text transform="matrix(1 0 0 1 79.112 -192)" fill="#CE2439" font-family="source sans pro,myriad pro,segoe ui,clear sans,sans-serif" font-weight="bold" font-size="14">128 px</text>
<g>
	<rect x="50" y="-212" fill="#CE2439" width="4" height="96"/>
	<g>
		<rect x="39" y="-214" fill="#CE2439" width="26" height="4"/>
	</g>
	<g>
		<rect x="39" y="-118" fill="#CE2439" width="26" height="4"/>
	</g>
</g>
<text transform="matrix(1 0 0 1 61.9997 -159.8911)" fill="#CE2439" font-family="source sans pro,myriad pro,segoe ui,clear sans,sans-serif" font-weight="bold" font-size="14">128 px</text>
<g>
	<rect x="50" y="-112" fill="#CE2439" width="4" height="16"/>
	<g>
		<rect x="39" y="-98" fill="#CE2439" width="26" height="4"/>
	</g>
	<g>
		<rect x="39" y="-114" fill="#CE2439" width="26" height="4"/>
	</g>
</g>
<text transform="matrix(1 0 0 1 61.9997 -99.8911)" fill="#CE2439" font-family="source sans pro,myriad pro,segoe ui,clear sans,sans-serif" font-weight="bold" font-size="14">2 em</text>
<g>
	<rect x="152" y="-214" fill="#CE2439" width="6" height="4"/>
	<g>
		<rect x="156" y="-225" fill="#CE2439" width="4" height="26"/>
	</g>
	<g>
		<rect x="150" y="-225" fill="#CE2439" width="4" height="26"/>
	</g>
</g>
<text transform="matrix(1 0 0 1 139.985 -182)" fill="#CE2439" font-family="source sans pro,myriad pro,segoe ui,clear sans,sans-serif" font-weight="bold" font-size="14">1 em</text>
<g>
	<rect x="184" y="-96" fill="#CE2439" width="6" height="4"/>
	<g>
		<rect x="188" y="-107" fill="#CE2439" width="4" height="26"/>
	</g>
	<g>
		<rect x="182" y="-107" fill="#CE2439" width="4" height="26"/>
	</g>
</g>
<text transform="matrix(1 0 0 1 171.985 -64)" fill="#CE2439" font-family="source sans pro,myriad pro,segoe ui,clear sans,sans-serif" font-weight="bold" font-size="14">1 em</text>
<g>
	<polygon fill="#FFB42E" points="603,-244.75 583,-264.75 583,-244.75 583,-197.25 750,-197.25 750,-244.75 	"/>
	<path fill="#FFFFFF" d="M583-264.75l20,20h147v47.5H583v-47.5V-264.75 M577-279.235v14.485v20v47.5v6h6h167h6v-6v-47.5v-6h-6
		H605.485l-18.243-18.243L577-279.235L577-279.235z"/>
</g>
<rect x="593" y="-234.75" fill="none" width="147" height="27.5"/>
<text transform="matrix(1 0 0 1 592.9998 -224.8101)"><tspan x="0" y="0" font-family="source sans pro,myriad pro,segoe ui,clear sans,sans-serif" font-size="14">Body text: 12pt; normal </tspan><tspan x="0" y="16.8" font-family="source sans pro,myriad pro,segoe ui,clear sans,sans-serif" font-size="14">weight; sans-serif</tspan></text>
<path d="M386,58.75c3.86,0,7,3.14,7,7v22c0,3.86-3.14,7-7,7H59c-3.86,0-7-3.14-7-7v-22c0-3.86,3.14-7,7-7H386 M386,56.75H59
	c-4.971,0-9,4.029-9,9v22c0,4.971,4.029,9,9,9h327c4.971,0,9-4.029,9-9v-22C395,60.779,390.97,56.75,386,56.75L386,56.75z"/>
<path d="M741,58.75c3.86,0,7,3.14,7,7v22c0,3.86-3.14,7-7,7H414c-3.86,0-7-3.14-7-7v-22c0-3.86,3.14-7,7-7H741 M741,56.75H414
	c-4.971,0-9,4.029-9,9v22c0,4.971,4.029,9,9,9h327c4.971,0,9-4.029,9-9v-22C750,60.779,745.97,56.75,741,56.75L741,56.75z"/>
<text transform="matrix(1 0 0 1 66 80.8591)" fill="#7F7F7F" font-family="source sans pro,myriad pro,segoe ui,clear sans,sans-serif" font-size="14">Name</text>
<text transform="matrix(1 0 0 1 421 80.8591)" fill="#7F7F7F" font-family="source sans pro,myriad pro,segoe ui,clear sans,sans-serif" font-size="14">Email Address</text>
<path d="M741,187.75H59c-5.514,0-10-4.486-10-10v-62c0-5.514,4.486-10,10-10h682c5.514,0,10,4.486,10,10v62
	C751,183.264,746.513,187.75,741,187.75z M59,107.75c-4.411,0-8,3.589-8,8v62c0,4.411,3.589,8,8,8h682c4.411,0,8-3.589,8-8v-62
	c0-4.411-3.589-8-8-8H59z"/>
<text transform="matrix(1 0 0 1 66 130.8591)" fill="#7F7F7F" font-family="source sans pro,myriad pro,segoe ui,clear sans,sans-serif" font-size="14">Message</text>
<path d="M457,198.75c3.86,0,7,3.14,7,7v22c0,3.86-3.14,7-7,7H343c-3.86,0-7-3.14-7-7v-22c0-3.86,3.14-7,7-7H457 M457,196.75H343
	c-4.971,0-9,4.029-9,9v22c0,4.971,4.029,9,9,9h114c4.971,0,9-4.029,9-9v-22C466,200.779,461.97,196.75,457,196.75L457,196.75z"/>
<text transform="matrix(1 0 0 1 378.9157 220.8593)" font-family="source sans pro,myriad pro,segoe ui,clear sans,sans-serif" font-size="14">Submit</text>
<g>
	<rect x="495.999" y="216.75" fill="#FFB42E" width="180.835" height="30"/>
	<path fill="#FFFFFF" d="M676.834,216.75v30H495.999v-30H676.834 M682.834,210.75h-6H495.999h-6v6v30v6h6h180.835h6v-6v-30V210.75
		L682.834,210.75z"/>
</g>
<rect x="506" y="226.75" fill="none" width="160.834" height="10"/>
<text transform="matrix(1 0 0 1 505.9998 236.6899)" font-family="source sans pro,myriad pro,segoe ui,clear sans,sans-serif" font-size="14">See user data buttons.</text>
<polygon fill="#FFB42E" points="496,236.75 496,216.75 476,216.75 "/>
<g>
	<rect x="151.25" y="56.75" fill="#FFB42E" width="189" height="166.391"/>
	<path fill="#FFFFFF" d="M340.25,56.75v166.391h-189V56.75H340.25 M346.25,50.75h-6h-189h-6v6v166.391v6h6h189h6v-6V56.75V50.75
		L346.25,50.75z"/>
</g>
<rect x="161.25" y="66.75" fill="none" width="116.168" height="27.5"/>
<text transform="matrix(1 0 0 1 161.2495 76.6904)" font-family="source sans pro,myriad pro,segoe ui,clear sans,sans-serif" font-size="14">Form input fields.</text>
<rect x="161.25" y="98.641" fill="none" width="132.333" height="27.5"/>
<text transform="matrix(1 0 0 1 161.2497 108.5808)"><tspan x="0" y="0" font-family="source sans pro,myriad pro,segoe ui,clear sans,sans-serif" font-size="14">Background + border:</tspan><tspan x="0" y="16.8" font-family="source code pro,monaco,consolas,monospace" font-size="14">#ddd</tspan></text>
<rect x="296.75" y="92.641" fill="#DDDDDD" width="39.5" height="39.5"/>
<rect x="161.25" y="142.141" fill="none" width="144.5" height="27.5"/>
<text transform="matrix(1 0 0 1 161.2497 152.0808)"><tspan x="0" y="0" font-family="source sans pro,myriad pro,segoe ui,clear sans,sans-serif" font-size="14">Background (hover):</tspan><tspan x="0" y="16.8" font-family="source code pro,monaco,consolas,monospace" font-size="14">#fafafa</tspan></text>
<rect x="296.75" y="136.141" fill="#FAFAFA" width="39.5" height="39.5"/>
<rect x="296.75" y="179.641" fill="#737373" width="39.5" height="39.5"/>
<rect x="161.25" y="185.641" fill="none" width="128.333" height="27.5"/>
<text transform="matrix(1 0 0 1 161.2497 195.5808)"><tspan x="0" y="0" font-family="source sans pro,myriad pro,segoe ui,clear sans,sans-serif" font-size="14">Placeholder text:</tspan><tspan x="0" y="16.8" font-family="source code pro,monaco,consolas,monospace" font-size="14">#737373</tspan></text>
<g>
	<rect x="397" y="54.75" fill="#CE2439" width="6" height="4"/>
	<g>
		<rect x="401" y="43.75" fill="#CE2439" width="4" height="26"/>
	</g>
	<g>
		<rect x="395" y="43.75" fill="#CE2439" width="4" height="26"/>
	</g>
</g>
<text transform="matrix(1 0 0 1 384.985 86.75)" fill="#CE2439" font-family="source sans pro,myriad pro,segoe ui,clear sans,sans-serif" font-weight="bold" font-size="14">1 em</text>
<g>
	<rect x="407" y="54.75" fill="#CE2439" width="341" height="4"/>
	<g>
		<rect x="405" y="43.75" fill="#CE2439" width="4" height="26"/>
	</g>
	<g>
		<rect x="746" y="43.75" fill="#CE2439" width="4" height="26"/>
	</g>
</g>
<text transform="matrix(1 0 0 1 526.0055 77.25)"><tspan x="0" y="0" fill="#CE2439" font-family="source sans pro,myriad pro,segoe ui,clear sans,sans-serif" font-weight="bold" font-size="14">(50% - 0.5 em),</tspan><tspan x="-5.355" y="16.8" fill="#CE2439" font-family="source sans pro,myriad pro,segoe ui,clear sans,sans-serif" font-weight="bold" font-size="14">0.8 em rounding</tspan></text>
<g>
	<rect x="336" y="254.75" fill="#CE2439" width="128" height="4"/>
	<g>
		<rect x="334" y="243.75" fill="#CE2439" width="4" height="26"/>
	</g>
	<g>
		<rect x="462" y="243.75" fill="#CE2439" width="4" height="26"/>
	</g>
</g>
<text transform="matrix(1 0 0 1 344.8544 276.75)"><tspan x="0" y="0" fill="#CE2439" font-family="source sans pro,myriad pro,segoe ui,clear sans,sans-serif" font-weight="bold" font-size="14">20%, min. 100 px,</tspan><tspan x="3.843" y="16.8" fill="#CE2439" font-family="source sans pro,myriad pro,segoe ui,clear sans,sans-serif" font-weight="bold" font-size="14">0.8 em rounding</tspan></text>
<g>
	<rect x="479" y="-477" fill="#CE2439" width="4" height="18"/>
	<g>
		<rect x="468" y="-479" fill="#CE2439" width="26" height="4"/>
	</g>
	<g>
		<rect x="468" y="-461" fill="#CE2439" width="26" height="4"/>
	</g>
</g>
<text transform="matrix(1 0 0 1 490.9997 -463.8911)" fill="#CE2439" font-family="source sans pro,myriad pro,segoe ui,clear sans,sans-serif" font-weight="bold" font-size="14">1.2 em</text>
</svg>
