<!-- i exported from ullustrator, don't judge me -->
<svg version="1.1" id="Layer_1" xmlns="http://www.w3.org/2000/svg" xmlns:xlink="http://www.w3.org/1999/xlink" x="0px" y="0px"
	 width="800px" height="600px" viewBox="0 -379 800 600" enable-background="new 0 -379 800 600" xml:space="preserve">
<path fill="#BFBFBF" d="M750-379v800H50v-800H750 M754-383h-4H50h-4v4v800v4h4h700h4v-4v-800V-383L754-383z"/>
<path fill="#BFBFBF" d="M750-379v60H50v-60H750 M754-383h-4H50h-4v4v60v4h4h700h4v-4v-60V-383L754-383z"/>
<text transform="matrix(1 0 0 1 72.4998 -344.3037)" font-family="source sans pro,myriad pro,segoe ui,clear sans,sans-serif" font-size="16">Home</text>
<text transform="matrix(1 0 0 1 145.4998 -344.3037)" font-family="source sans pro,myriad pro,segoe ui,clear sans,sans-serif" font-size="16">2×2×2 Cube</text>
<text transform="matrix(1 0 0 1 258.4998 -344.3037)" font-family="source sans pro,myriad pro,segoe ui,clear sans,sans-serif" font-size="16">3×3×3 Cube</text>
<text transform="matrix(1 0 0 1 530.4998 -344.3037)" font-family="source sans pro,myriad pro,segoe ui,clear sans,sans-serif" font-size="16">...</text>
<text transform="matrix(1 0 0 1 374.4998 -344.3037)" font-family="source sans pro,myriad pro,segoe ui,clear sans,sans-serif" font-size="16">3×3×3 Speed Cube</text>
<text transform="matrix(1 0 0 1 49.9997 -267.9558)" font-family="source sans pro,myriad pro,segoe ui,clear sans,sans-serif" font-weight="bold" font-size="36">Page Title</text>
<rect x="50" y="-250.206" fill="none" width="324.5" height="306.206"/>
<text transform="matrix(1 0 0 1 49.9998 -240.2654)"><tspan x="0" y="0" font-family="source sans pro,myriad pro,segoe ui,clear sans,sans-serif" font-size="14">Vestibulum id erat vel nisi dapibus auctor pretium id </tspan><tspan x="0" y="16.8" font-family="source sans pro,myriad pro,segoe ui,clear sans,sans-serif" font-size="14">dui. Praesent sagittis sem volutpat augue fringilla, ut </tspan><tspan x="0" y="33.6" font-family="source sans pro,myriad pro,segoe ui,clear sans,sans-serif" font-size="14">tempus libero lacinia. Mauris sollicitudin eu sem et </tspan><tspan x="0" y="50.4" font-family="source sans pro,myriad pro,segoe ui,clear sans,sans-serif" font-size="14">tempor. Nunc mollis sapien nulla, a varius ligula fauci</tspan><tspan x="307.615" y="50.4" font-family="source sans pro,myriad pro,segoe ui,clear sans,sans-serif" font-size="14">-</tspan><tspan x="0" y="67.2" font-family="source sans pro,myriad pro,segoe ui,clear sans,sans-serif" font-size="14">bus quis. Nullam sollicitudin diam at eros ornare, quis </tspan><tspan x="0" y="84" font-family="source sans pro,myriad pro,segoe ui,clear sans,sans-serif" font-size="14">eleifend ex auctor. Maecenas tincidunt purus sed lao</tspan><tspan x="305.488" y="84" font-family="source sans pro,myriad pro,segoe ui,clear sans,sans-serif" font-size="14">-</tspan><tspan x="0" y="100.8" font-family="source sans pro,myriad pro,segoe ui,clear sans,sans-serif" font-size="14">reet efficitur. Etiam est eros, maximus nec enim id, </tspan><tspan x="0" y="117.6" font-family="source sans pro,myriad pro,segoe ui,clear sans,sans-serif" font-size="14">auctor ornare felis.</tspan></text>
<g>
	<rect x="432" y="87.794" fill="#CE2439" width="316" height="4"/>
	<g>
		<rect x="430" y="76.794" fill="#CE2439" width="4" height="26"/>
	</g>
	<g>
		<rect x="746" y="76.794" fill="#CE2439" width="4" height="26"/>
	</g>
</g>
<text transform="matrix(1 0 0 1 569.1123 109.794)" fill="#CE2439" font-family="source sans pro,myriad pro,segoe ui,clear sans,sans-serif" font-weight="bold" font-size="14">500 px</text>
<g>
	<rect x="408" y="-248.206" fill="#CE2439" width="4" height="316"/>
	<g>
		<rect x="397" y="-250.206" fill="#CE2439" width="26" height="4"/>
	</g>
	<g>
		<rect x="397" y="65.794" fill="#CE2439" width="26" height="4"/>
	</g>
</g>
<g>
	<rect x="535.25" y="-107.081" fill="#FFB42E" width="109.5" height="33.75"/>
</g>
<rect x="545.25" y="-97.081" fill="none" width="89.5" height="13.75"/>
<text transform="matrix(1 0 0 1 545.2498 -87.1408)" font-family="source sans pro,myriad pro,segoe ui,clear sans,sans-serif" font-size="14">Full-size image.</text>
<path fill="#BFBFBF" d="M741-246.206c2.757,0,5,2.243,5,5v302c0,2.757-2.243,5-5,5H439c-2.757,0-5-2.243-5-5v-302
	c0-2.757,2.243-5,5-5H741 M741-250.206H439c-4.971,0-9,4.029-9,9v302c0,4.971,4.029,9,9,9h302c4.971,0,9-4.029,9-9v-302
	C750-246.176,745.97-250.206,741-250.206L741-250.206z"/>
<text transform="matrix(1 0 0 1 358.2246 -86.0969)" fill="#CE2439" font-family="source sans pro,myriad pro,segoe ui,clear sans,sans-serif" font-weight="bold" font-size="14">500 px</text>
<g>
	<rect x="361.5" y="-272.206" fill="#CE2439" width="66.5" height="4"/>
	<g>
		<rect x="359.5" y="-283.206" fill="#CE2439" width="4" height="26"/>
	</g>
	<g>
		<rect x="426" y="-283.206" fill="#CE2439" width="4" height="26"/>
	</g>
</g>
<text transform="matrix(1 0 0 1 374.0303 -280.2056)" fill="#CE2439" font-family="source sans pro,myriad pro,segoe ui,clear sans,sans-serif" font-weight="bold" font-size="14">1.6 em</text>
</svg>
